<svg id="Layer_1" data-name="Layer 1" xmlns="http://www.w3.org/2000/svg" viewBox="0 0 960 960">
  <defs>
    <style>
      .cls-1 {
        fill: #e72626;
      }

      .cls-2 {
        fill: #7bb880;
      }
    </style>
  </defs>
  <title>GTLT-001</title>
  <path class="cls-1" d="M683.23709,642.90527v-85.211a35.91837,35.91837,0,0,1,35.91838-35.91837h20.05708a35.91838,35.91838,0,0,0,35.91838-35.91838v-5.459a35.91838,35.91838,0,0,0-35.91838-35.91838H522.58777a35.91838,35.91838,0,0,0-35.91838,35.91838v5.459A35.91838,35.91838,0,0,1,450.751,521.77592H379.90428c-29.15719,0-46.16494-32.90672-29.30134-56.69244l71.97068-101.513c20.567-29.00935,66.26806-13.6953,65.20362,21.84922v.00016a35.91838,35.91838,0,0,0,35.90229,36.99354h215.533A35.91838,35.91838,0,0,0,775.13093,386.495v-34.5735a35.91838,35.91838,0,0,0-35.91838-35.91838H636.69033A35.91838,35.91838,0,0,1,600.772,280.08476V86.42883c0-34.88252-44.70932-49.29137-65.07758-20.97311L191.69186,543.727c-17.09051,23.76115-.10987,56.89149,29.15919,56.89149h321.7938a35.91837,35.91837,0,0,1,35.91838,35.91837v6.36837a35.91838,35.91838,0,0,0,35.91838,35.91838h32.8371A35.91838,35.91838,0,0,0,683.23709,642.90527Z"/>
  <rect class="cls-2" x="184.86907" y="625.78532" width="367.07487" height="53.03833"/>
  <rect class="cls-2" x="184.86907" y="700.51182" width="590.26186" height="53.03833"/>
  <rect class="cls-2" x="184.86907" y="775.23833" width="590.26186" height="53.03833"/>
  <rect class="cls-2" x="710.57389" y="625.78532" width="64.55704" height="53.03833"/>
  <rect class="cls-2" x="184.86907" y="849.96483" width="65.54687" height="53.03833"/>
  <rect class="cls-2" x="274.01379" y="849.96483" width="410.52463" height="53.03833"/>
  <rect class="cls-2" x="710.57389" y="849.96483" width="64.55704" height="53.03833"/>
</svg>
