<?xml version="1.0" encoding="UTF-8" standalone="no"?>
<!-- Created with Inkscape (http://www.inkscape.org/) -->

<svg
   xmlns:dc="http://purl.org/dc/elements/1.1/"
   xmlns:cc="http://creativecommons.org/ns#"
   xmlns:rdf="http://www.w3.org/1999/02/22-rdf-syntax-ns#"
   xmlns:svg="http://www.w3.org/2000/svg"
   xmlns="http://www.w3.org/2000/svg"
   xmlns:sodipodi="http://sodipodi.sourceforge.net/DTD/sodipodi-0.dtd"
   xmlns:inkscape="http://www.inkscape.org/namespaces/inkscape"
   width="300"
   height="300"
   viewBox="0 0 79.374998 79.375002"
   version="1.1"
   id="svg8"
   inkscape:version="0.92.4 5da689c313, 2019-01-14"
   sodipodi:docname="tommy_20190810.svg">
  <defs
     id="defs2">
    <inkscape:path-effect
       only_selected="false"
       apply_with_weight="true"
       apply_no_weight="true"
       helper_size="0"
       steps="2"
       weight="33.333333"
       is_visible="true"
       id="path-effect5085"
       effect="bspline" />
    <inkscape:path-effect
       effect="bspline"
       id="path-effect5081"
       is_visible="true"
       weight="33.333333"
       steps="2"
       helper_size="0"
       apply_no_weight="true"
       apply_with_weight="true"
       only_selected="false" />
    <inkscape:path-effect
       only_selected="false"
       apply_with_weight="true"
       apply_no_weight="true"
       helper_size="0"
       steps="2"
       weight="33.333333"
       is_visible="true"
       id="path-effect5077"
       effect="bspline" />
    <inkscape:path-effect
       effect="bspline"
       id="path-effect5069"
       is_visible="true"
       weight="33.333333"
       steps="2"
       helper_size="0"
       apply_no_weight="true"
       apply_with_weight="true"
       only_selected="false" />
    <inkscape:path-effect
       only_selected="false"
       apply_with_weight="true"
       apply_no_weight="true"
       helper_size="0"
       steps="2"
       weight="33.333333"
       is_visible="true"
       id="path-effect5065"
       effect="bspline" />
    <inkscape:path-effect
       only_selected="false"
       apply_with_weight="true"
       apply_no_weight="true"
       helper_size="0"
       steps="2"
       weight="33.333333"
       is_visible="true"
       id="path-effect5054"
       effect="bspline" />
    <inkscape:path-effect
       only_selected="false"
       apply_with_weight="true"
       apply_no_weight="true"
       helper_size="0"
       steps="2"
       weight="33.333333"
       is_visible="true"
       id="path-effect5050"
       effect="bspline" />
    <inkscape:path-effect
       effect="bspline"
       id="path-effect5046"
       is_visible="true"
       weight="33.333333"
       steps="2"
       helper_size="0"
       apply_no_weight="true"
       apply_with_weight="true"
       only_selected="false" />
    <inkscape:path-effect
       effect="bspline"
       id="path-effect12"
       is_visible="true"
       weight="33.333333"
       steps="2"
       helper_size="0"
       apply_no_weight="true"
       apply_with_weight="true"
       only_selected="false" />
  </defs>
  <sodipodi:namedview
     id="base"
     pagecolor="#ffffff"
     bordercolor="#666666"
     borderopacity="1.0"
     inkscape:pageopacity="0.0"
     inkscape:pageshadow="2"
     inkscape:zoom="1.4401408"
     inkscape:cx="182.18364"
     inkscape:cy="174.99579"
     inkscape:document-units="px"
     inkscape:current-layer="layer3"
     showgrid="false"
     units="px"
     inkscape:showpageshadow="false"
     inkscape:window-width="1386"
     inkscape:window-height="833"
     inkscape:window-x="54"
     inkscape:window-y="30"
     inkscape:window-maximized="1" />
  <metadata
     id="metadata5">
    <rdf:RDF>
      <cc:Work
         rdf:about="">
        <dc:format>image/svg+xml</dc:format>
        <dc:type
           rdf:resource="http://purl.org/dc/dcmitype/StillImage" />
        <dc:title></dc:title>
      </cc:Work>
    </rdf:RDF>
  </metadata>
  <g
     inkscape:groupmode="layer"
     id="layer3"
     inkscape:label="Layer 3">
    <rect
       style="opacity:1;vector-effect:none;fill:#ffffff;fill-opacity:1;stroke:none;stroke-width:0.17197916;stroke-linecap:round;stroke-linejoin:round;stroke-miterlimit:4;stroke-dasharray:none;stroke-dashoffset:0;stroke-opacity:1"
       id="rect5088"
       width="59.15799"
       height="75.876556"
       x="9.7371845"
       y="2.7635677"
       rx="6.2464957"
       ry="6.2464957" />
  </g>
  <g
     inkscape:label="Layer 1"
     inkscape:groupmode="layer"
     id="layer1"
     transform="translate(0,-217.62499)">
    <path
       inkscape:connector-curvature="0"
       id="path5026"
       d="m 60.168694,255.28559 a 3.5854438,4.1883825 0 0 1 3.585119,4.18852 3.5854438,4.1883825 0 0 1 -2.442625,3.96529 2.6419061,3.3507057 0 0 1 0.178663,1.20069 2.6419061,3.3507057 0 0 1 -2.642299,3.34994 2.6419061,3.3507057 0 0 1 -2.642299,-3.34994 2.6419061,3.3507057 0 0 1 1.074937,-2.6924 3.5854438,4.1883825 0 0 1 -0.696606,-2.47358 3.5854438,4.1883825 0 0 1 3.585119,-4.18852 z"
       style="opacity:1;vector-effect:none;fill:#ffbc92;fill-opacity:1;stroke:none;stroke-width:4.62812614;stroke-linecap:round;stroke-linejoin:round;stroke-miterlimit:4;stroke-dasharray:none;stroke-dashoffset:0;stroke-opacity:1" />
    <path
       style="opacity:1;vector-effect:none;fill:#ffbc92;fill-opacity:1;stroke:none;stroke-width:4.62812614;stroke-linecap:round;stroke-linejoin:round;stroke-miterlimit:4;stroke-dasharray:none;stroke-dashoffset:0;stroke-opacity:1"
       d="m 16.679252,255.28559 a 3.5854438,4.1883825 0 0 0 -3.585119,4.18852 3.5854438,4.1883825 0 0 0 2.442625,3.96529 2.6419061,3.3507057 0 0 0 -0.178663,1.20069 2.6419061,3.3507057 0 0 0 2.642299,3.34994 2.6419061,3.3507057 0 0 0 2.642299,-3.34994 2.6419061,3.3507057 0 0 0 -1.074937,-2.6924 3.5854438,4.1883825 0 0 0 0.696606,-2.47358 3.5854438,4.1883825 0 0 0 -3.585119,-4.18852 z"
       id="path4995"
       inkscape:connector-curvature="0" />
    <path
       style="fill:#ffcc95;fill-opacity:1;stroke:none;stroke-width:0.26458332px;stroke-linecap:butt;stroke-linejoin:miter;stroke-opacity:1"
       d="m 22.40947,260.2352 c 0.02165,3.07455 0.108246,6.14881 0.933867,8.70774 0.825622,2.55893 2.576704,4.84517 3.550868,5.81756 0.974163,0.97238 1.635667,1.14147 2.526031,1.34441 0.890363,0.20294 1.75187,0.38345 2.775636,0.40616 1.023766,0.0227 2.016565,-0.12967 2.900485,-0.43586 0.883919,-0.3062 1.555094,-0.73544 2.486442,-1.40067 0.931348,-0.66523 2.141151,-1.58088 2.956477,-3.96079 0.815327,-2.37991 1.248468,-6.23486 1.313398,-8.91956 0.06493,-2.6847 -0.238217,-4.20043 -0.303151,-5.95412 -0.06493,-1.7537 0.108303,-3.74592 -0.432919,-5.45616 -0.541221,-1.71024 -1.797198,-3.13946 -4.330279,-3.85396 -2.533081,-0.7145 -6.343822,-0.7145 -8.942085,0.15148 -2.598264,0.86598 -3.983875,2.598 -4.698497,5.0016 -0.714623,2.40361 -0.757919,5.47763 -0.736273,8.55217 z"
       id="path10"
       inkscape:connector-curvature="0"
       inkscape:original-d="m 22.344517,260.23546 c 0.08687,3.07428 0.17347,6.14854 0.25982,9.22361 1.564761,2.04269 3.315846,4.32893 4.693568,6.128 0.570502,0.14566 1.232005,0.31475 1.942947,0.49663 1.069778,0.224 1.931283,0.40452 2.922074,0.61227 1.056697,-0.16229 2.049496,-0.31467 3.115667,-0.47821 0.701663,-0.44878 1.372837,-0.87802 2.04909,-1.31046 1.186453,-0.898 2.396256,-1.81365 3.59396,-2.72012 0.433192,-3.85331 0.866333,-7.70826 1.299102,-11.56199 -0.302837,-1.51576 -0.605983,-3.03149 -0.909371,-4.54684 0.173456,-1.99196 0.346692,-3.98418 0.519639,-5.97586 -1.25535,-1.42907 -2.511327,-2.85829 -3.767388,-4.28704 -3.810381,-2.6e-4 -7.621122,-2.6e-4 -11.43208,0 -1.385537,1.73199 -2.771147,3.46401 -4.157118,5.19641 -0.04305,3.07478 -0.08634,6.1488 -0.12991,9.2236 z"
       sodipodi:nodetypes="ccccccccccccccc"
       transform="matrix(2.0676249,0,0,2.1196656,-27.860741,-291.85217)"
       inkscape:path-effect="#path-effect12" />
    <path
       style="opacity:0.8;vector-effect:none;fill:#b43910;fill-opacity:1;stroke:none;stroke-width:3.82941365;stroke-linecap:round;stroke-linejoin:round;stroke-miterlimit:4;stroke-dasharray:none;stroke-dashoffset:0;stroke-opacity:1"
       inkscape:transform-center-x="2.6189016"
       inkscape:transform-center-y="3.9100202"
       d="m 32.018655,279.38413 0.01985,15.01086 -11.17424,-9.24117 -3.549874,-15.1963 -1.028987,-12.0324 5.281036,-1.24621 -1.064167,8.92812 4.284009,12.69698 z"
       id="path14"
       inkscape:connector-curvature="0"
       sodipodi:nodetypes="ccccccccc" />
    <path
       sodipodi:nodetypes="ccccccccc"
       inkscape:connector-curvature="0"
       id="path17"
       d="m 45.314606,279.38413 -0.01985,15.01086 11.17424,-9.24117 3.549875,-15.1963 1.028987,-12.0324 -5.281037,-1.24621 1.064167,8.92812 -4.3705,14.8952 z"
       inkscape:transform-center-y="3.9100202"
       inkscape:transform-center-x="-2.6189019"
       style="opacity:0.8;vector-effect:none;fill:#b43910;fill-opacity:1;stroke:none;stroke-width:3.82941365;stroke-linecap:round;stroke-linejoin:round;stroke-miterlimit:4;stroke-dasharray:none;stroke-dashoffset:0;stroke-opacity:1" />
    <path
       style="opacity:0.8;vector-effect:none;fill:#b43910;fill-opacity:1;stroke:none;stroke-width:3.82941365;stroke-linecap:round;stroke-linejoin:round;stroke-miterlimit:4;stroke-dasharray:none;stroke-dashoffset:0;stroke-opacity:1"
       d="m 31.531493,278.76706 3.158044,0.45903 2.644049,0.68872 h 2.611574 l 2.611571,1.1625 2.611572,0.53722 -5.499012,3.47065 v 7.83032 h 5.499008 v 1.61445 h -13.05786 v -1.61445 h 5.033211 v -7.83032 l -1.904479,-3.47686 z"
       id="rect25"
       inkscape:connector-curvature="0"
       sodipodi:nodetypes="cccccccccccccccc" />
    <path
       style="opacity:0.6;vector-effect:none;fill:#5a8fb9;fill-opacity:1;stroke:none;stroke-width:3.82941365;stroke-linecap:round;stroke-linejoin:round;stroke-miterlimit:4;stroke-dasharray:none;stroke-dashoffset:0;stroke-opacity:1"
       d="m 40.157331,287.62307 4.615096,-4.13102 v 9.09656 h -4.615096 z"
       id="rect19"
       inkscape:connector-curvature="0"
       sodipodi:nodetypes="ccccc" />
    <path
       style="opacity:0.6;vector-effect:none;fill:#5a8fb9;fill-opacity:1;stroke:none;stroke-width:3.82941365;stroke-linecap:round;stroke-linejoin:round;stroke-miterlimit:4;stroke-dasharray:none;stroke-dashoffset:0;stroke-opacity:1"
       d="m 32.418364,285.6051 4.345424,2.27919 v 4.75186 h -4.345424 z"
       id="rect23"
       inkscape:connector-curvature="0"
       sodipodi:nodetypes="ccccc" />
    <path
       style="opacity:0.8;vector-effect:none;fill:#b43910;fill-opacity:1;stroke:none;stroke-width:3.82941365;stroke-linecap:round;stroke-linejoin:round;stroke-miterlimit:4;stroke-dasharray:none;stroke-dashoffset:0;stroke-opacity:1"
       d="m 37.017783,273.50408 4.089425,0.52796 4.329182,2.13004 -0.476531,3.69102 -2.595284,-0.81324 -2.441289,-1.48157 -2.622706,-0.3386 -2.80412,0.80437 -2.650132,0.13604 0.435911,-3.69627 z"
       id="rect30"
       inkscape:connector-curvature="0"
       sodipodi:nodetypes="ccccccccccc" />
    <path
       style="opacity:0.9;vector-effect:none;fill:#5a8fb9;fill-opacity:1;stroke:none;stroke-width:4.48292446;stroke-linecap:round;stroke-linejoin:round;stroke-miterlimit:4;stroke-dasharray:none;stroke-dashoffset:0;stroke-opacity:1"
       d="m 17.526155,233.0981 4.222853,-4.03371 -1.462553,8.35841 6.868046,4.7616 -2.663123,5.37889 -2.312708,0.78538 -0.770905,7.86016 -5.331141,0.8543 -0.109894,-10.50795 0.978927,-6.17071 z"
       id="rect33"
       inkscape:connector-curvature="0"
       sodipodi:nodetypes="ccccccccccc" />
    <path
       style="opacity:0.9;vector-effect:none;fill:#5a8fb9;fill-opacity:1;stroke:none;stroke-width:4.48292446;stroke-linecap:round;stroke-linejoin:round;stroke-miterlimit:4;stroke-dasharray:none;stroke-dashoffset:0;stroke-opacity:1"
       d="m 24.921539,224.00963 4.496199,-0.44715 -4.092388,2.02197 -1.301285,2.56491 1.993193,-1.8956 5.241046,-2.26218 9.056253,-1.36251 8.575421,0.5805 4.880929,2.6518 7.037629,6.6825 -0.587721,6.64599 -1.673622,-2.24131 -0.343013,-0.22886 -0.320904,4.15493 -4.861767,-6.66536 -7.763918,-0.14619 -0.923705,0.13937 -7.933512,1.27007 -7.319737,-1.75435 -1.706206,7.66884 -6.576131,-4.21841 1.240934,-8.21385 z"
       id="rect35"
       inkscape:connector-curvature="0"
       sodipodi:nodetypes="ccccccccccccccccccccccc" />
    <path
       style="opacity:0.9;vector-effect:none;fill:#5a8fb9;fill-opacity:1;stroke:none;stroke-width:3.82941365;stroke-linecap:round;stroke-linejoin:round;stroke-miterlimit:4;stroke-dasharray:none;stroke-dashoffset:0;stroke-opacity:1"
       d="m 56.526548,241.4933 1.759632,-0.48441 0.08665,-3.70801 1.895106,2.48303 1.803683,4.11631 -0.655928,11.48098 -0.143161,2.11123 -4.706649,-1.96383 0.90882,-5.54586 -0.677968,-2.87956 0.68828,-3.12797 z"
       id="rect37"
       inkscape:connector-curvature="0"
       sodipodi:nodetypes="cccccccccccc" />
    <path
       style="opacity:0.4;vector-effect:none;fill:#5a8fb9;fill-opacity:1;stroke:none;stroke-width:2.03814149;stroke-linecap:round;stroke-linejoin:round;stroke-miterlimit:4;stroke-dasharray:none;stroke-dashoffset:0;stroke-opacity:1"
       d="m 41.691552,274.54042 0.379797,0.049 -0.462633,3.58343 -1.148998,-0.72724 z"
       id="rect4899"
       inkscape:connector-curvature="0"
       sodipodi:nodetypes="ccccc" />
    <path
       style="opacity:0.4;vector-effect:none;fill:#5a8fb9;fill-opacity:1;stroke:none;stroke-width:2.03814149;stroke-linecap:round;stroke-linejoin:round;stroke-miterlimit:4;stroke-dasharray:none;stroke-dashoffset:0;stroke-opacity:1"
       d="m 42.167224,274.70839 0.469404,0.43111 -0.487601,3.41811 -0.364346,-0.34807 z"
       id="rect4901"
       inkscape:connector-curvature="0"
       sodipodi:nodetypes="ccccc" />
    <path
       style="opacity:0.4;vector-effect:none;fill:#5a8fb9;fill-opacity:1;stroke:none;stroke-width:2.03814149;stroke-linecap:round;stroke-linejoin:round;stroke-miterlimit:4;stroke-dasharray:none;stroke-dashoffset:0;stroke-opacity:1"
       d="m 42.782903,275.19977 0.379798,0.049 0.148632,3.87076 -0.991062,-0.33636 z"
       id="rect4903"
       inkscape:connector-curvature="0"
       sodipodi:nodetypes="ccccc" />
    <g
       id="g5036"
       transform="matrix(2.0676249,0,0,2.0676249,-27.860741,-279.04953)"
       style="fill:#0055d4">
      <circle
         r="1.4413623"
         cy="258.44885"
         cx="26.823185"
         id="path5032"
         style="opacity:1;vector-effect:none;fill:#0055d4;fill-opacity:1;stroke:#ffffff;stroke-width:1.32094109;stroke-linecap:round;stroke-linejoin:round;stroke-miterlimit:4;stroke-dasharray:none;stroke-dashoffset:0;stroke-opacity:1" />
      <path
         d="m 26.775627,258.45609 c 0.03327,0.0333 -0.02843,0.0612 -0.05529,0.0553 -0.07279,-0.0162 -0.08449,-0.1094 -0.05529,-0.16588 0.05224,-0.10102 0.187884,-0.11285 0.276458,-0.0553 0.129986,0.0845 0.142055,0.26743 0.05529,0.38704 -0.115642,0.15942 -0.34736,0.17162 -0.497625,0.0553 -0.189093,-0.14638 -0.201358,-0.42746 -0.05529,-0.6082 0.176906,-0.21891 0.507676,-0.23121 0.718792,-0.0553 0.248793,0.20732 0.261127,0.58795 0.05529,0.82938 -0.237646,0.27874 -0.66826,0.29109 -0.939958,0.0553 -0.308719,-0.26793 -0.321085,-0.7486 -0.05529,-1.05054 0.298181,-0.33873 0.828969,-0.3511 1.161124,-0.0553 0.368756,0.3284 0.381138,0.90935 0.05529,1.2717"
         sodipodi:t0="0"
         sodipodi:argument="-18.064157"
         sodipodi:radius="0.93833011"
         sodipodi:revolution="3"
         sodipodi:expansion="1"
         sodipodi:cy="258.45609"
         sodipodi:cx="26.775627"
         id="path5028"
         style="fill:#0055d4;fill-rule:evenodd;stroke:#00ced4;stroke-width:0.10583333;stroke-linecap:round;stroke-miterlimit:4;stroke-dasharray:none;stroke-opacity:1"
         sodipodi:type="spiral" />
    </g>
    <g
       id="g5042"
       transform="matrix(2.0676249,0,0,2.0676249,-5.7267581,-279.04953)"
       style="fill:#0055d4">
      <circle
         style="opacity:1;vector-effect:none;fill:#0055d4;fill-opacity:1;stroke:#ffffff;stroke-width:1.32094109;stroke-linecap:round;stroke-linejoin:round;stroke-miterlimit:4;stroke-dasharray:none;stroke-dashoffset:0;stroke-opacity:1"
         id="circle5038"
         cx="26.823185"
         cy="258.44885"
         r="1.4413623" />
      <path
         sodipodi:type="spiral"
         style="fill:#0055d4;fill-rule:evenodd;stroke:#00ced4;stroke-width:0.10583333;stroke-linecap:round;stroke-miterlimit:4;stroke-dasharray:none;stroke-opacity:1"
         id="path5040"
         sodipodi:cx="26.775627"
         sodipodi:cy="258.45609"
         sodipodi:expansion="1"
         sodipodi:revolution="3"
         sodipodi:radius="0.93833011"
         sodipodi:argument="-18.064157"
         sodipodi:t0="0"
         d="m 26.775627,258.45609 c 0.03327,0.0333 -0.02843,0.0612 -0.05529,0.0553 -0.07279,-0.0162 -0.08449,-0.1094 -0.05529,-0.16588 0.05224,-0.10102 0.187884,-0.11285 0.276458,-0.0553 0.129986,0.0845 0.142055,0.26743 0.05529,0.38704 -0.115642,0.15942 -0.34736,0.17162 -0.497625,0.0553 -0.189093,-0.14638 -0.201358,-0.42746 -0.05529,-0.6082 0.176906,-0.21891 0.507676,-0.23121 0.718792,-0.0553 0.248793,0.20732 0.261127,0.58795 0.05529,0.82938 -0.237646,0.27874 -0.66826,0.29109 -0.939958,0.0553 -0.308719,-0.26793 -0.321085,-0.7486 -0.05529,-1.05054 0.298181,-0.33873 0.828969,-0.3511 1.161124,-0.0553 0.368756,0.3284 0.381138,0.90935 0.05529,1.2717" />
    </g>
    <path
       style="fill:none;stroke:#ffbc92;stroke-width:0.17197917;stroke-linecap:round;stroke-linejoin:miter;stroke-miterlimit:4;stroke-dasharray:none;stroke-opacity:1"
       d="m 27.735895,267.76739 c 0.249547,-0.84222 0.498998,-1.68412 0.896571,-2.21407 0.397573,-0.52995 0.943456,-0.7483 1.488809,-0.96644"
       id="path5044"
       inkscape:connector-curvature="0"
       inkscape:path-effect="#path-effect5046"
       inkscape:original-d="m 27.735895,267.76739 c 0.249716,-0.84217 0.499168,-1.68407 0.748355,-2.5257 0.545735,-0.21845 1.091615,-0.43681 1.637025,-0.65481"
       transform="matrix(2.9264053,0,0,1.9606617,-53.479724,-250.7353)" />
    <path
       transform="matrix(-2.6342673,0,0,2.7818075,123.74637,-466.88655)"
       inkscape:original-d="m 27.735895,267.76739 c 0.249716,-0.84217 0.499168,-1.68407 0.748355,-2.5257 0.545735,-0.21845 1.091615,-0.43681 1.637025,-0.65481"
       inkscape:path-effect="#path-effect5050"
       inkscape:connector-curvature="0"
       id="path5048"
       d="m 27.735895,267.76739 c 0.249547,-0.84222 0.498998,-1.68412 0.896571,-2.21407 0.397573,-0.52995 0.943456,-0.7483 1.488809,-0.96644"
       style="fill:none;stroke:#ffbc92;stroke-width:0.17197917;stroke-linecap:round;stroke-linejoin:miter;stroke-miterlimit:4;stroke-dasharray:none;stroke-opacity:1" />
    <path
       sodipodi:nodetypes="ccccc"
       inkscape:connector-curvature="0"
       id="path5056"
       d="m 18.747995,268.22578 3.023133,4.32353 3.295237,14.89357 -3.889164,-4.72353 z"
       style="opacity:0.4;vector-effect:none;fill:#5a8fb9;fill-opacity:1;stroke:none;stroke-width:3.99866104;stroke-linecap:round;stroke-linejoin:round;stroke-miterlimit:4;stroke-dasharray:none;stroke-dashoffset:0;stroke-opacity:1" />
    <path
       style="opacity:0.4;vector-effect:none;fill:#5a8fb9;fill-opacity:1;stroke:none;stroke-width:2.86837125;stroke-linecap:round;stroke-linejoin:round;stroke-miterlimit:4;stroke-dasharray:none;stroke-dashoffset:0;stroke-opacity:1"
       d="m 57.664057,274.03791 -2.181236,3.08343 -3.113615,10.6602 3.542142,-3.40718 z"
       id="path5058"
       inkscape:connector-curvature="0"
       sodipodi:nodetypes="ccccc" />
    <path
       transform="matrix(-0.73519156,0.73519156,-0.57573726,-0.57573726,211.82498,381.03612)"
       inkscape:original-d="m 27.735895,267.76739 c 0.249716,-0.84217 0.499168,-1.68407 0.748355,-2.5257 0.545735,-0.21845 1.091615,-0.43681 1.637025,-0.65481"
       inkscape:path-effect="#path-effect5065"
       inkscape:connector-curvature="0"
       id="path5063"
       d="m 27.735895,267.76739 c 0.249547,-0.84222 0.498998,-1.68412 0.896571,-2.21407 0.397573,-0.52995 0.943456,-0.7483 1.488809,-0.96644"
       style="fill:none;stroke:#ffbc92;stroke-width:0.17197917;stroke-linecap:round;stroke-linejoin:miter;stroke-miterlimit:4;stroke-dasharray:none;stroke-opacity:1" />
    <path
       style="fill:none;stroke:#ffbc92;stroke-width:0.17197917;stroke-linecap:round;stroke-linejoin:miter;stroke-miterlimit:4;stroke-dasharray:none;stroke-opacity:1"
       d="m 27.735895,267.76739 c 0.249547,-0.84222 0.498998,-1.68412 0.896571,-2.21407 0.397573,-0.52995 0.943456,-0.7483 1.488809,-0.96644"
       id="path5067"
       inkscape:connector-curvature="0"
       inkscape:path-effect="#path-effect5069"
       inkscape:original-d="m 27.735895,267.76739 c 0.249716,-0.84217 0.499168,-1.68407 0.748355,-2.5257 0.545735,-0.21845 1.091615,-0.43681 1.637025,-0.65481"
       transform="matrix(0.63643271,-0.63643271,0.49839802,0.49839802,-111.18199,135.91753)" />
    <path
       style="opacity:0.4;vector-effect:none;fill:#ff8734;fill-opacity:1;stroke:none;stroke-width:3.71663165;stroke-linecap:round;stroke-linejoin:round;stroke-miterlimit:4;stroke-dasharray:none;stroke-dashoffset:0;stroke-opacity:1"
       d="m 19.976056,251.96326 3.930211,-2.47146 12.709179,-1.22651 -4.362143,3.30032 z"
       id="path5071"
       inkscape:connector-curvature="0"
       sodipodi:nodetypes="ccccc" />
    <path
       sodipodi:nodetypes="ccccc"
       inkscape:connector-curvature="0"
       id="path5073"
       d="m 39.904238,246.80973 3.610124,3.22385 12.42906,3.50123 -3.944694,-4.14843 z"
       style="opacity:0.4;vector-effect:none;fill:#ff8734;fill-opacity:1;stroke:none;stroke-width:3.77486658;stroke-linecap:round;stroke-linejoin:round;stroke-miterlimit:4;stroke-dasharray:none;stroke-dashoffset:0;stroke-opacity:1" />
    <path
       transform="matrix(1.5025055,0,0,1.0066634,-13.827391,1.8416716)"
       inkscape:original-d="m 27.735895,267.76739 c 0.249716,-0.84217 0.499168,-1.68407 0.748355,-2.5257 0.545735,-0.21845 1.091615,-0.43681 1.637025,-0.65481"
       inkscape:path-effect="#path-effect5077"
       inkscape:connector-curvature="0"
       id="path5075"
       d="m 27.735895,267.76739 c 0.249547,-0.84222 0.498998,-1.68412 0.896571,-2.21407 0.397573,-0.52995 0.943456,-0.7483 1.488809,-0.96644"
       style="fill:none;stroke:#ffbc92;stroke-width:0.17197917;stroke-linecap:round;stroke-linejoin:miter;stroke-miterlimit:4;stroke-dasharray:none;stroke-opacity:1" />
    <path
       style="fill:#ffbc92;stroke:none;stroke-width:0.17197917;stroke-linecap:round;stroke-linejoin:miter;stroke-miterlimit:4;stroke-dasharray:none;stroke-opacity:1"
       d="m 27.735895,267.76739 c 0.249547,-0.84222 0.498998,-1.68412 0.896571,-2.21407 0.397573,-0.52995 0.943456,-0.7483 1.488809,-0.96644"
       id="path5079"
       inkscape:connector-curvature="0"
       inkscape:path-effect="#path-effect5081"
       inkscape:original-d="m 27.735895,267.76739 c 0.249716,-0.84217 0.499168,-1.68407 0.748355,-2.5257 0.545735,-0.21845 1.091615,-0.43681 1.637025,-0.65481"
       transform="matrix(2.4009415,2.0675686,-1.3852499,1.6086064,326.8375,-228.12937)" />
    <path
       transform="matrix(2.4009415,2.0675686,-1.3852499,1.6086064,348.88396,-228.12937)"
       inkscape:original-d="m 27.735895,267.76739 c 0.249716,-0.84217 0.499168,-1.68407 0.748355,-2.5257 0.545735,-0.21845 1.091615,-0.43681 1.637025,-0.65481"
       inkscape:path-effect="#path-effect5085"
       inkscape:connector-curvature="0"
       id="path5083"
       d="m 27.735895,267.76739 c 0.249547,-0.84222 0.498998,-1.68412 0.896571,-2.21407 0.397573,-0.52995 0.943456,-0.7483 1.488809,-0.96644"
       style="fill:#ffbc92;stroke:none;stroke-width:0.17197917;stroke-linecap:round;stroke-linejoin:miter;stroke-miterlimit:4;stroke-dasharray:none;stroke-opacity:1" />
  </g>
  <g
     inkscape:groupmode="layer"
     id="layer2"
     inkscape:label="Layer 2">
    <circle
       style="opacity:0.68999999;vector-effect:none;fill:#000000;fill-opacity:1;stroke:none;stroke-width:3.82941365;stroke-linecap:round;stroke-linejoin:round;stroke-miterlimit:4;stroke-dasharray:none;stroke-dashoffset:0;stroke-opacity:1"
       id="path4993"
       cx="39.470325"
       cy="17.50556"
       r="0.1899325" />
    <g
       id="g4945"
       transform="matrix(2.8572867,0,0,2.8572867,-53.828861,-85.918036)">
      <ellipse
         ry="1.0776397"
         rx="1.575012"
         cy="48.783913"
         cx="32.426918"
         id="path4907"
         style="opacity:1;vector-effect:none;fill:#ffbc92;fill-opacity:1;stroke:none;stroke-width:2.89843607;stroke-linecap:round;stroke-linejoin:round;stroke-miterlimit:4;stroke-dasharray:none;stroke-dashoffset:0;stroke-opacity:1" />
      <ellipse
         transform="rotate(120)"
         style="opacity:1;vector-effect:none;fill:#ffbc92;fill-opacity:1;stroke:none;stroke-width:1.60763454;stroke-linecap:round;stroke-linejoin:round;stroke-miterlimit:4;stroke-dasharray:none;stroke-dashoffset:0;stroke-opacity:1"
         id="ellipse4909"
         cx="26.601357"
         cy="-51.314335"
         rx="0.87358963"
         ry="0.59771925" />
      <ellipse
         ry="0.59771925"
         rx="0.87358963"
         cy="-19.976923"
         cx="55.857605"
         id="ellipse4911"
         style="opacity:1;vector-effect:none;fill:#ffbc92;fill-opacity:1;stroke:none;stroke-width:1.60763454;stroke-linecap:round;stroke-linejoin:round;stroke-miterlimit:4;stroke-dasharray:none;stroke-dashoffset:0;stroke-opacity:1"
         transform="rotate(75)" />
      <path
         sodipodi:nodetypes="ccccccc"
         inkscape:connector-curvature="0"
         id="rect4913"
         d="m 32.118857,43.66511 0.613213,0.46893 0.360713,2.30858 0.432855,2.3807 H 31.39743 l 0.468927,-3.46285 z"
         style="opacity:1;vector-effect:none;fill:#ffbc92;fill-opacity:1;stroke:none;stroke-width:2.46759558;stroke-linecap:round;stroke-linejoin:round;stroke-miterlimit:4;stroke-dasharray:none;stroke-dashoffset:0;stroke-opacity:1" />
    </g>
    <g
       id="g4978"
       style="fill:#453aac;fill-opacity:1"
       transform="matrix(2.2406533,0,0,2.2406533,-33.426365,-53.762408)">
      <path
         inkscape:connector-curvature="0"
         id="path4949"
         d="m 27.021231,36.650678 a 3.9139058,4.1412881 0 0 0 -3.913666,4.141281 3.9139058,4.1412881 0 0 0 3.913666,4.141282 3.9139058,4.1412881 0 0 0 3.91408,-4.141282 3.9139058,4.1412881 0 0 0 -3.91408,-4.141281 z m 0,0.622948 a 3.3250258,3.5181966 0 0 1 3.325005,3.518333 3.3250258,3.5181966 0 0 1 -3.325005,3.517922 3.3250258,3.5181966 0 0 1 -3.325005,-3.517922 3.3250258,3.5181966 0 0 1 3.325005,-3.518333 z"
         style="opacity:0.6;vector-effect:none;fill:#453aac;fill-opacity:1;stroke:none;stroke-width:1.4805342;stroke-linecap:round;stroke-linejoin:round;stroke-miterlimit:4;stroke-dasharray:none;stroke-dashoffset:0;stroke-opacity:1" />
      <path
         style="opacity:0.6;vector-effect:none;fill:#453aac;fill-opacity:1;stroke:none;stroke-width:1.4805342;stroke-linecap:round;stroke-linejoin:round;stroke-miterlimit:4;stroke-dasharray:none;stroke-dashoffset:0;stroke-opacity:1"
         d="m 27.160668,36.381331 a 3.9139058,4.1412881 0 0 0 -3.913666,4.141281 3.9139058,4.1412881 0 0 0 3.913666,4.141282 3.9139058,4.1412881 0 0 0 3.91408,-4.141282 3.9139058,4.1412881 0 0 0 -3.91408,-4.141281 z m 0,0.622948 a 3.3250258,3.5181966 0 0 1 3.325005,3.518333 3.3250258,3.5181966 0 0 1 -3.325005,3.517922 3.3250258,3.5181966 0 0 1 -3.325005,-3.517922 3.3250258,3.5181966 0 0 1 3.325005,-3.518333 z"
         id="path4968"
         inkscape:connector-curvature="0" />
      <path
         style="opacity:0.6;vector-effect:none;fill:#453aac;fill-opacity:1;stroke:none;stroke-width:1.4805342;stroke-linecap:round;stroke-linejoin:round;stroke-miterlimit:4;stroke-dasharray:none;stroke-dashoffset:0;stroke-opacity:1"
         d="m 27.295841,36.880329 a 3.9139058,4.1412881 0 0 0 -3.913666,4.141281 3.9139058,4.1412881 0 0 0 3.913666,4.141282 3.9139058,4.1412881 0 0 0 3.91408,-4.141282 3.9139058,4.1412881 0 0 0 -3.91408,-4.141281 z m 0,0.622948 a 3.3250258,3.5181966 0 0 1 3.325005,3.518333 3.3250258,3.5181966 0 0 1 -3.325005,3.517922 3.3250258,3.5181966 0 0 1 -3.325005,-3.517922 3.3250258,3.5181966 0 0 1 3.325005,-3.518333 z"
         id="path4970"
         inkscape:connector-curvature="0" />
      <path
         inkscape:connector-curvature="0"
         id="path4972"
         d="m 27.435278,36.610982 a 3.9139058,4.1412881 0 0 0 -3.913666,4.141281 3.9139058,4.1412881 0 0 0 3.913666,4.141282 3.9139058,4.1412881 0 0 0 3.91408,-4.141282 3.9139058,4.1412881 0 0 0 -3.91408,-4.141281 z m 0,0.622948 a 3.3250258,3.5181966 0 0 1 3.325005,3.518333 3.3250258,3.5181966 0 0 1 -3.325005,3.517922 3.3250258,3.5181966 0 0 1 -3.325005,-3.517922 3.3250258,3.5181966 0 0 1 3.325005,-3.518333 z"
         style="opacity:0.6;vector-effect:none;fill:#453aac;fill-opacity:1;stroke:none;stroke-width:1.4805342;stroke-linecap:round;stroke-linejoin:round;stroke-miterlimit:4;stroke-dasharray:none;stroke-dashoffset:0;stroke-opacity:1" />
    </g>
    <g
       style="fill:#453aac;fill-opacity:1"
       id="g4988"
       transform="matrix(2.2406533,0,0,2.2406533,-11.29997,-53.762408)">
      <path
         style="opacity:0.6;vector-effect:none;fill:#453aac;fill-opacity:1;stroke:none;stroke-width:1.4805342;stroke-linecap:round;stroke-linejoin:round;stroke-miterlimit:4;stroke-dasharray:none;stroke-dashoffset:0;stroke-opacity:1"
         d="m 27.021231,36.650678 a 3.9139058,4.1412881 0 0 0 -3.913666,4.141281 3.9139058,4.1412881 0 0 0 3.913666,4.141282 3.9139058,4.1412881 0 0 0 3.91408,-4.141282 3.9139058,4.1412881 0 0 0 -3.91408,-4.141281 z m 0,0.622948 a 3.3250258,3.5181966 0 0 1 3.325005,3.518333 3.3250258,3.5181966 0 0 1 -3.325005,3.517922 3.3250258,3.5181966 0 0 1 -3.325005,-3.517922 3.3250258,3.5181966 0 0 1 3.325005,-3.518333 z"
         id="path4980"
         inkscape:connector-curvature="0" />
      <path
         inkscape:connector-curvature="0"
         id="path4982"
         d="m 27.160668,36.381331 a 3.9139058,4.1412881 0 0 0 -3.913666,4.141281 3.9139058,4.1412881 0 0 0 3.913666,4.141282 3.9139058,4.1412881 0 0 0 3.91408,-4.141282 3.9139058,4.1412881 0 0 0 -3.91408,-4.141281 z m 0,0.622948 a 3.3250258,3.5181966 0 0 1 3.325005,3.518333 3.3250258,3.5181966 0 0 1 -3.325005,3.517922 3.3250258,3.5181966 0 0 1 -3.325005,-3.517922 3.3250258,3.5181966 0 0 1 3.325005,-3.518333 z"
         style="opacity:0.6;vector-effect:none;fill:#453aac;fill-opacity:1;stroke:none;stroke-width:1.4805342;stroke-linecap:round;stroke-linejoin:round;stroke-miterlimit:4;stroke-dasharray:none;stroke-dashoffset:0;stroke-opacity:1" />
      <path
         inkscape:connector-curvature="0"
         id="path4984"
         d="m 27.295841,36.880329 a 3.9139058,4.1412881 0 0 0 -3.913666,4.141281 3.9139058,4.1412881 0 0 0 3.913666,4.141282 3.9139058,4.1412881 0 0 0 3.91408,-4.141282 3.9139058,4.1412881 0 0 0 -3.91408,-4.141281 z m 0,0.622948 a 3.3250258,3.5181966 0 0 1 3.325005,3.518333 3.3250258,3.5181966 0 0 1 -3.325005,3.517922 3.3250258,3.5181966 0 0 1 -3.325005,-3.517922 3.3250258,3.5181966 0 0 1 3.325005,-3.518333 z"
         style="opacity:0.6;vector-effect:none;fill:#453aac;fill-opacity:1;stroke:none;stroke-width:1.4805342;stroke-linecap:round;stroke-linejoin:round;stroke-miterlimit:4;stroke-dasharray:none;stroke-dashoffset:0;stroke-opacity:1" />
      <path
         style="opacity:0.6;vector-effect:none;fill:#453aac;fill-opacity:1;stroke:none;stroke-width:1.4805342;stroke-linecap:round;stroke-linejoin:round;stroke-miterlimit:4;stroke-dasharray:none;stroke-dashoffset:0;stroke-opacity:1"
         d="m 27.435278,36.610982 a 3.9139058,4.1412881 0 0 0 -3.913666,4.141281 3.9139058,4.1412881 0 0 0 3.913666,4.141282 3.9139058,4.1412881 0 0 0 3.91408,-4.141282 3.9139058,4.1412881 0 0 0 -3.91408,-4.141281 z m 0,0.622948 a 3.3250258,3.5181966 0 0 1 3.325005,3.518333 3.3250258,3.5181966 0 0 1 -3.325005,3.517922 3.3250258,3.5181966 0 0 1 -3.325005,-3.517922 3.3250258,3.5181966 0 0 1 3.325005,-3.518333 z"
         id="path4986"
         inkscape:connector-curvature="0" />
    </g>
    <path
       style="opacity:0.9;vector-effect:none;fill:#453aac;fill-opacity:1;stroke:none;stroke-width:4.45051575;stroke-linecap:round;stroke-linejoin:round;stroke-miterlimit:4;stroke-dasharray:none;stroke-dashoffset:0;stroke-opacity:1"
       d="m 36.271778,36.287115 h 4.682564 v 3.121704 h -0.936514 l -0.936514,-1.595344 h -0.936509 l -0.936515,1.595344 h -0.936512 z"
       id="rect4990"
       inkscape:connector-curvature="0"
       sodipodi:nodetypes="ccccccccc" />
  </g>
</svg>
