<?xml version="1.0" encoding="UTF-8" standalone="no"?>
<!-- Created with Inkscape (http://www.inkscape.org/) -->

<svg
   xmlns:dc="http://purl.org/dc/elements/1.1/"
   xmlns:cc="http://creativecommons.org/ns#"
   xmlns:rdf="http://www.w3.org/1999/02/22-rdf-syntax-ns#"
   xmlns:svg="http://www.w3.org/2000/svg"
   xmlns="http://www.w3.org/2000/svg"
   xmlns:sodipodi="http://sodipodi.sourceforge.net/DTD/sodipodi-0.dtd"
   xmlns:inkscape="http://www.inkscape.org/namespaces/inkscape"
   width="1280"
   height="480"
   viewBox="0 0 338.66666 127"
   version="1.1"
   id="svg8"
   inkscape:version="0.92.4 5da689c313, 2019-01-14"
   sodipodi:docname="tommypkeane-com_header_20190813.svg">
  <defs
     id="defs2">
    <inkscape:perspective
       sodipodi:type="inkscape:persp3d"
       inkscape:vp_x="-38.020513 : 49.920075 : 1"
       inkscape:vp_y="0 : 631.9704 : 0"
       inkscape:vp_z="383.26194 : 49.920075 : 1"
       inkscape:persp3d-origin="172.62072 : 36.543366 : 1"
       id="perspective1803" />
    <inkscape:perspective
       sodipodi:type="inkscape:persp3d"
       inkscape:vp_x="-270.57745 : 249.59899 : 1"
       inkscape:vp_y="0 : 3962.0016 : 0"
       inkscape:vp_z="1613.6708 : 249.59899 : 1"
       inkscape:persp3d-origin="671.54671 : 165.73661 : 1"
       id="perspective1684" />
    <inkscape:perspective
       sodipodi:type="inkscape:persp3d"
       inkscape:vp_x="-47.109891 : 61.106177 : 1"
       inkscape:vp_y="0 : 900.621 : 0"
       inkscape:vp_z="381.20733 : 61.106177 : 1"
       inkscape:persp3d-origin="167.04873 : 42.043032 : 1"
       id="perspective1589" />
    <inkscape:perspective
       sodipodi:type="inkscape:persp3d"
       inkscape:vp_x="73.123309 : 5.8485791 : 1"
       inkscape:vp_y="0 : 277.35731 : 0"
       inkscape:vp_z="205.02886 : 5.8485791 : 1"
       inkscape:persp3d-origin="139.07609 : -0.022150853 : 1"
       id="perspective1589-2" />
  </defs>
  <sodipodi:namedview
     id="base"
     pagecolor="#ffffff"
     bordercolor="#666666"
     borderopacity="1.0"
     inkscape:pageopacity="0.0"
     inkscape:pageshadow="2"
     inkscape:zoom="0.45409514"
     inkscape:cx="965.91638"
     inkscape:cy="160.33175"
     inkscape:document-units="px"
     inkscape:current-layer="layer3"
     showgrid="false"
     units="px"
     inkscape:window-width="1386"
     inkscape:window-height="833"
     inkscape:window-x="54"
     inkscape:window-y="30"
     inkscape:window-maximized="1" />
  <metadata
     id="metadata5">
    <rdf:RDF>
      <cc:Work
         rdf:about="">
        <dc:format>image/svg+xml</dc:format>
        <dc:type
           rdf:resource="http://purl.org/dc/dcmitype/StillImage" />
        <dc:title></dc:title>
      </cc:Work>
    </rdf:RDF>
  </metadata>
  <g
     inkscape:label="Layer 1"
     inkscape:groupmode="layer"
     id="layer1"
     transform="translate(0,-169.99998)"
     sodipodi:insensitive="true">
    <rect
       style="opacity:1;vector-effect:none;fill:#fccb5e;fill-opacity:1;stroke:none;stroke-width:1.87775445;stroke-linecap:round;stroke-linejoin:round;stroke-miterlimit:4;stroke-dasharray:none;stroke-dashoffset:0;stroke-opacity:1"
       id="rect293"
       width="96.142662"
       height="122.33614"
       x="33.464905"
       y="171.82631"
       rx="9.6026754"
       ry="9.703476" />
    <rect
       style="opacity:1;vector-effect:none;fill:#fccb5e;fill-opacity:1;stroke:none;stroke-width:0.49449828;stroke-linecap:round;stroke-linejoin:round;stroke-miterlimit:4;stroke-dasharray:none;stroke-dashoffset:0;stroke-opacity:1"
       id="rect10"
       width="329.66556"
       height="82.416389"
       x="3.4422202"
       y="201.2964"
       rx="5.7499804"
       ry="5.7499804" />
    <rect
       ry="5.7499804"
       rx="5.7499804"
       y="198.12144"
       x="4.5005536"
       height="82.416389"
       width="329.66556"
       id="rect12"
       style="opacity:1;vector-effect:none;fill:#0b280b;fill-opacity:1;stroke:none;stroke-width:0.49449828;stroke-linecap:round;stroke-linejoin:round;stroke-miterlimit:4;stroke-dasharray:none;stroke-dashoffset:0;stroke-opacity:1" />
    <rect
       style="opacity:1;vector-effect:none;fill:#7bb880;fill-opacity:1;stroke:none;stroke-width:0.49449828;stroke-linecap:round;stroke-linejoin:round;stroke-miterlimit:4;stroke-dasharray:none;stroke-dashoffset:0;stroke-opacity:1"
       id="rect14"
       width="329.66556"
       height="82.416389"
       x="5.558887"
       y="197.06313"
       rx="5.7499804"
       ry="5.7499804" />
  </g>
  <g
     inkscape:groupmode="layer"
     id="layer2"
     inkscape:label="Layer 2"
     sodipodi:insensitive="true">
    <g
       id="g291"
       transform="matrix(1.5615138,0,0,1.5615138,21.250462,-1.6169728)">
      <g
         id="layer3-9">
        <rect
           style="opacity:1;vector-effect:none;fill:#ffffff;fill-opacity:1;stroke:none;stroke-width:0.17197916;stroke-linecap:round;stroke-linejoin:round;stroke-miterlimit:4;stroke-dasharray:none;stroke-dashoffset:0;stroke-opacity:1"
           id="rect5088"
           width="59.15799"
           height="75.876556"
           x="9.7371845"
           y="2.7635677"
           rx="6.2464957"
           ry="6.2464957" />
      </g>
      <g
         id="layer1-0"
         transform="translate(0,-217.62499)">
        <path
           id="path5026"
           d="m 60.168694,255.28559 a 3.5854438,4.1883825 0 0 1 3.585119,4.18852 3.5854438,4.1883825 0 0 1 -2.442625,3.96529 2.6419061,3.3507057 0 0 1 0.178663,1.20069 2.6419061,3.3507057 0 0 1 -2.642299,3.34994 2.6419061,3.3507057 0 0 1 -2.642299,-3.34994 2.6419061,3.3507057 0 0 1 1.074937,-2.6924 3.5854438,4.1883825 0 0 1 -0.696606,-2.47358 3.5854438,4.1883825 0 0 1 3.585119,-4.18852 z"
           style="opacity:1;vector-effect:none;fill:#ffbc92;fill-opacity:1;stroke:none;stroke-width:4.62812614;stroke-linecap:round;stroke-linejoin:round;stroke-miterlimit:4;stroke-dasharray:none;stroke-dashoffset:0;stroke-opacity:1"
           inkscape:connector-curvature="0" />
        <path
           style="opacity:1;vector-effect:none;fill:#ffbc92;fill-opacity:1;stroke:none;stroke-width:4.62812614;stroke-linecap:round;stroke-linejoin:round;stroke-miterlimit:4;stroke-dasharray:none;stroke-dashoffset:0;stroke-opacity:1"
           d="m 16.679252,255.28559 a 3.5854438,4.1883825 0 0 0 -3.585119,4.18852 3.5854438,4.1883825 0 0 0 2.442625,3.96529 2.6419061,3.3507057 0 0 0 -0.178663,1.20069 2.6419061,3.3507057 0 0 0 2.642299,3.34994 2.6419061,3.3507057 0 0 0 2.642299,-3.34994 2.6419061,3.3507057 0 0 0 -1.074937,-2.6924 3.5854438,4.1883825 0 0 0 0.696606,-2.47358 3.5854438,4.1883825 0 0 0 -3.585119,-4.18852 z"
           id="path4995"
           inkscape:connector-curvature="0" />
        <path
           style="fill:#ffcc95;fill-opacity:1;stroke:none;stroke-width:0.26458332px;stroke-linecap:butt;stroke-linejoin:miter;stroke-opacity:1"
           d="m 22.40947,260.2352 c 0.02165,3.07455 0.108246,6.14881 0.933867,8.70774 0.825622,2.55893 2.576704,4.84517 3.550868,5.81756 0.974163,0.97238 1.635667,1.14147 2.526031,1.34441 0.890363,0.20294 1.75187,0.38345 2.775636,0.40616 1.023766,0.0227 2.016565,-0.12967 2.900485,-0.43586 0.883919,-0.3062 1.555094,-0.73544 2.486442,-1.40067 0.931348,-0.66523 2.141151,-1.58088 2.956477,-3.96079 0.815327,-2.37991 1.248468,-6.23486 1.313398,-8.91956 0.06493,-2.6847 -0.238217,-4.20043 -0.303151,-5.95412 -0.06493,-1.7537 0.108303,-3.74592 -0.432919,-5.45616 -0.541221,-1.71024 -1.797198,-3.13946 -4.330279,-3.85396 -2.533081,-0.7145 -6.343822,-0.7145 -8.942085,0.15148 -2.598264,0.86598 -3.983875,2.598 -4.698497,5.0016 -0.714623,2.40361 -0.757919,5.47763 -0.736273,8.55217 z"
           id="path10"
           transform="matrix(2.0676249,0,0,2.1196656,-27.860741,-291.85217)"
           inkscape:connector-curvature="0" />
        <path
           style="opacity:0.8;vector-effect:none;fill:#b43910;fill-opacity:1;stroke:none;stroke-width:3.82941365;stroke-linecap:round;stroke-linejoin:round;stroke-miterlimit:4;stroke-dasharray:none;stroke-dashoffset:0;stroke-opacity:1"
           d="m 32.018655,279.38413 0.01985,15.01086 -11.17424,-9.24117 -3.549874,-15.1963 -1.028987,-12.0324 5.281036,-1.24621 -1.064167,8.92812 4.284009,12.69698 z"
           id="path14"
           inkscape:connector-curvature="0" />
        <path
           id="path17"
           d="m 45.314606,279.38413 -0.01985,15.01086 11.17424,-9.24117 3.549875,-15.1963 1.028987,-12.0324 -5.281037,-1.24621 1.064167,8.92812 -4.3705,14.8952 z"
           style="opacity:0.8;vector-effect:none;fill:#b43910;fill-opacity:1;stroke:none;stroke-width:3.82941365;stroke-linecap:round;stroke-linejoin:round;stroke-miterlimit:4;stroke-dasharray:none;stroke-dashoffset:0;stroke-opacity:1"
           inkscape:connector-curvature="0" />
        <path
           style="opacity:0.8;vector-effect:none;fill:#b43910;fill-opacity:1;stroke:none;stroke-width:3.82941365;stroke-linecap:round;stroke-linejoin:round;stroke-miterlimit:4;stroke-dasharray:none;stroke-dashoffset:0;stroke-opacity:1"
           d="m 31.531493,278.76706 3.158044,0.45903 2.644049,0.68872 h 2.611574 l 2.611571,1.1625 2.611572,0.53722 -5.499012,3.47065 v 7.83032 h 5.499008 v 1.61445 h -13.05786 v -1.61445 h 5.033211 v -7.83032 l -1.904479,-3.47686 z"
           id="rect25"
           inkscape:connector-curvature="0" />
        <path
           style="opacity:0.6;vector-effect:none;fill:#5a8fb9;fill-opacity:1;stroke:none;stroke-width:3.82941365;stroke-linecap:round;stroke-linejoin:round;stroke-miterlimit:4;stroke-dasharray:none;stroke-dashoffset:0;stroke-opacity:1"
           d="m 40.157331,287.62307 4.615096,-4.13102 v 9.09656 h -4.615096 z"
           id="rect19"
           inkscape:connector-curvature="0" />
        <path
           style="opacity:0.6;vector-effect:none;fill:#5a8fb9;fill-opacity:1;stroke:none;stroke-width:3.82941365;stroke-linecap:round;stroke-linejoin:round;stroke-miterlimit:4;stroke-dasharray:none;stroke-dashoffset:0;stroke-opacity:1"
           d="m 32.418364,285.6051 4.345424,2.27919 v 4.75186 h -4.345424 z"
           id="rect23"
           inkscape:connector-curvature="0" />
        <path
           style="opacity:0.8;vector-effect:none;fill:#b43910;fill-opacity:1;stroke:none;stroke-width:3.82941365;stroke-linecap:round;stroke-linejoin:round;stroke-miterlimit:4;stroke-dasharray:none;stroke-dashoffset:0;stroke-opacity:1"
           d="m 37.017783,273.50408 4.089425,0.52796 4.329182,2.13004 -0.476531,3.69102 -2.595284,-0.81324 -2.441289,-1.48157 -2.622706,-0.3386 -2.80412,0.80437 -2.650132,0.13604 0.435911,-3.69627 z"
           id="rect30"
           inkscape:connector-curvature="0" />
        <path
           style="opacity:0.9;vector-effect:none;fill:#5a8fb9;fill-opacity:1;stroke:none;stroke-width:4.48292446;stroke-linecap:round;stroke-linejoin:round;stroke-miterlimit:4;stroke-dasharray:none;stroke-dashoffset:0;stroke-opacity:1"
           d="m 17.526155,233.0981 4.222853,-4.03371 -1.462553,8.35841 6.868046,4.7616 -2.663123,5.37889 -2.312708,0.78538 -0.770905,7.86016 -5.331141,0.8543 -0.109894,-10.50795 0.978927,-6.17071 z"
           id="rect33"
           inkscape:connector-curvature="0" />
        <path
           style="opacity:0.9;vector-effect:none;fill:#5a8fb9;fill-opacity:1;stroke:none;stroke-width:4.48292446;stroke-linecap:round;stroke-linejoin:round;stroke-miterlimit:4;stroke-dasharray:none;stroke-dashoffset:0;stroke-opacity:1"
           d="m 24.921539,224.00963 4.496199,-0.44715 -4.092388,2.02197 -1.301285,2.56491 1.993193,-1.8956 5.241046,-2.26218 9.056253,-1.36251 8.575421,0.5805 4.880929,2.6518 7.037629,6.6825 -0.587721,6.64599 -1.673622,-2.24131 -0.343013,-0.22886 -0.320904,4.15493 -4.861767,-6.66536 -7.763918,-0.14619 -0.923705,0.13937 -7.933512,1.27007 -7.319737,-1.75435 -1.706206,7.66884 -6.576131,-4.21841 1.240934,-8.21385 z"
           id="rect35"
           inkscape:connector-curvature="0" />
        <path
           style="opacity:0.9;vector-effect:none;fill:#5a8fb9;fill-opacity:1;stroke:none;stroke-width:3.82941365;stroke-linecap:round;stroke-linejoin:round;stroke-miterlimit:4;stroke-dasharray:none;stroke-dashoffset:0;stroke-opacity:1"
           d="m 56.526548,241.4933 1.759632,-0.48441 0.08665,-3.70801 1.895106,2.48303 1.803683,4.11631 -0.655928,11.48098 -0.143161,2.11123 -4.706649,-1.96383 0.90882,-5.54586 -0.677968,-2.87956 0.68828,-3.12797 z"
           id="rect37"
           inkscape:connector-curvature="0" />
        <path
           style="opacity:0.4;vector-effect:none;fill:#5a8fb9;fill-opacity:1;stroke:none;stroke-width:2.03814149;stroke-linecap:round;stroke-linejoin:round;stroke-miterlimit:4;stroke-dasharray:none;stroke-dashoffset:0;stroke-opacity:1"
           d="m 41.691552,274.54042 0.379797,0.049 -0.462633,3.58343 -1.148998,-0.72724 z"
           id="rect4899"
           inkscape:connector-curvature="0" />
        <path
           style="opacity:0.4;vector-effect:none;fill:#5a8fb9;fill-opacity:1;stroke:none;stroke-width:2.03814149;stroke-linecap:round;stroke-linejoin:round;stroke-miterlimit:4;stroke-dasharray:none;stroke-dashoffset:0;stroke-opacity:1"
           d="m 42.167224,274.70839 0.469404,0.43111 -0.487601,3.41811 -0.364346,-0.34807 z"
           id="rect4901"
           inkscape:connector-curvature="0" />
        <path
           style="opacity:0.4;vector-effect:none;fill:#5a8fb9;fill-opacity:1;stroke:none;stroke-width:2.03814149;stroke-linecap:round;stroke-linejoin:round;stroke-miterlimit:4;stroke-dasharray:none;stroke-dashoffset:0;stroke-opacity:1"
           d="m 42.782903,275.19977 0.379798,0.049 0.148632,3.87076 -0.991062,-0.33636 z"
           id="rect4903"
           inkscape:connector-curvature="0" />
        <g
           id="g5036"
           transform="matrix(2.0676249,0,0,2.0676249,-27.860741,-279.04953)"
           style="fill:#0055d4">
          <circle
             r="1.4413623"
             cy="258.44885"
             cx="26.823185"
             id="path5032"
             style="opacity:1;vector-effect:none;fill:#0055d4;fill-opacity:1;stroke:#ffffff;stroke-width:1.32094109;stroke-linecap:round;stroke-linejoin:round;stroke-miterlimit:4;stroke-dasharray:none;stroke-dashoffset:0;stroke-opacity:1" />
          <path
             d="m 26.775627,258.45609 c 0.03327,0.0333 -0.02843,0.0612 -0.05529,0.0553 -0.07279,-0.0162 -0.08449,-0.1094 -0.05529,-0.16588 0.05224,-0.10102 0.187884,-0.11285 0.276458,-0.0553 0.129986,0.0845 0.142055,0.26743 0.05529,0.38704 -0.115642,0.15942 -0.34736,0.17162 -0.497625,0.0553 -0.189093,-0.14638 -0.201358,-0.42746 -0.05529,-0.6082 0.176906,-0.21891 0.507676,-0.23121 0.718792,-0.0553 0.248793,0.20732 0.261127,0.58795 0.05529,0.82938 -0.237646,0.27874 -0.66826,0.29109 -0.939958,0.0553 -0.308719,-0.26793 -0.321085,-0.7486 -0.05529,-1.05054 0.298181,-0.33873 0.828969,-0.3511 1.161124,-0.0553 0.368756,0.3284 0.381138,0.90935 0.05529,1.2717"
             id="path5028"
             style="fill:#0055d4;fill-rule:evenodd;stroke:#00ced4;stroke-width:0.10583333;stroke-linecap:round;stroke-miterlimit:4;stroke-dasharray:none;stroke-opacity:1"
             inkscape:connector-curvature="0" />
        </g>
        <g
           id="g5042"
           transform="matrix(2.0676249,0,0,2.0676249,-5.7267581,-279.04953)"
           style="fill:#0055d4">
          <circle
             style="opacity:1;vector-effect:none;fill:#0055d4;fill-opacity:1;stroke:#ffffff;stroke-width:1.32094109;stroke-linecap:round;stroke-linejoin:round;stroke-miterlimit:4;stroke-dasharray:none;stroke-dashoffset:0;stroke-opacity:1"
             id="circle5038"
             cx="26.823185"
             cy="258.44885"
             r="1.4413623" />
          <path
             style="fill:#0055d4;fill-rule:evenodd;stroke:#00ced4;stroke-width:0.10583333;stroke-linecap:round;stroke-miterlimit:4;stroke-dasharray:none;stroke-opacity:1"
             id="path5040"
             d="m 26.775627,258.45609 c 0.03327,0.0333 -0.02843,0.0612 -0.05529,0.0553 -0.07279,-0.0162 -0.08449,-0.1094 -0.05529,-0.16588 0.05224,-0.10102 0.187884,-0.11285 0.276458,-0.0553 0.129986,0.0845 0.142055,0.26743 0.05529,0.38704 -0.115642,0.15942 -0.34736,0.17162 -0.497625,0.0553 -0.189093,-0.14638 -0.201358,-0.42746 -0.05529,-0.6082 0.176906,-0.21891 0.507676,-0.23121 0.718792,-0.0553 0.248793,0.20732 0.261127,0.58795 0.05529,0.82938 -0.237646,0.27874 -0.66826,0.29109 -0.939958,0.0553 -0.308719,-0.26793 -0.321085,-0.7486 -0.05529,-1.05054 0.298181,-0.33873 0.828969,-0.3511 1.161124,-0.0553 0.368756,0.3284 0.381138,0.90935 0.05529,1.2717"
             inkscape:connector-curvature="0" />
        </g>
        <path
           style="fill:none;stroke:#ffbc92;stroke-width:0.17197917;stroke-linecap:round;stroke-linejoin:miter;stroke-miterlimit:4;stroke-dasharray:none;stroke-opacity:1"
           d="m 27.735895,267.76739 c 0.249547,-0.84222 0.498998,-1.68412 0.896571,-2.21407 0.397573,-0.52995 0.943456,-0.7483 1.488809,-0.96644"
           id="path5044"
           transform="matrix(2.9264053,0,0,1.9606617,-53.479724,-250.7353)"
           inkscape:connector-curvature="0" />
        <path
           transform="matrix(-2.6342673,0,0,2.7818075,123.74637,-466.88655)"
           id="path5048"
           d="m 27.735895,267.76739 c 0.249547,-0.84222 0.498998,-1.68412 0.896571,-2.21407 0.397573,-0.52995 0.943456,-0.7483 1.488809,-0.96644"
           style="fill:none;stroke:#ffbc92;stroke-width:0.17197917;stroke-linecap:round;stroke-linejoin:miter;stroke-miterlimit:4;stroke-dasharray:none;stroke-opacity:1"
           inkscape:connector-curvature="0" />
        <path
           id="path5056"
           d="m 18.747995,268.22578 3.023133,4.32353 3.295237,14.89357 -3.889164,-4.72353 z"
           style="opacity:0.4;vector-effect:none;fill:#5a8fb9;fill-opacity:1;stroke:none;stroke-width:3.99866104;stroke-linecap:round;stroke-linejoin:round;stroke-miterlimit:4;stroke-dasharray:none;stroke-dashoffset:0;stroke-opacity:1"
           inkscape:connector-curvature="0" />
        <path
           style="opacity:0.4;vector-effect:none;fill:#5a8fb9;fill-opacity:1;stroke:none;stroke-width:2.86837125;stroke-linecap:round;stroke-linejoin:round;stroke-miterlimit:4;stroke-dasharray:none;stroke-dashoffset:0;stroke-opacity:1"
           d="m 57.664057,274.03791 -2.181236,3.08343 -3.113615,10.6602 3.542142,-3.40718 z"
           id="path5058"
           inkscape:connector-curvature="0" />
        <path
           transform="matrix(-0.73519156,0.73519156,-0.57573726,-0.57573726,211.82498,381.03612)"
           id="path5063"
           d="m 27.735895,267.76739 c 0.249547,-0.84222 0.498998,-1.68412 0.896571,-2.21407 0.397573,-0.52995 0.943456,-0.7483 1.488809,-0.96644"
           style="fill:none;stroke:#ffbc92;stroke-width:0.17197917;stroke-linecap:round;stroke-linejoin:miter;stroke-miterlimit:4;stroke-dasharray:none;stroke-opacity:1"
           inkscape:connector-curvature="0" />
        <path
           style="fill:none;stroke:#ffbc92;stroke-width:0.17197917;stroke-linecap:round;stroke-linejoin:miter;stroke-miterlimit:4;stroke-dasharray:none;stroke-opacity:1"
           d="m 27.735895,267.76739 c 0.249547,-0.84222 0.498998,-1.68412 0.896571,-2.21407 0.397573,-0.52995 0.943456,-0.7483 1.488809,-0.96644"
           id="path5067"
           transform="matrix(0.63643271,-0.63643271,0.49839802,0.49839802,-111.18199,135.91753)"
           inkscape:connector-curvature="0" />
        <path
           style="opacity:0.4;vector-effect:none;fill:#ff8734;fill-opacity:1;stroke:none;stroke-width:3.71663165;stroke-linecap:round;stroke-linejoin:round;stroke-miterlimit:4;stroke-dasharray:none;stroke-dashoffset:0;stroke-opacity:1"
           d="m 19.976056,251.96326 3.930211,-2.47146 12.709179,-1.22651 -4.362143,3.30032 z"
           id="path5071"
           inkscape:connector-curvature="0" />
        <path
           id="path5073"
           d="m 39.904238,246.80973 3.610124,3.22385 12.42906,3.50123 -3.944694,-4.14843 z"
           style="opacity:0.4;vector-effect:none;fill:#ff8734;fill-opacity:1;stroke:none;stroke-width:3.77486658;stroke-linecap:round;stroke-linejoin:round;stroke-miterlimit:4;stroke-dasharray:none;stroke-dashoffset:0;stroke-opacity:1"
           inkscape:connector-curvature="0" />
        <path
           transform="matrix(1.5025055,0,0,1.0066634,-13.827391,1.8416716)"
           id="path5075"
           d="m 27.735895,267.76739 c 0.249547,-0.84222 0.498998,-1.68412 0.896571,-2.21407 0.397573,-0.52995 0.943456,-0.7483 1.488809,-0.96644"
           style="fill:none;stroke:#ffbc92;stroke-width:0.17197917;stroke-linecap:round;stroke-linejoin:miter;stroke-miterlimit:4;stroke-dasharray:none;stroke-opacity:1"
           inkscape:connector-curvature="0" />
        <path
           style="fill:#ffbc92;stroke:none;stroke-width:0.17197917;stroke-linecap:round;stroke-linejoin:miter;stroke-miterlimit:4;stroke-dasharray:none;stroke-opacity:1"
           d="m 27.735895,267.76739 c 0.249547,-0.84222 0.498998,-1.68412 0.896571,-2.21407 0.397573,-0.52995 0.943456,-0.7483 1.488809,-0.96644"
           id="path5079"
           transform="matrix(2.4009415,2.0675686,-1.3852499,1.6086064,326.8375,-228.12937)"
           inkscape:connector-curvature="0" />
        <path
           transform="matrix(2.4009415,2.0675686,-1.3852499,1.6086064,348.88396,-228.12937)"
           id="path5083"
           d="m 27.735895,267.76739 c 0.249547,-0.84222 0.498998,-1.68412 0.896571,-2.21407 0.397573,-0.52995 0.943456,-0.7483 1.488809,-0.96644"
           style="fill:#ffbc92;stroke:none;stroke-width:0.17197917;stroke-linecap:round;stroke-linejoin:miter;stroke-miterlimit:4;stroke-dasharray:none;stroke-opacity:1"
           inkscape:connector-curvature="0" />
      </g>
      <g
         id="layer2-7">
        <circle
           style="opacity:0.68999999;vector-effect:none;fill:#000000;fill-opacity:1;stroke:none;stroke-width:3.82941365;stroke-linecap:round;stroke-linejoin:round;stroke-miterlimit:4;stroke-dasharray:none;stroke-dashoffset:0;stroke-opacity:1"
           id="path4993"
           cx="39.470325"
           cy="17.50556"
           r="0.1899325" />
        <g
           id="g4945"
           transform="matrix(2.8572867,0,0,2.8572867,-53.828861,-85.918036)">
          <ellipse
             ry="1.0776397"
             rx="1.575012"
             cy="48.783913"
             cx="32.426918"
             id="path4907"
             style="opacity:1;vector-effect:none;fill:#ffbc92;fill-opacity:1;stroke:none;stroke-width:2.89843607;stroke-linecap:round;stroke-linejoin:round;stroke-miterlimit:4;stroke-dasharray:none;stroke-dashoffset:0;stroke-opacity:1" />
          <ellipse
             transform="rotate(120)"
             style="opacity:1;vector-effect:none;fill:#ffbc92;fill-opacity:1;stroke:none;stroke-width:1.60763454;stroke-linecap:round;stroke-linejoin:round;stroke-miterlimit:4;stroke-dasharray:none;stroke-dashoffset:0;stroke-opacity:1"
             id="ellipse4909"
             cx="26.601357"
             cy="-51.314335"
             rx="0.87358963"
             ry="0.59771925" />
          <ellipse
             ry="0.59771925"
             rx="0.87358963"
             cy="-19.976923"
             cx="55.857605"
             id="ellipse4911"
             style="opacity:1;vector-effect:none;fill:#ffbc92;fill-opacity:1;stroke:none;stroke-width:1.60763454;stroke-linecap:round;stroke-linejoin:round;stroke-miterlimit:4;stroke-dasharray:none;stroke-dashoffset:0;stroke-opacity:1"
             transform="rotate(75)" />
          <path
             id="rect4913"
             d="m 32.118857,43.66511 0.613213,0.46893 0.360713,2.30858 0.432855,2.3807 H 31.39743 l 0.468927,-3.46285 z"
             style="opacity:1;vector-effect:none;fill:#ffbc92;fill-opacity:1;stroke:none;stroke-width:2.46759558;stroke-linecap:round;stroke-linejoin:round;stroke-miterlimit:4;stroke-dasharray:none;stroke-dashoffset:0;stroke-opacity:1"
             inkscape:connector-curvature="0" />
        </g>
        <g
           id="g4978"
           style="fill:#453aac;fill-opacity:1"
           transform="matrix(2.2406533,0,0,2.2406533,-33.426365,-53.762408)">
          <path
             id="path4949"
             d="m 27.021231,36.650678 a 3.9139058,4.1412881 0 0 0 -3.913666,4.141281 3.9139058,4.1412881 0 0 0 3.913666,4.141282 3.9139058,4.1412881 0 0 0 3.91408,-4.141282 3.9139058,4.1412881 0 0 0 -3.91408,-4.141281 z m 0,0.622948 a 3.3250258,3.5181966 0 0 1 3.325005,3.518333 3.3250258,3.5181966 0 0 1 -3.325005,3.517922 3.3250258,3.5181966 0 0 1 -3.325005,-3.517922 3.3250258,3.5181966 0 0 1 3.325005,-3.518333 z"
             style="opacity:0.6;vector-effect:none;fill:#453aac;fill-opacity:1;stroke:none;stroke-width:1.4805342;stroke-linecap:round;stroke-linejoin:round;stroke-miterlimit:4;stroke-dasharray:none;stroke-dashoffset:0;stroke-opacity:1"
             inkscape:connector-curvature="0" />
          <path
             style="opacity:0.6;vector-effect:none;fill:#453aac;fill-opacity:1;stroke:none;stroke-width:1.4805342;stroke-linecap:round;stroke-linejoin:round;stroke-miterlimit:4;stroke-dasharray:none;stroke-dashoffset:0;stroke-opacity:1"
             d="m 27.160668,36.381331 a 3.9139058,4.1412881 0 0 0 -3.913666,4.141281 3.9139058,4.1412881 0 0 0 3.913666,4.141282 3.9139058,4.1412881 0 0 0 3.91408,-4.141282 3.9139058,4.1412881 0 0 0 -3.91408,-4.141281 z m 0,0.622948 a 3.3250258,3.5181966 0 0 1 3.325005,3.518333 3.3250258,3.5181966 0 0 1 -3.325005,3.517922 3.3250258,3.5181966 0 0 1 -3.325005,-3.517922 3.3250258,3.5181966 0 0 1 3.325005,-3.518333 z"
             id="path4968"
             inkscape:connector-curvature="0" />
          <path
             style="opacity:0.6;vector-effect:none;fill:#453aac;fill-opacity:1;stroke:none;stroke-width:1.4805342;stroke-linecap:round;stroke-linejoin:round;stroke-miterlimit:4;stroke-dasharray:none;stroke-dashoffset:0;stroke-opacity:1"
             d="m 27.295841,36.880329 a 3.9139058,4.1412881 0 0 0 -3.913666,4.141281 3.9139058,4.1412881 0 0 0 3.913666,4.141282 3.9139058,4.1412881 0 0 0 3.91408,-4.141282 3.9139058,4.1412881 0 0 0 -3.91408,-4.141281 z m 0,0.622948 a 3.3250258,3.5181966 0 0 1 3.325005,3.518333 3.3250258,3.5181966 0 0 1 -3.325005,3.517922 3.3250258,3.5181966 0 0 1 -3.325005,-3.517922 3.3250258,3.5181966 0 0 1 3.325005,-3.518333 z"
             id="path4970"
             inkscape:connector-curvature="0" />
          <path
             id="path4972"
             d="m 27.435278,36.610982 a 3.9139058,4.1412881 0 0 0 -3.913666,4.141281 3.9139058,4.1412881 0 0 0 3.913666,4.141282 3.9139058,4.1412881 0 0 0 3.91408,-4.141282 3.9139058,4.1412881 0 0 0 -3.91408,-4.141281 z m 0,0.622948 a 3.3250258,3.5181966 0 0 1 3.325005,3.518333 3.3250258,3.5181966 0 0 1 -3.325005,3.517922 3.3250258,3.5181966 0 0 1 -3.325005,-3.517922 3.3250258,3.5181966 0 0 1 3.325005,-3.518333 z"
             style="opacity:0.6;vector-effect:none;fill:#453aac;fill-opacity:1;stroke:none;stroke-width:1.4805342;stroke-linecap:round;stroke-linejoin:round;stroke-miterlimit:4;stroke-dasharray:none;stroke-dashoffset:0;stroke-opacity:1"
             inkscape:connector-curvature="0" />
        </g>
        <g
           style="fill:#453aac;fill-opacity:1"
           id="g4988"
           transform="matrix(2.2406533,0,0,2.2406533,-11.29997,-53.762408)">
          <path
             style="opacity:0.6;vector-effect:none;fill:#453aac;fill-opacity:1;stroke:none;stroke-width:1.4805342;stroke-linecap:round;stroke-linejoin:round;stroke-miterlimit:4;stroke-dasharray:none;stroke-dashoffset:0;stroke-opacity:1"
             d="m 27.021231,36.650678 a 3.9139058,4.1412881 0 0 0 -3.913666,4.141281 3.9139058,4.1412881 0 0 0 3.913666,4.141282 3.9139058,4.1412881 0 0 0 3.91408,-4.141282 3.9139058,4.1412881 0 0 0 -3.91408,-4.141281 z m 0,0.622948 a 3.3250258,3.5181966 0 0 1 3.325005,3.518333 3.3250258,3.5181966 0 0 1 -3.325005,3.517922 3.3250258,3.5181966 0 0 1 -3.325005,-3.517922 3.3250258,3.5181966 0 0 1 3.325005,-3.518333 z"
             id="path4980"
             inkscape:connector-curvature="0" />
          <path
             id="path4982"
             d="m 27.160668,36.381331 a 3.9139058,4.1412881 0 0 0 -3.913666,4.141281 3.9139058,4.1412881 0 0 0 3.913666,4.141282 3.9139058,4.1412881 0 0 0 3.91408,-4.141282 3.9139058,4.1412881 0 0 0 -3.91408,-4.141281 z m 0,0.622948 a 3.3250258,3.5181966 0 0 1 3.325005,3.518333 3.3250258,3.5181966 0 0 1 -3.325005,3.517922 3.3250258,3.5181966 0 0 1 -3.325005,-3.517922 3.3250258,3.5181966 0 0 1 3.325005,-3.518333 z"
             style="opacity:0.6;vector-effect:none;fill:#453aac;fill-opacity:1;stroke:none;stroke-width:1.4805342;stroke-linecap:round;stroke-linejoin:round;stroke-miterlimit:4;stroke-dasharray:none;stroke-dashoffset:0;stroke-opacity:1"
             inkscape:connector-curvature="0" />
          <path
             id="path4984"
             d="m 27.295841,36.880329 a 3.9139058,4.1412881 0 0 0 -3.913666,4.141281 3.9139058,4.1412881 0 0 0 3.913666,4.141282 3.9139058,4.1412881 0 0 0 3.91408,-4.141282 3.9139058,4.1412881 0 0 0 -3.91408,-4.141281 z m 0,0.622948 a 3.3250258,3.5181966 0 0 1 3.325005,3.518333 3.3250258,3.5181966 0 0 1 -3.325005,3.517922 3.3250258,3.5181966 0 0 1 -3.325005,-3.517922 3.3250258,3.5181966 0 0 1 3.325005,-3.518333 z"
             style="opacity:0.6;vector-effect:none;fill:#453aac;fill-opacity:1;stroke:none;stroke-width:1.4805342;stroke-linecap:round;stroke-linejoin:round;stroke-miterlimit:4;stroke-dasharray:none;stroke-dashoffset:0;stroke-opacity:1"
             inkscape:connector-curvature="0" />
          <path
             style="opacity:0.6;vector-effect:none;fill:#453aac;fill-opacity:1;stroke:none;stroke-width:1.4805342;stroke-linecap:round;stroke-linejoin:round;stroke-miterlimit:4;stroke-dasharray:none;stroke-dashoffset:0;stroke-opacity:1"
             d="m 27.435278,36.610982 a 3.9139058,4.1412881 0 0 0 -3.913666,4.141281 3.9139058,4.1412881 0 0 0 3.913666,4.141282 3.9139058,4.1412881 0 0 0 3.91408,-4.141282 3.9139058,4.1412881 0 0 0 -3.91408,-4.141281 z m 0,0.622948 a 3.3250258,3.5181966 0 0 1 3.325005,3.518333 3.3250258,3.5181966 0 0 1 -3.325005,3.517922 3.3250258,3.5181966 0 0 1 -3.325005,-3.517922 3.3250258,3.5181966 0 0 1 3.325005,-3.518333 z"
             id="path4986"
             inkscape:connector-curvature="0" />
        </g>
        <path
           style="opacity:0.9;vector-effect:none;fill:#453aac;fill-opacity:1;stroke:none;stroke-width:4.45051575;stroke-linecap:round;stroke-linejoin:round;stroke-miterlimit:4;stroke-dasharray:none;stroke-dashoffset:0;stroke-opacity:1"
           d="m 36.271778,36.287115 h 4.682564 v 3.121704 h -0.936514 l -0.936514,-1.595344 h -0.936509 l -0.936515,1.595344 h -0.936512 z"
           id="rect4990"
           inkscape:connector-curvature="0" />
      </g>
    </g>
  </g>
  <g
     inkscape:groupmode="layer"
     id="layer3"
     inkscape:label="Layer 3">
    <text
       xml:space="preserve"
       style="font-style:normal;font-variant:normal;font-weight:normal;font-stretch:normal;font-size:76.62847137px;line-height:1.25;font-family:'I Love What You Do!!..';-inkscape-font-specification:'I Love What You Do!!.., Normal';font-variant-ligatures:normal;font-variant-caps:normal;font-variant-numeric:normal;font-feature-settings:normal;text-align:start;letter-spacing:0px;word-spacing:0px;writing-mode:lr-tb;text-anchor:start;fill:#0b280b;fill-opacity:1;stroke:none;stroke-width:1.91578686"
       x="151.60452"
       y="90.616058"
       id="text297"><tspan
         sodipodi:role="line"
         id="tspan295"
         x="151.60452"
         y="90.616058"
         style="font-style:normal;font-variant:normal;font-weight:normal;font-stretch:normal;font-size:76.62847137px;font-family:'I Love What You Do!!..';-inkscape-font-specification:'I Love What You Do!!.., Normal';font-variant-ligatures:normal;font-variant-caps:normal;font-variant-numeric:normal;font-feature-settings:normal;text-align:start;writing-mode:lr-tb;text-anchor:start;fill:#0b280b;stroke:none;stroke-width:1.91578686">TOMMY</tspan></text>
    <text
       id="text309"
       y="97.383369"
       x="138.32187"
       style="font-style:normal;font-variant:normal;font-weight:500;font-stretch:normal;font-size:12.54075146px;line-height:1.25;font-family:'Argor Cwar Scaqh';-inkscape-font-specification:'Argor Cwar Scaqh, Medium';font-variant-ligatures:normal;font-variant-caps:normal;font-variant-numeric:normal;font-feature-settings:normal;text-align:start;letter-spacing:0px;word-spacing:0px;writing-mode:lr-tb;text-anchor:start;fill:#0b280b;fill-opacity:0.6043478;stroke:none;stroke-width:0.31352177"
       xml:space="preserve"><tspan
         style="font-style:normal;font-variant:normal;font-weight:500;font-stretch:normal;font-size:12.54075146px;font-family:'Argor Cwar Scaqh';-inkscape-font-specification:'Argor Cwar Scaqh, Medium';font-variant-ligatures:normal;font-variant-caps:normal;font-variant-numeric:normal;font-feature-settings:normal;text-align:start;writing-mode:lr-tb;text-anchor:start;fill:#0b280b;fill-opacity:0.6043478;stroke-width:0.31352177"
         y="97.383369"
         x="138.32187"
         id="tspan307"
         sodipodi:role="line">thomas patrick keane</tspan></text>
    <text
       xml:space="preserve"
       style="font-style:normal;font-variant:normal;font-weight:normal;font-stretch:normal;font-size:4.30574751px;line-height:1.25;font-family:'Allerta Stencil';-inkscape-font-specification:'Allerta Stencil, Normal';font-variant-ligatures:normal;font-variant-caps:normal;font-variant-numeric:normal;font-feature-settings:normal;text-align:start;letter-spacing:0px;word-spacing:0px;writing-mode:lr-tb;text-anchor:start;fill:#428471;fill-opacity:1;stroke:none;stroke-width:0.10764667"
       x="138.16319"
       y="105.76757"
       id="text1559"><tspan
         sodipodi:role="line"
         id="tspan1557"
         x="138.16319"
         y="105.76757"
         style="font-style:normal;font-variant:normal;font-weight:normal;font-stretch:normal;font-size:4.30574751px;font-family:'Allerta Stencil';-inkscape-font-specification:'Allerta Stencil, Normal';font-variant-ligatures:normal;font-variant-caps:normal;font-variant-numeric:normal;font-feature-settings:normal;text-align:start;writing-mode:lr-tb;text-anchor:start;fill:#428471;fill-opacity:1;stroke-width:0.10764667">Boston, MA</tspan></text>
    <text
       id="text1563"
       y="105.81708"
       x="174.70923"
       style="font-style:normal;font-variant:normal;font-weight:normal;font-stretch:normal;font-size:4.30574751px;line-height:1.25;font-family:'Allerta Stencil';-inkscape-font-specification:'Allerta Stencil, Normal';font-variant-ligatures:normal;font-variant-caps:normal;font-variant-numeric:normal;font-feature-settings:normal;text-align:start;letter-spacing:0px;word-spacing:0px;writing-mode:lr-tb;text-anchor:start;fill:#428471;fill-opacity:1;stroke:none;stroke-width:0.10764667"
       xml:space="preserve"><tspan
         style="font-style:normal;font-variant:normal;font-weight:normal;font-stretch:normal;font-size:4.30574751px;font-family:'Allerta Stencil';-inkscape-font-specification:'Allerta Stencil, Normal';font-variant-ligatures:normal;font-variant-caps:normal;font-variant-numeric:normal;font-feature-settings:normal;text-align:start;writing-mode:lr-tb;text-anchor:start;fill:#428471;fill-opacity:1;stroke-width:0.10764667"
         y="105.81708"
         x="174.70923"
         id="tspan1561"
         sodipodi:role="line">Rochester, NY</tspan></text>
    <text
       xml:space="preserve"
       style="font-style:normal;font-variant:normal;font-weight:normal;font-stretch:normal;font-size:4.30574751px;line-height:1.25;font-family:'Allerta Stencil';-inkscape-font-specification:'Allerta Stencil, Normal';font-variant-ligatures:normal;font-variant-caps:normal;font-variant-numeric:normal;font-feature-settings:normal;text-align:start;letter-spacing:0px;word-spacing:0px;writing-mode:lr-tb;text-anchor:start;fill:#428471;fill-opacity:1;stroke:none;stroke-width:0.10764667"
       x="217.49446"
       y="105.76757"
       id="text1567"><tspan
         sodipodi:role="line"
         id="tspan1565"
         x="217.49446"
         y="105.76757"
         style="font-style:normal;font-variant:normal;font-weight:normal;font-stretch:normal;font-size:4.30574751px;font-family:'Allerta Stencil';-inkscape-font-specification:'Allerta Stencil, Normal';font-variant-ligatures:normal;font-variant-caps:normal;font-variant-numeric:normal;font-feature-settings:normal;text-align:start;writing-mode:lr-tb;text-anchor:start;fill:#428471;fill-opacity:1;stroke-width:0.10764667">Boston, MA</tspan></text>
    <g
       id="g1849">
      <g
         inkscape:corner7="-0.0055730931 : -0.023596429 : 0.015943482 : 1"
         inkscape:corner0="0.0085661058 : -0.0210563 : 0 : 1"
         inkscape:perspectiveID="#perspective1589"
         style="opacity:1;vector-effect:none;fill:#5a8fb9;fill-opacity:1;stroke:none;stroke-width:1.91999996;stroke-linecap:round;stroke-linejoin:round;stroke-miterlimit:4;stroke-dasharray:none;stroke-dashoffset:0;stroke-opacity:1"
         id="g1591"
         sodipodi:type="inkscape:box3d">
        <path
           points="165.22981,105.866 168.59086,105.24395 168.59086,103.01099 165.22981,103.59774 "
           d="m 165.22981,103.59774 v 2.26826 l 3.36105,-0.62205 v -2.23296 z"
           inkscape:box3dsidetype="6"
           style="fill:#353564;fill-rule:evenodd;stroke:none;stroke-width:2.04912663;stroke-linejoin:round"
           id="path1593"
           sodipodi:type="inkscape:box3dside" />
        <path
           points="168.24895,106.43434 171.6094,105.79462 168.59086,105.24395 165.22981,105.866 "
           d="m 165.22981,105.866 3.01914,0.56834 3.36045,-0.63972 -3.01854,-0.55067 z"
           inkscape:box3dsidetype="13"
           style="fill:#afafde;fill-rule:evenodd;stroke:none;stroke-width:2.04912663;stroke-linejoin:round"
           id="path1601"
           sodipodi:type="inkscape:box3dside" />
        <path
           points="171.6094,103.53041 171.6094,105.79462 168.59086,105.24395 168.59086,103.01099 "
           d="m 168.59086,103.01099 3.01854,0.51942 v 2.26421 l -3.01854,-0.55067 z"
           inkscape:box3dsidetype="11"
           style="fill:#e9e9ff;fill-rule:evenodd;stroke:none;stroke-width:2.04912663;stroke-linejoin:round"
           id="path1603"
           sodipodi:type="inkscape:box3dside" />
        <path
           points="168.24895,104.13383 171.6094,103.53041 168.59086,103.01099 165.22981,103.59774 "
           d="m 165.22981,103.59774 3.01914,0.53609 3.36045,-0.60342 -3.01854,-0.51942 z"
           inkscape:box3dsidetype="5"
           style="fill:#ff8734;fill-rule:evenodd;stroke:none;stroke-width:2.04912663;stroke-linejoin:round"
           id="path1595"
           sodipodi:type="inkscape:box3dside" />
        <path
           points="168.24895,106.43434 171.6094,105.79462 171.6094,103.53041 168.24895,104.13383 "
           d="m 168.24895,104.13383 v 2.30051 l 3.36045,-0.63972 v -2.26421 z"
           inkscape:box3dsidetype="14"
           style="fill:#b43910;fill-rule:evenodd;stroke:none;stroke-width:2.04912663;stroke-linejoin:round"
           id="path1599"
           sodipodi:type="inkscape:box3dside" />
        <path
           points="168.24895,104.13383 168.24895,106.43434 165.22981,105.866 165.22981,103.59774 "
           d="m 165.22981,103.59774 3.01914,0.53609 v 2.30051 l -3.01914,-0.56834 z"
           inkscape:box3dsidetype="3"
           style="fill:#fccb5e;fill-rule:evenodd;stroke:none;stroke-width:2.04912663;stroke-linejoin:round"
           id="path1597"
           sodipodi:type="inkscape:box3dside" />
      </g>
      <g
         id="g1741"
         transform="matrix(1.2647162,0,0,1.2647162,-42.088077,-30.370064)">
        <path
           style="opacity:0.6;fill:#5a8fb9;stroke:none;stroke-width:0.26458332px;stroke-linecap:butt;stroke-linejoin:miter;stroke-opacity:1"
           d="m 164.7256,106.07173 2.57157,-0.48461 0.19703,0.0309 -2.42078,0.51232 z"
           id="path1607"
           inkscape:connector-curvature="0"
           sodipodi:nodetypes="ccccc" />
        <path
           sodipodi:nodetypes="ccccc"
           inkscape:connector-curvature="0"
           id="path1609"
           d="m 165.0194,106.12303 2.41524,-0.51588 0.32959,0.058 -2.39701,0.51646 z"
           style="opacity:0.6;fill:#5a8fb9;stroke:none;stroke-width:0.26458332px;stroke-linecap:butt;stroke-linejoin:miter;stroke-opacity:1" />
        <path
           style="opacity:0.7;fill:#5a8fb9;stroke:none;stroke-width:0.26458332px;stroke-linecap:butt;stroke-linejoin:miter;stroke-opacity:1"
           d="m 164.7256,106.07173 0.0192,0.25383 0.2746,0.0946 0.054,-0.28979 z"
           id="path1613"
           inkscape:connector-curvature="0"
           sodipodi:nodetypes="ccccc" />
        <path
           sodipodi:nodetypes="ccccc"
           inkscape:connector-curvature="0"
           id="path1615"
           d="m 165.0194,106.12303 -0.0403,0.28056 0.32493,0.11725 0.0684,-0.34262 z"
           style="opacity:0.7;fill:#5a8fb9;stroke:none;stroke-width:0.28275463px;stroke-linecap:butt;stroke-linejoin:miter;stroke-opacity:1" />
      </g>
    </g>
    <g
       id="g1863"
       transform="matrix(0.93911292,0,0,0.93911292,12.848657,6.6651928)">
      <g
         sodipodi:type="inkscape:box3d"
         id="g1753"
         style="opacity:1;vector-effect:none;fill:#5a8fb9;fill-opacity:1;stroke:none;stroke-width:1.91999996;stroke-linecap:round;stroke-linejoin:round;stroke-miterlimit:4;stroke-dasharray:none;stroke-dashoffset:0;stroke-opacity:1"
         inkscape:perspectiveID="#perspective1803"
         inkscape:corner0="-0.14327337 : -0.014763158 : 0 : 1"
         inkscape:corner7="-0.15535769 : -0.017874242 : 0.015480182 : 1">
        <path
           sodipodi:type="inkscape:box3dside"
           id="path1755"
           style="fill:#353564;fill-rule:evenodd;stroke:none;stroke-width:0.56835568;stroke-linejoin:round"
           inkscape:box3dsidetype="6"
           d="m 207.64098,103.20231 v 2.4437 l 3.31517,-0.54427 v -2.40033 z"
           points="207.64098,105.64601 210.95615,105.10174 210.95615,102.70141 207.64098,103.20231 " />
        <path
           sodipodi:type="inkscape:box3dside"
           id="path1763"
           style="fill:#afafde;fill-rule:evenodd;stroke:none;stroke-width:0.56835568;stroke-linejoin:round"
           inkscape:box3dsidetype="13"
           d="m 207.64098,105.64601 3.7457,0.43874 3.29433,-0.55981 -3.72486,-0.4232 z"
           points="211.38668,106.08475 214.68101,105.52494 210.95615,105.10174 207.64098,105.64601 " />
        <path
           sodipodi:type="inkscape:box3dside"
           id="path1765"
           style="fill:#e9e9ff;fill-rule:evenodd;stroke:none;stroke-width:0.56835568;stroke-linejoin:round"
           inkscape:box3dsidetype="11"
           d="m 210.95615,102.70141 3.72486,0.38947 v 2.43406 l -3.72486,-0.4232 z"
           points="214.68101,103.09088 214.68101,105.52494 210.95615,105.10174 210.95615,102.70141 " />
        <path
           sodipodi:type="inkscape:box3dside"
           id="path1757"
           style="fill:#ff8734;stroke-width:0.56835568"
           inkscape:box3dsidetype="5"
           d="m 207.64098,103.20231 3.7457,0.40377 3.29433,-0.5152 -3.72486,-0.38947 z"
           points="211.38668,103.60608 214.68101,103.09088 210.95615,102.70141 207.64098,103.20231 " />
        <path
           sodipodi:type="inkscape:box3dside"
           id="path1761"
           style="fill:#b43910;stroke-width:0.56835568"
           inkscape:box3dsidetype="14"
           d="m 211.38668,103.60608 v 2.47867 l 3.29433,-0.55981 v -2.43406 z"
           points="211.38668,106.08475 214.68101,105.52494 214.68101,103.09088 211.38668,103.60608 " />
        <path
           sodipodi:type="inkscape:box3dside"
           id="path1759"
           style="fill:#fccb5e;stroke-width:0.56835568"
           inkscape:box3dsidetype="3"
           d="m 207.64098,103.20231 3.7457,0.40377 v 2.47867 l -3.7457,-0.43874 z"
           points="211.38668,103.60608 211.38668,106.08475 207.64098,105.64601 207.64098,103.20231 " />
      </g>
      <g
         id="g1751"
         transform="matrix(1.1787521,0,0,1.1787521,15.062083,-21.697995)">
        <path
           sodipodi:nodetypes="ccccc"
           inkscape:connector-curvature="0"
           id="path1743"
           d="m 164.7256,106.07173 2.57157,-0.48461 0.19703,0.0309 -2.42078,0.51232 z"
           style="opacity:0.6;fill:#5a8fb9;stroke:none;stroke-width:0.26458332px;stroke-linecap:butt;stroke-linejoin:miter;stroke-opacity:1" />
        <path
           style="opacity:0.6;fill:#5a8fb9;stroke:none;stroke-width:0.26458332px;stroke-linecap:butt;stroke-linejoin:miter;stroke-opacity:1"
           d="m 165.0194,106.12303 2.41524,-0.51588 0.32959,0.058 -2.39701,0.51646 z"
           id="path1745"
           inkscape:connector-curvature="0"
           sodipodi:nodetypes="ccccc" />
        <path
           sodipodi:nodetypes="ccccc"
           inkscape:connector-curvature="0"
           id="path1747"
           d="m 164.7256,106.07173 0.0192,0.25383 0.2746,0.0946 0.054,-0.28979 z"
           style="opacity:0.7;fill:#5a8fb9;stroke:none;stroke-width:0.26458332px;stroke-linecap:butt;stroke-linejoin:miter;stroke-opacity:1" />
        <path
           style="opacity:0.7;fill:#5a8fb9;stroke:none;stroke-width:0.28275463px;stroke-linecap:butt;stroke-linejoin:miter;stroke-opacity:1"
           d="m 165.0194,106.12303 -0.0403,0.28056 0.32493,0.11725 0.0684,-0.34262 z"
           id="path1749"
           inkscape:connector-curvature="0"
           sodipodi:nodetypes="ccccc" />
      </g>
    </g>
    <text
       xml:space="preserve"
       style="font-style:normal;font-variant:normal;font-weight:500;font-stretch:normal;font-size:26.43209839px;line-height:1.25;font-family:'Argor Cwar Scaqh';-inkscape-font-specification:'Argor Cwar Scaqh, Medium';font-variant-ligatures:normal;font-variant-caps:normal;font-variant-numeric:normal;font-feature-settings:normal;text-align:start;letter-spacing:0px;word-spacing:0px;writing-mode:lr-tb;text-anchor:start;opacity:0.4;fill:#e72626;fill-opacity:0.6043478;stroke:none;stroke-width:0.66080874"
       x="31.882372"
       y="-12.280951"
       id="text1811"
       transform="rotate(90)"><tspan
         sodipodi:role="line"
         id="tspan1809"
         x="31.882372"
         y="-12.280951"
         style="font-style:normal;font-variant:normal;font-weight:bold;font-stretch:normal;font-size:26.43209839px;font-family:Kameron;-inkscape-font-specification:'Kameron Bold';font-variant-ligatures:normal;font-variant-caps:normal;font-variant-numeric:normal;font-feature-settings:normal;text-align:start;writing-mode:lr-tb;text-anchor:start;fill:#e72626;fill-opacity:0.6043478;stroke-width:0.66080874">HTTP</tspan></text>
  </g>
</svg>
