<?xml version="1.0" encoding="UTF-8" standalone="no"?>
<!-- Generator: Adobe Illustrator 23.0.1, SVG Export Plug-In . SVG Version: 6.00 Build 0)  -->

<svg
   xmlns:dc="http://purl.org/dc/elements/1.1/"
   xmlns:cc="http://creativecommons.org/ns#"
   xmlns:rdf="http://www.w3.org/1999/02/22-rdf-syntax-ns#"
   xmlns:svg="http://www.w3.org/2000/svg"
   xmlns="http://www.w3.org/2000/svg"
   xmlns:sodipodi="http://sodipodi.sourceforge.net/DTD/sodipodi-0.dtd"
   xmlns:inkscape="http://www.inkscape.org/namespaces/inkscape"
   version="1.1"
   id="Layer_1"
   x="0px"
   y="0px"
   viewBox="0 0 1920 300"
   xml:space="preserve"
   sodipodi:docname="tommypkeane-com_footer_1920x1080.svg"
   inkscape:version="0.92.4 5da689c313, 2019-01-14"
   width="1920"
   height="300"><metadata
   id="metadata4527"><rdf:RDF><cc:Work
       rdf:about=""><dc:format>image/svg+xml</dc:format><dc:type
         rdf:resource="http://purl.org/dc/dcmitype/StillImage" /><dc:title /></cc:Work></rdf:RDF></metadata><defs
   id="defs4525" /><sodipodi:namedview
   pagecolor="#ffffff"
   bordercolor="#666666"
   borderopacity="1"
   objecttolerance="10"
   gridtolerance="10"
   guidetolerance="10"
   inkscape:pageopacity="0"
   inkscape:pageshadow="2"
   inkscape:window-width="1386"
   inkscape:window-height="833"
   id="namedview4523"
   showgrid="false"
   inkscape:showpageshadow="false"
   inkscape:zoom="0.43489583"
   inkscape:cx="960"
   inkscape:cy="150"
   inkscape:window-x="54"
   inkscape:window-y="30"
   inkscape:window-maximized="1"
   inkscape:current-layer="Layer_1" />
<style
   type="text/css"
   id="style4344">
	.st0{fill:#FCCB5E;}
	.st1{fill:#31318C;}
	.st2{fill:#428471;}
	.st3{fill:#8C89C6;}
	.st4{fill:#FFFFFF;}
	.st5{font-family:'CaviarDreams';}
	.st6{font-size:124.1991px;}
	.st7{fill:#DD6697;}
	.st8{font-family:'FascinateInline-Regular';}
	.st9{font-size:38.2004px;}
	.st10{font-size:11.3039px;}
	.st11{fill:#FFA33E;}
	.st12{fill:#50C0C9;}
	.st13{fill:#79BC8B;}
	.st14{fill:none;stroke:#FFFFFF;stroke-width:2.2941;stroke-linecap:round;stroke-linejoin:round;stroke-miterlimit:10;}
	.st15{fill:none;stroke:#FFFFFF;stroke-width:2.8675;stroke-linecap:round;stroke-linejoin:round;stroke-miterlimit:10;}
	.st16{fill:none;stroke:#FFFFFF;stroke-width:2.294;stroke-linecap:round;stroke-linejoin:round;stroke-miterlimit:10;}
	.st17{fill:none;stroke:#FFFFFF;stroke-width:2.3896;stroke-linecap:round;stroke-linejoin:round;stroke-miterlimit:10;}
	.st18{font-family:'TeXGyreSchola-Bold';}
	.st19{font-size:13px;}
	.st20{fill:none;stroke:#FFFFFF;stroke-width:1.5281;stroke-miterlimit:10;}
	.st21{fill:none;stroke:#FFFFFF;stroke-width:7.0735;stroke-miterlimit:10;}
</style>


<rect
   y="64.881592"
   class="st0"
   width="1920"
   height="28"
   id="rect4350"
   x="0"
   style="fill:#fccb5e" />

<rect
   y="108.88152"
   class="st1"
   width="1920"
   height="21"
   id="rect4354"
   style="fill:#c62c40;fill-opacity:1"
   x="0" />
<rect
   y="-0.11841236"
   class="st2"
   width="1920"
   height="28"
   id="rect4356"
   x="0"
   style="fill:#428471" />
<rect
   y="43.881588"
   class="st3"
   width="1920"
   height="21"
   id="rect4358"
   style="fill:#5a8fb9;fill-opacity:1"
   x="0" />


<g
   aria-label="copyright © tommy p. keane 2007, 2019 // all rights reserved"
   style="font-size:14.66405869px;font-family:FascinateInline-Regular;fill:#ffffff;stroke-width:1.29725659"
   id="text4364"><path
     d="m 1510.9622,124.64604 c -0.7479,0.4106 -1.4518,0.74787 -2.3023,0.74787 -1.4224,0 -2.2436,-0.9385 -2.2436,-2.55154 0,-1.43708 0.6599,-3.05013 2.1849,-3.05013 0.8652,0 1.6131,0.49858 1.5104,1.46641 h 1.1585 c 0.1173,-1.52506 -1.2758,-2.49289 -2.7275,-2.49289 -2.0236,0 -3.2701,1.833 -3.2701,4.06194 0,2.14095 1.1585,3.63669 3.3874,3.63669 0.9825,0 1.9503,-0.29328 2.8448,-0.9385 z"
     style="font-style:normal;font-variant:normal;font-weight:bold;font-stretch:normal;font-family:Bellota;-inkscape-font-specification:'Bellota Bold';text-align:end;text-anchor:end;stroke-width:1.29725659"
     id="path13" /><path
     d="m 1516.515,118.80975 c -2.1996,0 -3.71,1.71569 -3.71,3.88598 0,2.17028 1.5104,3.82731 3.6954,3.82731 2.1556,0 3.7246,-1.59838 3.7246,-3.84198 0,-2.21427 -1.5397,-3.87131 -3.71,-3.87131 z m 0,1.08514 c 1.5544,0 2.5516,1.07048 2.5516,2.72751 0,1.61305 -0.9239,2.8155 -2.5516,2.8155 -1.569,0 -2.5515,-1.11446 -2.5515,-2.75684 0,-1.55439 0.8945,-2.78617 2.5515,-2.78617 z"
     style="font-style:normal;font-variant:normal;font-weight:bold;font-stretch:normal;font-family:Bellota;-inkscape-font-specification:'Bellota Bold';text-align:end;text-anchor:end;stroke-width:1.29725659"
     id="path15" /><path
     d="m 1521.5349,119.49896 c 0.44,0.3666 0.6453,0.89451 0.6453,1.68637 v 8.91574 h 1.1291 v -3.68067 c 0.4986,0.0587 1.1438,0.10264 1.5251,0.10264 2.2876,0 3.6366,-1.65703 3.6366,-3.90064 0,-2.00897 -1.0998,-3.81265 -3.226,-3.81265 -0.8359,0 -1.6571,0.29328 -2.1703,0.99716 -0.1467,-0.36661 -0.396,-0.70388 -0.8212,-0.99716 z m 1.7744,2.06763 c 0.073,-0.99715 1.0118,-1.6717 1.965,-1.6717 1.2904,0 2.0383,1.27577 2.0383,2.8155 0,1.62771 -0.8212,2.72751 -2.5516,2.72751 -0.2053,0 -0.4252,0 -1.4517,-0.10264 z"
     style="font-style:normal;font-variant:normal;font-weight:bold;font-stretch:normal;font-family:Bellota;-inkscape-font-specification:'Bellota Bold';text-align:end;text-anchor:end;stroke-width:1.29725659"
     id="path17" /><path
     d="m 1536.4417,118.92706 h -1.1145 v 4.85381 c -0.015,0.21996 -0.015,0.30794 -0.176,0.54257 v -0.0147 c -0.5719,0.70388 -1.0998,1.11447 -2.009,1.11447 -0.9678,0 -1.4077,-0.49858 -1.4077,-1.53973 v -3.19676 c 0,-0.90917 -0.6746,-1.43708 -1.3491,-1.95032 l -0.6159,0.96783 c 0.073,-0.0147 0.8505,0.61589 0.8505,0.98249 v 3.56337 c 0,1.17312 0.6452,1.95032 1.7744,2.18494 -0.352,0.42526 -0.5133,1.0998 -0.5133,1.61305 0,1.17312 0.8066,2.39024 2.273,2.39024 1.2757,0 2.2876,-0.9385 2.2876,-2.56621 z m -1.7597,7.28804 c 0.2199,-0.11731 0.4399,-0.27862 0.6598,-0.45459 v 2.17028 c 0,0.85052 -0.4545,1.40775 -1.2024,1.40775 -0.7479,0 -1.1585,-0.55723 -1.1585,-1.31976 0,-0.70388 0.308,-1.07048 0.9825,-1.43708 z"
     style="font-style:normal;font-variant:normal;font-weight:bold;font-stretch:normal;font-family:Bellota;-inkscape-font-specification:'Bellota Bold';text-align:end;text-anchor:end;stroke-width:1.29725659"
     id="path19" /><path
     d="m 1538.2073,119.49896 c 0.4399,0.3666 0.6452,0.89451 0.6452,1.68637 v 5.20574 h 1.1291 v -5.20574 c 0.22,-0.4106 0.528,-0.76253 0.7626,-0.9385 0.2786,-0.23463 0.5865,-0.33728 1.0998,-0.33728 0.2053,0 0.4546,0.0147 0.9678,0.14664 v -1.0998 c -0.6599,-0.11731 -0.7918,-0.14664 -0.9971,-0.14664 -0.4693,0 -0.9385,0.10265 -1.3198,0.35194 -0.2493,0.14664 -0.4986,0.41059 -0.7185,0.71854 -0.1614,-0.43993 -0.4253,-0.79186 -0.8506,-1.07048 z"
     style="font-style:normal;font-variant:normal;font-weight:bold;font-stretch:normal;font-family:Bellota;-inkscape-font-specification:'Bellota Bold';text-align:end;text-anchor:end;stroke-width:1.29725659"
     id="path21" /><path
     d="m 1544.2936,115.87694 c -0.396,0 -0.7626,0.3666 -0.7626,0.77719 0,0.39593 0.3666,0.76253 0.7626,0.76253 0.4106,0 0.7918,-0.3666 0.7918,-0.76253 0,-0.41059 -0.3812,-0.77719 -0.7918,-0.77719 z m 0.6305,3.05012 h -1.1291 v 6.14424 c 0,0.79186 0.6599,1.45174 1.4517,1.45174 0.5426,0 1.0412,-0.3226 1.2905,-0.79185 l -0.9679,-0.63056 c -0.073,0.24929 -0.1759,0.30795 -0.3226,0.30795 -0.1466,0 -0.3226,-0.14664 -0.3226,-0.33728 z"
     style="font-style:normal;font-variant:normal;font-weight:bold;font-stretch:normal;font-family:Bellota;-inkscape-font-specification:'Bellota Bold';text-align:end;text-anchor:end;stroke-width:1.29725659"
     id="path23" /><path
     d="m 1553.4508,118.94173 h -0.9238 l -0.8505,-0.10265 c -0.352,-0.0147 -0.7039,-0.0293 -0.9092,-0.0293 -2.2143,0 -3.622,1.84767 -3.622,3.754 0,0.98249 0.3812,2.55154 1.481,3.40206 0.2347,0.17597 0.4986,0.32261 0.7772,0.42526 -0.3372,0.42526 -0.5279,0.99715 -0.5279,1.55439 0,1.12913 0.7479,2.43423 2.2583,2.43423 1.3344,0 2.3169,-1.04115 2.3169,-2.56621 z m -2.2876,0.95316 1.1878,0.0733 v 3.69534 c 0,0.11732 -0.059,0.30795 -0.1466,0.49858 -0.264,0.52791 -0.8359,0.95316 -1.2171,1.12913 -0.22,0.10265 -0.4546,0.14664 -0.6893,0.14664 -1.2317,0 -2.0529,-1.39308 -2.0529,-2.75684 0,-1.39308 0.8798,-2.78617 2.4635,-2.78617 z m 1.1878,7.96258 c -0.044,0.80653 -0.3813,1.42242 -1.1438,1.42242 -0.8358,0 -1.2464,-0.67455 -1.2464,-1.33443 0,-0.3666 0.1173,-0.82119 0.7038,-1.17313 0.8066,-0.48391 1.0412,-0.57189 1.3198,-0.82118 0.132,-0.11732 0.264,-0.21996 0.3666,-0.32261 z"
     style="font-style:normal;font-variant:normal;font-weight:bold;font-stretch:normal;font-family:Bellota;-inkscape-font-specification:'Bellota Bold';text-align:end;text-anchor:end;stroke-width:1.29725659"
     id="path25" /><path
     d="m 1556.613,115.67164 h -1.1145 v 10.67544 h 1.1145 v -5.17642 c 0.6305,-0.83585 1.1878,-1.31976 2.1263,-1.31976 0.9531,0 1.4664,0.42526 1.4664,1.42241 v 3.76866 c 0,0.79186 0.6305,1.43708 1.4517,1.43708 0.5133,0 1.0118,-0.27861 1.2758,-0.77719 l -0.9532,-0.63056 c -0.088,0.21996 -0.1466,0.29328 -0.3226,0.29328 -0.176,0 -0.3373,-0.13197 -0.3373,-0.32261 v -3.81265 c 0,-1.55439 -0.8505,-2.4489 -2.4782,-2.4489 -0.8945,0 -1.6424,0.30795 -2.2289,0.9385 z"
     style="font-style:normal;font-variant:normal;font-weight:bold;font-stretch:normal;font-family:Bellota;-inkscape-font-specification:'Bellota Bold';text-align:end;text-anchor:end;stroke-width:1.29725659"
     id="path27" /><path
     d="m 1565.4623,118.95639 v -1.78902 h -1.1145 v 7.00943 c 0,1.34909 0.5426,2.34624 1.9503,2.34624 0.9972,0 1.7157,-0.51324 2.1557,-1.36375 l -0.8799,-0.64522 c -0.2639,0.65988 -0.7185,0.92383 -1.2758,0.92383 -0.6598,0 -0.8358,-0.43992 -0.8358,-1.2611 v -4.09128 h 2.2582 v -1.12913 z"
     style="font-style:normal;font-variant:normal;font-weight:bold;font-stretch:normal;font-family:Bellota;-inkscape-font-specification:'Bellota Bold';text-align:end;text-anchor:end;stroke-width:1.29725659"
     id="path29" /><path
     d="m 1579.0451,118.23785 c -1.2171,0 -2.4049,0.41059 -3.2408,1.27577 -0.7772,0.79186 -1.2464,1.96499 -1.2464,3.24076 0,1.23178 0.4253,2.40491 1.2464,3.22609 0.8506,0.85052 1.9944,1.26111 3.2115,1.26111 1.3491,0 2.4929,-0.49857 3.2554,-1.29043 0.7185,-0.73321 1.2464,-1.86234 1.2464,-3.2261 0,-1.20245 -0.4252,-2.37557 -1.2464,-3.21143 -0.7919,-0.80652 -1.9357,-1.27577 -3.2261,-1.27577 z m 0,1.02649 c 0.9532,0 1.8037,0.29328 2.4342,0.92383 0.6159,0.63056 0.9239,1.52506 0.9239,2.49289 0,1.01182 -0.3226,1.92099 -0.9239,2.56621 -0.5572,0.5719 -1.3784,0.98249 -2.4489,0.98249 -0.9385,0 -1.8036,-0.32261 -2.4342,-0.96782 -0.6306,-0.63056 -0.9385,-1.49574 -0.9385,-2.53689 0,-1.02648 0.3079,-1.86233 0.9385,-2.50755 0.6306,-0.64522 1.4957,-0.95316 2.4489,-0.95316 z m 1.3638,4.35522 c -0.3813,0.27862 -0.7039,0.48391 -1.1292,0.48391 -0.6452,0 -1.0998,-0.5279 -1.0998,-1.39308 0,-0.64522 0.264,-1.42241 0.9678,-1.42241 0.352,0 0.7626,0.17596 0.8946,0.23462 l 0.2492,-0.14664 v -0.74787 c -0.1906,-0.21996 -0.8505,-0.33727 -1.2317,-0.33727 -1.2611,0 -1.965,1.21712 -1.965,2.43423 0,1.26111 0.7478,2.37558 2.0969,2.37558 0.6892,0 1.2465,-0.29328 1.7011,-0.64522 z"
     style="font-style:normal;font-variant:normal;font-weight:bold;font-stretch:normal;font-family:Bellota;-inkscape-font-specification:'Bellota Bold';text-align:end;text-anchor:end;stroke-width:1.29725659"
     id="path31" /><path
     d="m 1591.2103,118.95639 v -1.78902 h -1.1145 v 7.00943 c 0,1.34909 0.5426,2.34624 1.9504,2.34624 0.9971,0 1.7157,-0.51324 2.1556,-1.36375 l -0.8799,-0.64522 c -0.2639,0.65988 -0.7185,0.92383 -1.2757,0.92383 -0.6599,0 -0.8359,-0.43992 -0.8359,-1.2611 v -4.09128 h 2.2583 v -1.12913 z"
     style="font-style:normal;font-variant:normal;font-weight:bold;font-stretch:normal;font-family:Bellota;-inkscape-font-specification:'Bellota Bold';text-align:end;text-anchor:end;stroke-width:1.29725659"
     id="path33" /><path
     d="m 1599.0004,118.80975 c -2.1996,0 -3.71,1.71569 -3.71,3.88598 0,2.17028 1.5104,3.82731 3.6953,3.82731 2.1556,0 3.7247,-1.59838 3.7247,-3.84198 0,-2.21427 -1.5398,-3.87131 -3.71,-3.87131 z m 0,1.08514 c 1.5543,0 2.5515,1.07048 2.5515,2.72751 0,1.61305 -0.9238,2.8155 -2.5515,2.8155 -1.5691,0 -2.5516,-1.11446 -2.5516,-2.75684 0,-1.55439 0.8945,-2.78617 2.5516,-2.78617 z"
     style="font-style:normal;font-variant:normal;font-weight:bold;font-stretch:normal;font-family:Bellota;-inkscape-font-specification:'Bellota Bold';text-align:end;text-anchor:end;stroke-width:1.29725659"
     id="path35" /><path
     d="m 1604.2696,119.49896 c 0.4252,0.3666 0.6452,0.89451 0.6452,1.68637 v 5.20574 h 1.1145 V 121.156 c 0.3079,-0.70388 1.0411,-1.26111 1.9063,-1.26111 0.8358,0 1.2464,0.55723 1.2464,1.53973 v 4.95645 h 1.1145 v -5.20574 c 0.4986,-0.9385 1.1145,-1.29044 1.9063,-1.29044 0.8065,0 1.2025,0.39593 1.2611,1.34909 v 3.84199 c 0,0.74786 0.6013,1.45174 1.4518,1.45174 0.5572,0 1.0118,-0.29328 1.2758,-0.79186 l -0.9092,-0.60123 c -0.1467,0.2053 -0.22,0.27862 -0.352,0.27862 -0.1613,0 -0.3519,-0.14664 -0.3519,-0.33727 v -3.87131 c 0,-1.40775 -0.9532,-2.40491 -2.3609,-2.40491 -0.9092,0 -1.6717,0.42526 -2.2143,1.1438 -0.3812,-0.74787 -1.0998,-1.1438 -1.9943,-1.1438 -0.8945,0 -1.657,0.39593 -2.1849,1.07048 -0.1467,-0.42526 -0.4106,-0.79186 -0.8506,-1.07048 z"
     style="font-style:normal;font-variant:normal;font-weight:bold;font-stretch:normal;font-family:Bellota;-inkscape-font-specification:'Bellota Bold';text-align:end;text-anchor:end;stroke-width:1.29725659"
     id="path37" /><path
     d="m 1617.072,119.49896 c 0.4252,0.3666 0.6452,0.89451 0.6452,1.68637 v 5.20574 h 1.1145 V 121.156 c 0.3079,-0.70388 1.0411,-1.26111 1.9063,-1.26111 0.8359,0 1.2464,0.55723 1.2464,1.53973 v 4.95645 h 1.1145 v -5.20574 c 0.4986,-0.9385 1.1145,-1.29044 1.9063,-1.29044 0.8066,0 1.2025,0.39593 1.2611,1.34909 v 3.84199 c 0,0.74786 0.6013,1.45174 1.4518,1.45174 0.5572,0 1.0118,-0.29328 1.2758,-0.79186 l -0.9092,-0.60123 c -0.1466,0.2053 -0.22,0.27862 -0.3519,0.27862 -0.1613,0 -0.352,-0.14664 -0.352,-0.33727 v -3.87131 c 0,-1.40775 -0.9531,-2.40491 -2.3609,-2.40491 -0.9092,0 -1.6717,0.42526 -2.2143,1.1438 -0.3812,-0.74787 -1.0998,-1.1438 -1.9943,-1.1438 -0.8945,0 -1.657,0.39593 -2.1849,1.07048 -0.1467,-0.42526 -0.4106,-0.79186 -0.8505,-1.07048 z"
     style="font-style:normal;font-variant:normal;font-weight:bold;font-stretch:normal;font-family:Bellota;-inkscape-font-specification:'Bellota Bold';text-align:end;text-anchor:end;stroke-width:1.29725659"
     id="path39" /><path
     d="m 1636.3119,118.92706 h -1.1145 v 4.85381 c -0.015,0.21996 -0.015,0.30794 -0.1759,0.54257 v -0.0147 c -0.5719,0.70388 -1.0998,1.11447 -2.009,1.11447 -0.9678,0 -1.4078,-0.49858 -1.4078,-1.53973 v -3.19676 c 0,-0.90917 -0.6745,-1.43708 -1.349,-1.95032 l -0.6159,0.96783 c 0.073,-0.0147 0.8505,0.61589 0.8505,0.98249 v 3.56337 c 0,1.17312 0.6452,1.95032 1.7743,2.18494 -0.3519,0.42526 -0.5132,1.0998 -0.5132,1.61305 0,1.17312 0.8065,2.39024 2.2729,2.39024 1.2758,0 2.2876,-0.9385 2.2876,-2.56621 z m -1.7597,7.28804 c 0.22,-0.11731 0.4399,-0.27862 0.6599,-0.45459 v 2.17028 c 0,0.85052 -0.4546,1.40775 -1.2024,1.40775 -0.7479,0 -1.1585,-0.55723 -1.1585,-1.31976 0,-0.70388 0.3079,-1.07048 0.9825,-1.43708 z"
     style="font-style:normal;font-variant:normal;font-weight:bold;font-stretch:normal;font-family:Bellota;-inkscape-font-specification:'Bellota Bold';text-align:end;text-anchor:end;stroke-width:1.29725659"
     id="path41" /><path
     d="m 1642.5134,119.49896 c 0.44,0.3666 0.6453,0.89451 0.6453,1.68637 v 8.91574 h 1.1291 v -3.68067 c 0.4986,0.0587 1.1438,0.10264 1.5251,0.10264 2.2875,0 3.6366,-1.65703 3.6366,-3.90064 0,-2.00897 -1.0998,-3.81265 -3.2261,-3.81265 -0.8358,0 -1.657,0.29328 -2.1702,0.99716 -0.1467,-0.36661 -0.396,-0.70388 -0.8212,-0.99716 z m 1.7744,2.06763 c 0.073,-0.99715 1.0118,-1.6717 1.965,-1.6717 1.2904,0 2.0383,1.27577 2.0383,2.8155 0,1.62771 -0.8212,2.72751 -2.5516,2.72751 -0.2053,0 -0.4252,0 -1.4517,-0.10264 z"
     style="font-style:normal;font-variant:normal;font-weight:bold;font-stretch:normal;font-family:Bellota;-inkscape-font-specification:'Bellota Bold';text-align:end;text-anchor:end;stroke-width:1.29725659"
     id="path43" /><path
     d="m 1651.5321,124.89533 c -0.396,0 -0.7626,0.36661 -0.7626,0.7772 0,0.39593 0.3666,0.76253 0.7626,0.76253 0.4106,0 0.7918,-0.3666 0.7918,-0.76253 0,-0.41059 -0.3812,-0.7772 -0.7918,-0.7772 z"
     style="font-style:normal;font-variant:normal;font-weight:bold;font-stretch:normal;font-family:Bellota;-inkscape-font-specification:'Bellota Bold';text-align:end;text-anchor:end;stroke-width:1.29725659"
     id="path45" /><path
     d="m 1659.9488,115.70097 h -1.1145 v 10.67543 h 1.1145 v -2.84482 h 2.1556 l 1.3198,2.15561 c 0.2346,0.42526 0.7772,0.68921 1.2171,0.68921 0.8212,0 1.4957,-0.79186 1.4371,-1.56905 l -1.1585,-0.0587 c 0.015,0.0733 0.029,0.13198 0.029,0.17597 0,0.19063 -0.1026,0.29328 -0.2933,0.29328 -0.1173,0 -0.1906,-0.0147 -0.2346,-0.088 l -1.2171,-1.93566 c 0.6452,-0.39593 1.2464,-0.98249 1.2464,-2.06763 0,-1.36376 -0.9824,-2.34625 -2.3609,-2.34625 -0.8358,0 -1.613,0.3666 -2.1409,1.02649 z m 0.044,6.74547 c 0.015,-0.29329 0.059,-0.5719 0.1466,-0.86518 0.308,-1.09981 1.0265,-1.74503 1.921,-1.74503 0.8212,0 1.3051,0.52791 1.3051,1.23178 0,0.5719 -0.2933,0.96783 -0.8505,1.20246 -0.2786,0.11731 -0.5719,0.17597 -1.0558,0.17597 z"
     style="font-style:normal;font-variant:normal;font-weight:bold;font-stretch:normal;font-family:Bellota;-inkscape-font-specification:'Bellota Bold';text-align:end;text-anchor:end;stroke-width:1.29725659"
     id="path47" /><path
     d="m 1672.6391,124.7047 c -0.7625,0.41059 -1.437,0.7332 -2.3315,0.7332 -1.2611,0 -1.9357,-0.65988 -2.141,-1.89166 h 1.4811 c 1.9503,0 3.2994,-0.85051 3.2994,-2.37558 0,-1.43707 -1.2465,-2.36091 -2.6982,-2.36091 -2.3462,0 -3.2994,2.25826 -3.2994,4.13526 0,1.97965 1.0705,3.57803 3.3581,3.57803 1.1144,0 2.0969,-0.38126 2.8741,-0.9385 z m -4.5311,-2.2436 c 0.059,-1.08514 0.7038,-2.6102 2.1849,-2.6102 0.7919,0 1.5251,0.42526 1.5251,1.31976 0,0.9385 -0.8799,1.29044 -2.1703,1.29044 z"
     style="font-style:normal;font-variant:normal;font-weight:bold;font-stretch:normal;font-family:Bellota;-inkscape-font-specification:'Bellota Bold';text-align:end;text-anchor:end;stroke-width:1.29725659"
     id="path49" /><path
     d="m 1681.4907,125.10063 c -0.1026,0.23463 -0.1906,0.30795 -0.3519,0.30795 -0.1466,0 -0.3226,-0.13198 -0.3226,-0.33728 v -6.12957 h -0.9385 c -0.5279,-0.0733 -1.2905,-0.13198 -1.7304,-0.13198 -2.2436,0 -3.6367,1.65704 -3.6367,3.90064 0,1.97965 1.0852,3.81265 3.2115,3.81265 0.8212,0 1.5837,-0.27861 2.0823,-0.8945 0.2346,0.51324 0.7625,0.8945 1.3491,0.8945 0.4399,0 0.9971,-0.21996 1.2611,-0.79185 z m -1.8037,-1.55439 c 0,0.32261 -0.059,0.58656 -0.1759,0.82119 -0.308,0.63055 -0.9239,1.07047 -1.7744,1.07047 -1.3931,0 -2.0676,-1.33443 -2.0676,-2.75684 0,-1.56905 0.8212,-2.78617 2.4049,-2.78617 0.4253,0 1.1438,0.088 1.613,0.11731 z"
     style="font-style:normal;font-variant:normal;font-weight:bold;font-stretch:normal;font-family:Bellota;-inkscape-font-specification:'Bellota Bold';text-align:end;text-anchor:end;stroke-width:1.29725659"
     id="path51" /><path
     d="m 1683.0687,119.49896 c 0.4399,0.3666 0.6452,0.89451 0.6452,1.68637 v 5.20574 h 1.1292 v -5.17641 c 0.6159,-0.80653 1.1878,-1.31977 2.1703,-1.31977 0.9824,0 1.4077,0.46925 1.4077,1.53973 v 3.68067 c 0,0.74787 0.6159,1.45175 1.4517,1.45175 0.5573,0 1.0119,-0.29328 1.2905,-0.79186 l -0.9239,-0.60123 c -0.1319,0.2053 -0.2199,0.26395 -0.3519,0.26395 -0.1466,0.0147 -0.3373,-0.13197 -0.3373,-0.32261 v -4.06194 c -0.088,-1.49573 -1.0118,-2.2436 -2.4635,-2.2436 -0.9239,0 -1.7451,0.33727 -2.4196,1.1438 -0.1466,-0.45459 -0.4253,-0.87985 -0.8798,-1.1438 z"
     style="font-style:normal;font-variant:normal;font-weight:bold;font-stretch:normal;font-family:Bellota;-inkscape-font-specification:'Bellota Bold';text-align:end;text-anchor:end;stroke-width:1.29725659"
     id="path53" /><path
     d="m 1697.6711,124.7047 c -0.7625,0.41059 -1.437,0.7332 -2.3315,0.7332 -1.2611,0 -1.9357,-0.65988 -2.141,-1.89166 h 1.4811 c 1.9503,0 3.2994,-0.85051 3.2994,-2.37558 0,-1.43707 -1.2465,-2.36091 -2.6982,-2.36091 -2.3462,0 -3.2994,2.25826 -3.2994,4.13526 0,1.97965 1.0705,3.57803 3.3581,3.57803 1.1144,0 2.0969,-0.38126 2.8741,-0.9385 z m -4.5311,-2.2436 c 0.059,-1.08514 0.7038,-2.6102 2.1849,-2.6102 0.7919,0 1.5251,0.42526 1.5251,1.31976 0,0.9385 -0.8799,1.29044 -2.1703,1.29044 z"
     style="font-style:normal;font-variant:normal;font-weight:bold;font-stretch:normal;font-family:Bellota;-inkscape-font-specification:'Bellota Bold';text-align:end;text-anchor:end;stroke-width:1.29725659"
     id="path55" /><path
     d="m 1705.4234,119.45497 c 0.2493,-1.15846 1.0705,-1.81835 2.1849,-1.81835 1.0998,0 1.7891,0.64522 1.7891,1.59839 0,1.33443 -1.3345,2.14095 -2.4196,2.96214 -1.4224,1.07047 -2.5222,2.21427 -2.5222,3.82732 v 0.3666 h 6.5401 v -1.15846 h -5.235 c 0.2199,-0.63056 0.6892,-1.12914 1.3931,-1.70103 1.5983,-1.31977 3.3727,-2.12629 3.3727,-4.28191 0,-1.61305 -1.0705,-2.66886 -2.9035,-2.66886 -1.6277,0 -2.6982,0.83585 -3.1968,2.36092 z"
     style="font-style:normal;font-variant:normal;font-weight:bold;font-stretch:normal;font-family:Bellota;-inkscape-font-specification:'Bellota Bold';text-align:end;text-anchor:end;stroke-width:1.29725659"
     id="path57" /><path
     d="m 1716.2631,116.61014 c -2.5809,0 -4.0326,2.37558 -4.0326,4.95645 0,2.55155 1.4224,4.95645 4.0326,4.95645 2.5369,0 4.018,-2.30225 4.018,-4.91246 0,-2.58087 -1.4371,-5.00044 -4.018,-5.00044 z m 0.015,1.12913 c 1.8183,0 2.7862,1.77435 2.7862,3.81266 0,1.93565 -0.8799,3.85665 -2.7716,3.85665 -1.8476,0 -2.8155,-1.84768 -2.8155,-3.84199 0,-1.99431 0.9532,-3.82732 2.8009,-3.82732 z"
     style="font-style:normal;font-variant:normal;font-weight:bold;font-stretch:normal;font-family:Bellota;-inkscape-font-specification:'Bellota Bold';text-align:end;text-anchor:end;stroke-width:1.29725659"
     id="path59" /><path
     d="m 1726.001,116.61014 c -2.5809,0 -4.0326,2.37558 -4.0326,4.95645 0,2.55155 1.4224,4.95645 4.0326,4.95645 2.5369,0 4.0179,-2.30225 4.0179,-4.91246 0,-2.58087 -1.4371,-5.00044 -4.0179,-5.00044 z m 0.015,1.12913 c 1.8184,0 2.7862,1.77435 2.7862,3.81266 0,1.93565 -0.8798,3.85665 -2.7715,3.85665 -1.8477,0 -2.8155,-1.84768 -2.8155,-3.84199 0,-1.99431 0.9532,-3.82732 2.8008,-3.82732 z"
     style="font-style:normal;font-variant:normal;font-weight:bold;font-stretch:normal;font-family:Bellota;-inkscape-font-specification:'Bellota Bold';text-align:end;text-anchor:end;stroke-width:1.29725659"
     id="path61" /><path
     d="m 1737.5459,117.06473 v -0.30795 l -6.2762,0.0733 v 1.12913 h 4.7218 l -3.402,8.43184 h 1.2757 z"
     style="font-style:normal;font-variant:normal;font-weight:bold;font-stretch:normal;font-family:Bellota;-inkscape-font-specification:'Bellota Bold';text-align:end;text-anchor:end;stroke-width:1.29725659"
     id="path63" /><path
     d="m 1737.9547,125.4819 c 0.015,0.19063 0.015,0.35193 0.015,0.46925 0,0.29328 -0.029,0.43992 -0.073,0.60122 -0.073,0.19064 -0.2053,0.39593 -0.4692,0.61589 l 0.7185,0.68921 c 0.4399,-0.29328 0.7479,-0.63055 0.8945,-0.98249 0.1173,-0.32261 0.176,-0.70387 0.176,-1.11447 v -0.29328 c 0,-0.26395 -0.22,-0.63055 -0.6306,-0.63055 -0.3519,0 -0.6305,0.27861 -0.6305,0.63055 z"
     style="font-style:normal;font-variant:normal;font-weight:bold;font-stretch:normal;font-family:Bellota;-inkscape-font-specification:'Bellota Bold';text-align:end;text-anchor:end;stroke-width:1.29725659"
     id="path65" /><path
     d="m 1746.5229,119.45497 c 0.2492,-1.15846 1.0704,-1.81835 2.1849,-1.81835 1.0998,0 1.789,0.64522 1.789,1.59839 0,1.33443 -1.3344,2.14095 -2.4196,2.96214 -1.4224,1.07047 -2.5222,2.21427 -2.5222,3.82732 v 0.3666 h 6.5402 v -1.15846 h -5.2351 c 0.22,-0.63056 0.6892,-1.12914 1.3931,-1.70103 1.5984,-1.31977 3.3727,-2.12629 3.3727,-4.28191 0,-1.61305 -1.0704,-2.66886 -2.9034,-2.66886 -1.6277,0 -2.6982,0.83585 -3.1968,2.36092 z"
     style="font-style:normal;font-variant:normal;font-weight:bold;font-stretch:normal;font-family:Bellota;-inkscape-font-specification:'Bellota Bold';text-align:end;text-anchor:end;stroke-width:1.29725659"
     id="path67" /><path
     d="m 1757.3626,116.61014 c -2.5809,0 -4.0326,2.37558 -4.0326,4.95645 0,2.55155 1.4224,4.95645 4.0326,4.95645 2.5369,0 4.0179,-2.30225 4.0179,-4.91246 0,-2.58087 -1.4371,-5.00044 -4.0179,-5.00044 z m 0.015,1.12913 c 1.8184,0 2.7862,1.77435 2.7862,3.81266 0,1.93565 -0.8798,3.85665 -2.7715,3.85665 -1.8477,0 -2.8155,-1.84768 -2.8155,-3.84199 0,-1.99431 0.9532,-3.82732 2.8008,-3.82732 z"
     style="font-style:normal;font-variant:normal;font-weight:bold;font-stretch:normal;font-family:Bellota;-inkscape-font-specification:'Bellota Bold';text-align:end;text-anchor:end;stroke-width:1.29725659"
     id="path69" /><path
     d="m 1766.4914,126.39107 v -9.86891 h -0.3373 c -1.7157,1.15846 -2.4782,1.68636 -3.2847,1.52506 l 0.2786,1.0998 c 0.8358,0.0293 1.5104,-0.24929 2.1409,-0.7332 v 7.97725 z"
     style="font-style:normal;font-variant:normal;font-weight:bold;font-stretch:normal;font-family:Bellota;-inkscape-font-specification:'Bellota Bold';text-align:end;text-anchor:end;stroke-width:1.29725659"
     id="path71" /><path
     d="m 1769.4068,126.90431 c 1.745,0.0587 3.2701,-0.65988 4.3406,-1.84767 0.9385,-1.04115 1.5837,-2.52222 1.5837,-4.09127 0,-2.30226 -1.4224,-4.14993 -3.5487,-4.14993 -1.9503,0 -3.4901,1.56905 -3.4901,3.3874 0,1.833 1.5837,3.43138 3.3434,3.43138 0.8066,0 1.5691,-0.33727 2.2436,-0.85051 -0.3519,0.79186 -0.8358,1.5104 -1.5544,2.06763 -0.8798,0.70388 -1.8916,0.99716 -2.9181,0.96783 z m 2.3169,-4.35523 c -1.3197,0 -2.3316,-1.08514 -2.3316,-2.36091 0,-1.33443 1.1145,-2.28759 2.3463,-2.28759 1.2904,0 2.3609,1.02648 2.3609,2.27293 0,1.21711 -1.0118,2.37557 -2.3756,2.37557 z"
     style="font-style:normal;font-variant:normal;font-weight:bold;font-stretch:normal;font-family:Bellota;-inkscape-font-specification:'Bellota Bold';text-align:end;text-anchor:end;stroke-width:1.29725659"
     id="path73" /><path
     d="m 1782.3916,127.37356 3.1821,-11.9952 h -1.2464 l -3.2115,11.9952 z"
     style="font-style:normal;font-variant:normal;font-weight:bold;font-stretch:normal;font-family:Bellota;-inkscape-font-specification:'Bellota Bold';text-align:end;text-anchor:end;stroke-width:1.29725659"
     id="path75" /><path
     d="m 1787.6901,127.37356 3.1821,-11.9952 h -1.2464 l -3.2114,11.9952 z"
     style="font-style:normal;font-variant:normal;font-weight:bold;font-stretch:normal;font-family:Bellota;-inkscape-font-specification:'Bellota Bold';text-align:end;text-anchor:end;stroke-width:1.29725659"
     id="path77" /><path
     d="m 1803.7008,125.10063 c -0.1027,0.23463 -0.1907,0.30795 -0.352,0.30795 -0.1466,0 -0.3226,-0.13198 -0.3226,-0.33728 v -6.12957 h -0.9385 c -0.5279,-0.0733 -1.2904,-0.13198 -1.7303,-0.13198 -2.2436,0 -3.6367,1.65704 -3.6367,3.90064 0,1.97965 1.0851,3.81265 3.2114,3.81265 0.8212,0 1.5837,-0.27861 2.0823,-0.8945 0.2346,0.51324 0.7625,0.8945 1.3491,0.8945 0.4399,0 0.9972,-0.21996 1.2611,-0.79185 z m -1.8037,-1.55439 c 0,0.32261 -0.059,0.58656 -0.176,0.82119 -0.3079,0.63055 -0.9238,1.07047 -1.7743,1.07047 -1.3931,0 -2.0677,-1.33443 -2.0677,-2.75684 0,-1.56905 0.8212,-2.78617 2.405,-2.78617 0.4252,0 1.1438,0.088 1.613,0.11731 z"
     style="font-style:normal;font-variant:normal;font-weight:bold;font-stretch:normal;font-family:Bellota;-inkscape-font-specification:'Bellota Bold';text-align:end;text-anchor:end;stroke-width:1.29725659"
     id="path79" /><path
     d="m 1807.1762,115.71563 h -1.1145 v 9.34101 c 0,0.77719 0.6599,1.45174 1.4224,1.45174 0.4986,0 1.0705,-0.30794 1.3051,-0.79186 l -0.9385,-0.61589 c -0.1026,0.21996 -0.1906,0.29328 -0.3373,0.29328 -0.1613,0 -0.3372,-0.13197 -0.3372,-0.33727 z"
     style="font-style:normal;font-variant:normal;font-weight:bold;font-stretch:normal;font-family:Bellota;-inkscape-font-specification:'Bellota Bold';text-align:end;text-anchor:end;stroke-width:1.29725659"
     id="path81" /><path
     d="m 1811.3291,115.71563 h -1.1145 v 9.34101 c 0,0.77719 0.6599,1.45174 1.4224,1.45174 0.4986,0 1.0705,-0.30794 1.3051,-0.79186 l -0.9385,-0.61589 c -0.1026,0.21996 -0.1906,0.29328 -0.3373,0.29328 -0.1613,0 -0.3372,-0.13197 -0.3372,-0.33727 z"
     style="font-style:normal;font-variant:normal;font-weight:bold;font-stretch:normal;font-family:Bellota;-inkscape-font-specification:'Bellota Bold';text-align:end;text-anchor:end;stroke-width:1.29725659"
     id="path83" /><path
     d="m 1818.6861,119.49896 c 0.4399,0.3666 0.6452,0.89451 0.6452,1.68637 v 5.20574 h 1.1291 v -5.20574 c 0.22,-0.4106 0.5279,-0.76253 0.7626,-0.9385 0.2786,-0.23463 0.5865,-0.33728 1.0998,-0.33728 0.2053,0 0.4546,0.0147 0.9678,0.14664 v -1.0998 c -0.6599,-0.11731 -0.7919,-0.14664 -0.9972,-0.14664 -0.4692,0 -0.9385,0.10265 -1.3197,0.35194 -0.2493,0.14664 -0.4986,0.41059 -0.7186,0.71854 -0.1613,-0.43993 -0.4252,-0.79186 -0.8505,-1.07048 z"
     style="font-style:normal;font-variant:normal;font-weight:bold;font-stretch:normal;font-family:Bellota;-inkscape-font-specification:'Bellota Bold';text-align:end;text-anchor:end;stroke-width:1.29725659"
     id="path85" /><path
     d="m 1824.7723,115.87694 c -0.3959,0 -0.7625,0.3666 -0.7625,0.77719 0,0.39593 0.3666,0.76253 0.7625,0.76253 0.4106,0 0.7919,-0.3666 0.7919,-0.76253 0,-0.41059 -0.3813,-0.77719 -0.7919,-0.77719 z m 0.6306,3.05012 h -1.1291 v 6.14424 c 0,0.79186 0.6598,1.45174 1.4517,1.45174 0.5426,0 1.0411,-0.3226 1.2904,-0.79185 l -0.9678,-0.63056 c -0.073,0.24929 -0.176,0.30795 -0.3226,0.30795 -0.1466,0 -0.3226,-0.14664 -0.3226,-0.33728 z"
     style="font-style:normal;font-variant:normal;font-weight:bold;font-stretch:normal;font-family:Bellota;-inkscape-font-specification:'Bellota Bold';text-align:end;text-anchor:end;stroke-width:1.29725659"
     id="path87" /><path
     d="m 1833.9296,118.94173 h -0.9239 l -0.8505,-0.10265 c -0.3519,-0.0147 -0.7038,-0.0293 -0.9091,-0.0293 -2.2143,0 -3.6221,1.84767 -3.6221,3.754 0,0.98249 0.3813,2.55154 1.4811,3.40206 0.2346,0.17597 0.4986,0.32261 0.7772,0.42526 -0.3373,0.42526 -0.5279,0.99715 -0.5279,1.55439 0,1.12913 0.7479,2.43423 2.2583,2.43423 1.3344,0 2.3169,-1.04115 2.3169,-2.56621 z m -2.2876,0.95316 1.1878,0.0733 v 3.69534 c 0,0.11732 -0.059,0.30795 -0.1467,0.49858 -0.2639,0.52791 -0.8358,0.95316 -1.2171,1.12913 -0.2199,0.10265 -0.4546,0.14664 -0.6892,0.14664 -1.2318,0 -2.053,-1.39308 -2.053,-2.75684 0,-1.39308 0.8799,-2.78617 2.4636,-2.78617 z m 1.1878,7.96258 c -0.044,0.80653 -0.3813,1.42242 -1.1438,1.42242 -0.8359,0 -1.2465,-0.67455 -1.2465,-1.33443 0,-0.3666 0.1174,-0.82119 0.7039,-1.17313 0.8065,-0.48391 1.0412,-0.57189 1.3198,-0.82118 0.132,-0.11732 0.2639,-0.21996 0.3666,-0.32261 z"
     style="font-style:normal;font-variant:normal;font-weight:bold;font-stretch:normal;font-family:Bellota;-inkscape-font-specification:'Bellota Bold';text-align:end;text-anchor:end;stroke-width:1.29725659"
     id="path89" /><path
     d="m 1837.0917,115.67164 h -1.1144 v 10.67544 h 1.1144 v -5.17642 c 0.6306,-0.83585 1.1878,-1.31976 2.1263,-1.31976 0.9532,0 1.4664,0.42526 1.4664,1.42241 v 3.76866 c 0,0.79186 0.6306,1.43708 1.4518,1.43708 0.5132,0 1.0118,-0.27861 1.2757,-0.77719 l -0.9531,-0.63056 c -0.088,0.21996 -0.1467,0.29328 -0.3226,0.29328 -0.176,0 -0.3373,-0.13197 -0.3373,-0.32261 v -3.81265 c 0,-1.55439 -0.8505,-2.4489 -2.4782,-2.4489 -0.8945,0 -1.6424,0.30795 -2.229,0.9385 z"
     style="font-style:normal;font-variant:normal;font-weight:bold;font-stretch:normal;font-family:Bellota;-inkscape-font-specification:'Bellota Bold';text-align:end;text-anchor:end;stroke-width:1.29725659"
     id="path91" /><path
     d="m 1845.941,118.95639 v -1.78902 h -1.1144 v 7.00943 c 0,1.34909 0.5425,2.34624 1.9503,2.34624 0.9971,0 1.7157,-0.51324 2.1556,-1.36375 l -0.8798,-0.64522 c -0.264,0.65988 -0.7186,0.92383 -1.2758,0.92383 -0.6599,0 -0.8359,-0.43992 -0.8359,-1.2611 v -4.09128 h 2.2583 v -1.12913 z"
     style="font-style:normal;font-variant:normal;font-weight:bold;font-stretch:normal;font-family:Bellota;-inkscape-font-specification:'Bellota Bold';text-align:end;text-anchor:end;stroke-width:1.29725659"
     id="path93" /><path
     d="m 1850.1169,125.56988 c 0.6892,0.58656 1.613,0.95316 2.6542,0.95316 1.3491,0 2.7422,-0.64521 2.7422,-2.21427 0,-0.82119 -0.396,-1.40775 -1.0559,-1.81834 -1.1144,-0.67455 -2.7275,-0.82119 -2.7275,-1.78902 0,-0.46925 0.3666,-0.80652 1.0852,-0.80652 0.4692,0 1.1584,0.13198 1.789,0.52791 l 0.2346,-1.07048 c -0.4546,-0.33727 -1.3638,-0.54257 -2.009,-0.54257 -1.2024,0 -2.2582,0.71854 -2.2582,1.96498 0,1.67171 1.701,1.86234 2.8888,2.43424 0.6305,0.29328 0.8945,0.5719 0.8945,1.11447 0,0.80652 -0.7039,1.11446 -1.5104,1.11446 -0.7772,0 -1.4957,-0.26395 -2.1556,-0.74786 z"
     style="font-style:normal;font-variant:normal;font-weight:bold;font-stretch:normal;font-family:Bellota;-inkscape-font-specification:'Bellota Bold';text-align:end;text-anchor:end;stroke-width:1.29725659"
     id="path95" /><path
     d="m 1861.5613,119.49896 c 0.4399,0.3666 0.6452,0.89451 0.6452,1.68637 v 5.20574 h 1.1291 v -5.20574 c 0.22,-0.4106 0.5279,-0.76253 0.7625,-0.9385 0.2787,-0.23463 0.5866,-0.33728 1.0998,-0.33728 0.2053,0 0.4546,0.0147 0.9679,0.14664 v -1.0998 c -0.6599,-0.11731 -0.7919,-0.14664 -0.9972,-0.14664 -0.4692,0 -0.9385,0.10265 -1.3197,0.35194 -0.2493,0.14664 -0.4986,0.41059 -0.7186,0.71854 -0.1613,-0.43993 -0.4252,-0.79186 -0.8505,-1.07048 z"
     style="font-style:normal;font-variant:normal;font-weight:bold;font-stretch:normal;font-family:Bellota;-inkscape-font-specification:'Bellota Bold';text-align:end;text-anchor:end;stroke-width:1.29725659"
     id="path97" /><path
     d="m 1872.3797,124.7047 c -0.7626,0.41059 -1.4371,0.7332 -2.3316,0.7332 -1.2611,0 -1.9357,-0.65988 -2.141,-1.89166 h 1.4811 c 1.9503,0 3.2994,-0.85051 3.2994,-2.37558 0,-1.43707 -1.2464,-2.36091 -2.6982,-2.36091 -2.3462,0 -3.2994,2.25826 -3.2994,4.13526 0,1.97965 1.0705,3.57803 3.3581,3.57803 1.1145,0 2.0969,-0.38126 2.8741,-0.9385 z m -4.5312,-2.2436 c 0.059,-1.08514 0.7039,-2.6102 2.1849,-2.6102 0.7919,0 1.5251,0.42526 1.5251,1.31976 0,0.9385 -0.8799,1.29044 -2.1703,1.29044 z"
     style="font-style:normal;font-variant:normal;font-weight:bold;font-stretch:normal;font-family:Bellota;-inkscape-font-specification:'Bellota Bold';text-align:end;text-anchor:end;stroke-width:1.29725659"
     id="path99" /><path
     d="m 1874.347,125.56988 c 0.6892,0.58656 1.613,0.95316 2.6541,0.95316 1.3491,0 2.7422,-0.64521 2.7422,-2.21427 0,-0.82119 -0.3959,-1.40775 -1.0558,-1.81834 -1.1145,-0.67455 -2.7275,-0.82119 -2.7275,-1.78902 0,-0.46925 0.3666,-0.80652 1.0851,-0.80652 0.4693,0 1.1585,0.13198 1.7891,0.52791 l 0.2346,-1.07048 c -0.4546,-0.33727 -1.3638,-0.54257 -2.009,-0.54257 -1.2025,0 -2.2583,0.71854 -2.2583,1.96498 0,1.67171 1.7011,1.86234 2.8889,2.43424 0.6305,0.29328 0.8945,0.5719 0.8945,1.11447 0,0.80652 -0.7039,1.11446 -1.5104,1.11446 -0.7772,0 -1.4958,-0.26395 -2.1557,-0.74786 z"
     style="font-style:normal;font-variant:normal;font-weight:bold;font-stretch:normal;font-family:Bellota;-inkscape-font-specification:'Bellota Bold';text-align:end;text-anchor:end;stroke-width:1.29725659"
     id="path101" /><path
     d="m 1886.7,124.7047 c -0.7625,0.41059 -1.437,0.7332 -2.3315,0.7332 -1.2611,0 -1.9357,-0.65988 -2.141,-1.89166 h 1.4811 c 1.9503,0 3.2994,-0.85051 3.2994,-2.37558 0,-1.43707 -1.2465,-2.36091 -2.6982,-2.36091 -2.3462,0 -3.2994,2.25826 -3.2994,4.13526 0,1.97965 1.0705,3.57803 3.3581,3.57803 1.1144,0 2.0969,-0.38126 2.8741,-0.9385 z m -4.5311,-2.2436 c 0.059,-1.08514 0.7038,-2.6102 2.1849,-2.6102 0.7919,0 1.5251,0.42526 1.5251,1.31976 0,0.9385 -0.8799,1.29044 -2.1703,1.29044 z"
     style="font-style:normal;font-variant:normal;font-weight:bold;font-stretch:normal;font-family:Bellota;-inkscape-font-specification:'Bellota Bold';text-align:end;text-anchor:end;stroke-width:1.29725659"
     id="path103" /><path
     d="m 1888.6268,119.49896 c 0.4399,0.3666 0.6452,0.89451 0.6452,1.68637 v 5.20574 h 1.1291 v -5.20574 c 0.22,-0.4106 0.5279,-0.76253 0.7625,-0.9385 0.2787,-0.23463 0.5866,-0.33728 1.0998,-0.33728 0.2053,0 0.4546,0.0147 0.9679,0.14664 v -1.0998 c -0.6599,-0.11731 -0.7919,-0.14664 -0.9972,-0.14664 -0.4692,0 -0.9385,0.10265 -1.3198,0.35194 -0.2492,0.14664 -0.4985,0.41059 -0.7185,0.71854 -0.1613,-0.43993 -0.4252,-0.79186 -0.8505,-1.07048 z"
     style="font-style:normal;font-variant:normal;font-weight:bold;font-stretch:normal;font-family:Bellota;-inkscape-font-specification:'Bellota Bold';text-align:end;text-anchor:end;stroke-width:1.29725659"
     id="path105" /><path
     d="m 1893.9505,119.58694 c 0.3079,0.088 0.6452,0.43993 0.7918,0.79186 v -0.0147 l 1.9797,6.02693 h 1.0411 l 2.4343,-7.44934 h -1.1438 l -1.8037,5.52835 -1.3491,-4.10594 c -0.22,-0.68921 -0.6599,-1.33443 -1.3344,-1.7157 z"
     style="font-style:normal;font-variant:normal;font-weight:bold;font-stretch:normal;font-family:Bellota;-inkscape-font-specification:'Bellota Bold';text-align:end;text-anchor:end;stroke-width:1.29725659"
     id="path107" /><path
     d="m 1906.8918,124.7047 c -0.7626,0.41059 -1.4371,0.7332 -2.3316,0.7332 -1.2611,0 -1.9357,-0.65988 -2.141,-1.89166 h 1.4811 c 1.9503,0 3.2994,-0.85051 3.2994,-2.37558 0,-1.43707 -1.2464,-2.36091 -2.6982,-2.36091 -2.3462,0 -3.2994,2.25826 -3.2994,4.13526 0,1.97965 1.0705,3.57803 3.3581,3.57803 1.1144,0 2.0969,-0.38126 2.8741,-0.9385 z m -4.5312,-2.2436 c 0.059,-1.08514 0.7038,-2.6102 2.1849,-2.6102 0.7919,0 1.5251,0.42526 1.5251,1.31976 0,0.9385 -0.8799,1.29044 -2.1703,1.29044 z"
     style="font-style:normal;font-variant:normal;font-weight:bold;font-stretch:normal;font-family:Bellota;-inkscape-font-specification:'Bellota Bold';text-align:end;text-anchor:end;stroke-width:1.29725659"
     id="path109" /><path
     d="m 1915.0688,115.70097 h -1.1291 v 3.22609 c -0.4986,-0.0587 -1.1585,-0.11731 -1.5398,-0.11731 -2.2436,0 -3.6366,1.6717 -3.6366,3.90064 0,2.00898 1.1291,3.81265 3.2261,3.81265 0.8065,0 1.569,-0.27861 2.0676,-0.8945 0.2346,0.51324 0.7625,0.8945 1.3491,0.8945 0.4399,0 0.9971,-0.21996 1.2611,-0.79185 l -0.9238,-0.63056 c -0.1174,0.24929 -0.176,0.30795 -0.3373,0.30795 -0.176,0 -0.3373,-0.17597 -0.3373,-0.33728 z m -1.1291,7.84527 c 0,0.32261 -0.059,0.58656 -0.176,0.82119 -0.3373,0.68921 -0.9678,1.08514 -1.7743,1.07047 -1.3785,0 -2.0677,-1.27577 -2.0677,-2.83016 0,-1.56905 0.7039,-2.71285 2.7862,-2.71285 0.5426,0 0.9385,0.088 1.2318,0.13198 z"
     style="font-style:normal;font-variant:normal;font-weight:bold;font-stretch:normal;font-family:Bellota;-inkscape-font-specification:'Bellota Bold';text-align:end;text-anchor:end;stroke-width:1.29725659"
     id="path111" /></g>
















</svg>