<?xml version="1.0" encoding="UTF-8" standalone="no"?>
<svg
   xmlns:dc="http://purl.org/dc/elements/1.1/"
   xmlns:cc="http://creativecommons.org/ns#"
   xmlns:rdf="http://www.w3.org/1999/02/22-rdf-syntax-ns#"
   xmlns:svg="http://www.w3.org/2000/svg"
   xmlns="http://www.w3.org/2000/svg"
   xmlns:sodipodi="http://sodipodi.sourceforge.net/DTD/sodipodi-0.dtd"
   xmlns:inkscape="http://www.inkscape.org/namespaces/inkscape"
   width="300"
   height="300"
   viewBox="0 0 79.375 79.375002"
   version="1.1"
   id="svg1479"
   inkscape:version="1.0.1 (c497b03c, 2020-09-10)"
   sodipodi:docname="objet_spooky_skeleton-dolphin-witch_00.svg"
   inkscape:export-filename="/Users/tommy/dev/tommypkeane/illustrations/_exports/objet_spooky_skeleton-dolphin-witch_00_plain.png"
   inkscape:export-xdpi="96"
   inkscape:export-ydpi="96">
  <defs
     id="defs1473" />
  <sodipodi:namedview
     id="base"
     pagecolor="#ffffff"
     bordercolor="#666666"
     borderopacity="1.0"
     inkscape:pageopacity="0.0"
     inkscape:pageshadow="2"
     inkscape:zoom="1.4327843"
     inkscape:cx="163.12997"
     inkscape:cy="166.14596"
     inkscape:document-units="px"
     inkscape:current-layer="layer1"
     inkscape:document-rotation="0"
     showgrid="false"
     units="px"
     inkscape:showpageshadow="false"
     inkscape:pagecheckerboard="true"
     inkscape:window-width="1440"
     inkscape:window-height="829"
     inkscape:window-x="0"
     inkscape:window-y="23"
     inkscape:window-maximized="0" />
  <metadata
     id="metadata1476">
    <rdf:RDF>
      <cc:Work
         rdf:about="">
        <dc:format>image/svg+xml</dc:format>
        <dc:type
           rdf:resource="http://purl.org/dc/dcmitype/StillImage" />
        <dc:title></dc:title>
      </cc:Work>
    </rdf:RDF>
  </metadata>
  <g
     inkscape:label="Layer 1"
     inkscape:groupmode="layer"
     id="layer1">
    <rect
       style="fill:#000000;fill-opacity:1;stroke:none;stroke-width:0.132292"
       id="rect2952"
       width="79.375"
       height="79.375"
       x="5e-07"
       y="5e-07" />
    <path
       id="path1161"
       style="fill:#ff9955;stroke:none;stroke-width:0.140119;stroke-linecap:butt;stroke-linejoin:miter;stroke-miterlimit:4;stroke-dasharray:none;stroke-opacity:1"
       d="m 28.676499,17.634822 c -1.673831,0.04051 -6.905724,2.48394 -8.335971,4.20117 -1.494309,2.357046 0.116197,6.647026 -2.762553,7.908032 -2.045786,0.896134 -2.68804,0.722209 -4.605957,1.044796 -1.901408,0.300948 -9.5164116,1.551387 -10.9287287,2.415625 -2.15612309,0.955544 -0.067181,2.09861 0.9851751,1.896902 2.3674084,-0.453765 7.1280606,-0.878943 8.1543536,-1.089199 3.067625,-0.628463 5.704683,-1.050507 8.429021,-1.205436 2.724337,-0.154929 3.844193,-0.403447 4.744927,-0.584821 0.900735,-0.181373 3.787255,-2.793185 4.328311,-2.433504 0.541053,0.359681 2.465792,0.615397 3.824728,0.916412 1.358937,0.301014 -0.03923,0.0146 -2.633836,0.162149 -2.594607,0.147551 -4.436199,2.540141 -5.581637,2.99573 -1.14544,0.45559 -7.150023,0.145985 -9.607523,0.415888 -2.457498,0.269905 -3.71457,0.530695 -4.563661,1.62018 -0.849092,1.089486 2.05226,0.39077 2.699887,0.442624 2.851321,0.2283 12.281522,0.158347 14.490398,0.402083 9.662565,1.066205 14.668312,-11.118395 8.427746,-15.57905 -1.927505,-1.37775 -5.390847,-3.570091 -7.06468,-3.529581 z m -4.933084,8.015683 c 0.992909,-0.24798 0.514259,0.756538 0.300119,1.399727 -0.21414,0.643189 -0.47749,1.253139 -1.152387,1.291361 -0.674683,0.03822 -1.552645,0.327634 -1.590854,-0.34705 -0.03818,-0.673829 0.895118,-0.619486 1.213328,-0.942061 0.31821,-0.322574 1.229794,-1.401977 1.229794,-1.401977 z"
       sodipodi:nodetypes="scsccssssscssssssssczcczc" />
    <path
       style="fill:#ff9955;fill-opacity:1;stroke:none;stroke-width:0.140119;stroke-linecap:butt;stroke-linejoin:miter;stroke-miterlimit:4;stroke-dasharray:none;stroke-opacity:1"
       d="m 38.636038,21.981647 c 0.11983,0.503568 1.547297,1.34642 1.08925,2.400633 -0.458049,1.054212 0.352781,2.046559 1.047141,1.786805 0.69436,-0.259751 1.0891,-1.945411 0.852843,-3.136883 -0.169675,-0.85569 -1.139907,-1.985922 -1.987584,-1.97325 -0.847677,0.01268 -1.121481,0.419128 -1.00165,0.922695 z"
       id="path1163"
       sodipodi:nodetypes="zssssz" />
    <path
       style="fill:#ff9955;fill-opacity:1;stroke:none;stroke-width:0.140119;stroke-linecap:butt;stroke-linejoin:miter;stroke-miterlimit:4;stroke-dasharray:none;stroke-opacity:1"
       d="m 43.394596,21.724187 c -0.09368,0.50908 0.871949,1.856524 0.02725,2.636049 -0.844697,0.779524 -0.503603,2.014755 0.236564,2.057478 0.740124,0.04272 1.781852,-1.340063 2.046771,-2.525493 0.190261,-0.851348 -0.241038,-2.277097 -1.021666,-2.607757 -0.780628,-0.330661 -1.195232,-0.06936 -1.288921,0.439723 z"
       id="path1165"
       sodipodi:nodetypes="zssssz" />
    <path
       style="fill:#ff9955;fill-opacity:1;stroke:none;stroke-width:0.140119;stroke-linecap:butt;stroke-linejoin:miter;stroke-miterlimit:4;stroke-dasharray:none;stroke-opacity:1"
       d="m 48.001974,22.681799 c -0.205176,0.475229 0.434598,2.004521 -0.563056,2.575358 -0.997656,0.570837 -0.941456,1.851086 -0.229636,2.058264 0.711818,0.207179 2.036444,-0.907556 2.559804,-2.003695 0.375891,-0.78721 0.274398,-2.273319 -0.412492,-2.770209 -0.686891,-0.49689 -1.149436,-0.334943 -1.35462,0.140284 z"
       id="path1167"
       sodipodi:nodetypes="zssssz" />
    <path
       style="fill:#ff9955;fill-opacity:1;stroke:none;stroke-width:0.140119;stroke-linecap:butt;stroke-linejoin:miter;stroke-miterlimit:4;stroke-dasharray:none;stroke-opacity:1"
       d="m 51.970845,24.34975 c -0.228257,0.464582 0.335685,2.023435 -0.688786,2.544616 -1.02447,0.521179 -1.031216,1.802622 -0.330385,2.044511 0.70079,0.24187 2.078536,-0.806505 2.655067,-1.875635 0.414052,-0.767824 0.385651,-2.25711 -0.276021,-2.787115 -0.661673,-0.530006 -1.131611,-0.39096 -1.359872,0.07362 z"
       id="path1169"
       sodipodi:nodetypes="zssssz" />
    <path
       style="fill:#ff9955;fill-opacity:1;stroke:none;stroke-width:0.140119;stroke-linecap:butt;stroke-linejoin:miter;stroke-miterlimit:4;stroke-dasharray:none;stroke-opacity:1"
       d="m 56.176265,26.581197 c -0.307317,0.416528 -0.02987,2.050874 -1.130758,2.381362 -1.100885,0.330489 -1.335599,1.590293 -0.689056,1.953045 0.646543,0.362752 2.188905,-0.423622 2.946545,-1.373046 0.544119,-0.681855 0.781284,-2.15241 0.224527,-2.791736 -0.556759,-0.639327 -1.043943,-0.586154 -1.351258,-0.169625 z"
       id="path1171"
       sodipodi:nodetypes="zssssz" />
    <path
       style="fill:#ff9955;fill-opacity:1;stroke:none;stroke-width:0.140119;stroke-linecap:butt;stroke-linejoin:miter;stroke-miterlimit:4;stroke-dasharray:none;stroke-opacity:1"
       d="m 59.899119,29.51906 c -0.350209,0.381174 -0.249634,2.035845 -1.379614,2.246368 -1.129978,0.210523 -1.498472,1.437858 -0.894527,1.867887 0.603913,0.429996 2.221713,-0.186434 3.076799,-1.04914 0.614105,-0.619571 1.007604,-2.056213 0.522618,-2.751559 -0.484986,-0.695345 -0.975062,-0.694725 -1.325276,-0.313556 z"
       id="path1173"
       sodipodi:nodetypes="zssssz" />
    <path
       style="fill:#ff9955;fill-opacity:1;stroke:none;stroke-width:0.140119;stroke-linecap:butt;stroke-linejoin:miter;stroke-miterlimit:4;stroke-dasharray:none;stroke-opacity:1"
       d="m 63.415114,33.122991 c -0.406869,0.319997 -0.573292,1.969344 -1.72241,1.995696 -1.149121,0.02635 -1.709882,1.178629 -1.182848,1.700017 0.527032,0.521387 2.222821,0.172719 3.205337,-0.541486 0.705638,-0.512901 1.324694,-1.867741 0.957653,-2.63194 -0.367042,-0.764198 -0.850858,-0.842276 -1.257732,-0.522287 z"
       id="path1175"
       sodipodi:nodetypes="zssssz" />
    <path
       style="fill:#ff9955;fill-opacity:1;stroke:none;stroke-width:0.140119;stroke-linecap:butt;stroke-linejoin:miter;stroke-miterlimit:4;stroke-dasharray:none;stroke-opacity:1"
       d="m 66.483971,37.822001 c -0.474027,0.207934 -1.048098,1.763084 -2.167216,1.50089 -1.119117,-0.262195 -1.950531,0.712942 -1.570809,1.34972 0.379703,0.636737 2.10878,0.72375 3.238819,0.278287 0.811569,-0.31992 1.750133,-1.476586 1.586116,-2.30834 -0.164019,-0.831755 -0.612876,-1.028484 -1.086908,-0.820553 z"
       id="path1177"
       sodipodi:nodetypes="zssssz" />
    <path
       style="fill:#ff9955;fill-opacity:1;stroke:none;stroke-width:0.140119;stroke-linecap:butt;stroke-linejoin:miter;stroke-miterlimit:4;stroke-dasharray:none;stroke-opacity:1"
       d="m 68.2988,42.477629 c -0.499911,0.134272 -1.301351,1.58539 -2.368304,1.157859 -1.066952,-0.427531 -2.035562,0.411512 -1.755942,1.098113 0.27962,0.686598 1.975937,1.032682 3.160121,0.762247 0.850452,-0.194221 1.952307,-1.196566 1.915255,-2.043527 -0.03706,-0.846963 -0.451219,-1.108961 -0.95113,-0.974692 z"
       id="path1179"
       sodipodi:nodetypes="zssssz" />
    <path
       style="fill:#ff9955;fill-opacity:1;stroke:none;stroke-width:0.140119;stroke-linecap:butt;stroke-linejoin:miter;stroke-miterlimit:4;stroke-dasharray:none;stroke-opacity:1"
       d="m 69.385423,46.600133 c -0.492988,0.077 -1.411085,1.384891 -2.389443,0.864857 -0.978357,-0.520036 -1.993399,0.18392 -1.796387,0.870895 0.197008,0.686935 1.786957,1.193976 2.949821,1.057202 0.83514,-0.09822 1.994759,-0.944954 2.046801,-1.760502 0.05204,-0.815546 -0.317804,-1.109456 -0.810792,-1.032452 z"
       id="path1181"
       sodipodi:nodetypes="zssssz" />
    <path
       style="fill:#ff9955;fill-opacity:1;stroke:none;stroke-width:0.140119;stroke-linecap:butt;stroke-linejoin:miter;stroke-miterlimit:4;stroke-dasharray:none;stroke-opacity:1"
       d="m 69.941735,50.903622 c -0.435256,-0.0042 -1.405905,1.043224 -2.177195,0.425105 -0.771291,-0.618122 -1.742436,-0.132497 -1.667158,0.519593 0.07529,0.652088 1.375195,1.350229 2.395706,1.400831 0.732906,0.03637 1.848217,-0.556932 2.005154,-1.288191 0.156937,-0.731261 -0.12125,-1.053121 -0.556507,-1.057338 z"
       id="path1183"
       sodipodi:nodetypes="zssssz" />
    <path
       style="fill:#ff9955;fill-opacity:1;stroke:none;stroke-width:0.140119;stroke-linecap:butt;stroke-linejoin:miter;stroke-miterlimit:4;stroke-dasharray:none;stroke-opacity:1"
       d="m 69.684864,54.758465 c -0.366432,-0.103416 -1.402291,0.555073 -1.92526,-0.141937 -0.522965,-0.697011 -1.442976,-0.511323 -1.514399,0.05459 -0.07141,0.565882 0.88109,1.451514 1.731807,1.728253 0.610966,0.198749 1.674921,-0.04445 1.958678,-0.623661 0.283758,-0.579204 0.115604,-0.913825 -0.250826,-1.017245 z"
       id="path1185"
       sodipodi:nodetypes="zssssz" />
    <path
       style="fill:#ff9955;fill-opacity:1;stroke:none;stroke-width:0.189005;stroke-linecap:butt;stroke-linejoin:miter;stroke-miterlimit:4;stroke-dasharray:none;stroke-opacity:1"
       d="m 42.509828,14.352654 c 0,0 -1.117264,0.860913 -3.793124,1.021636 -1.374913,0.08258 -4.336789,-0.489883 -5.317901,-0.47813 -0.598658,0.0072 -2.015693,-0.877587 -2.767941,-0.649223 -0.752248,0.228364 1.781026,2.143195 3.240883,2.283433 1.459857,0.140236 14.396142,4.051375 17.213615,5.243493 2.817474,1.192119 17.248188,9.39485 17.597344,8.626513 0.285165,-0.627523 -6.927431,-7.888896 -9.202428,-12.320459 -0.108773,-0.211883 -3.453774,-1.695008 -3.538613,-1.892919 -0.0927,-0.216241 3.41469,1.604872 3.754249,1.565386 0.808211,-0.09398 -0.931268,-1.787459 -0.860754,-2.121323 0.939367,-4.447653 3.267277,-6.9008771 6.977434,-9.0730183 1.493997,-0.8746728 3.134055,-0.090218 3.430638,-0.9650419 0.296582,-0.8748289 -2.862851,-2.1311869 -5.705746,-1.8535941 -2.842898,0.2775928 -8.096052,0.8025597 -11.885337,4.3948002 -0.0589,0.05584 -2.062566,1.3879986 -2.114916,1.7388226 -0.0676,0.4530195 1.253202,1.2910965 0.946828,1.4097225 -0.282514,0.109387 -1.076117,-1.209459 -1.398374,-0.921914 -0.3843,0.342906 1.484473,1.565383 1.344036,1.689505 -0.340063,0.300555 -1.036268,-1.037414 -1.371336,-0.760529 -3.040004,2.512117 -5.264414,2.699927 -6.548557,3.06284 z"
       id="path1187"
       sodipodi:nodetypes="csszszssssssssssssssc" />
    <path
       style="fill:#ff9955;fill-opacity:1;stroke:none;stroke-width:0.140119;stroke-linecap:butt;stroke-linejoin:miter;stroke-miterlimit:4;stroke-dasharray:none;stroke-opacity:1"
       d="m 49.681637,29.999231 c -0.08827,0.261665 -0.307737,2.981919 -1.607894,5.798128 -1.13689,2.462567 -3.344992,5.058122 -3.786954,5.36175 -0.947392,0.650861 -0.217969,0.822738 0.508463,0.970743 0.726431,0.148003 1.386766,0.02765 1.818314,-1.107773 0.309925,-0.815435 3.881079,-8.87379 3.939187,-10.103169 0.07973,-1.686805 -0.705663,-1.410153 -0.871114,-0.91968 z"
       id="path1189"
       sodipodi:nodetypes="sssssss" />
    <path
       style="fill:#ff9955;fill-opacity:1;stroke:none;stroke-width:0.140119;stroke-linecap:butt;stroke-linejoin:miter;stroke-miterlimit:4;stroke-dasharray:none;stroke-opacity:1"
       d="m 52.358472,32.255541 c -0.09605,0.334168 -0.27173,3.797682 -1.718186,7.399472 -1.264817,3.149497 -3.788114,6.484237 -4.299753,6.877089 -1.096743,0.842128 -0.2318,1.049814 0.628893,1.227177 0.860689,0.177366 1.635293,0.01436 2.109278,-1.436396 0.340405,-1.041905 4.303544,-11.345896 4.334525,-12.910562 0.04251,-2.146848 -0.874716,-1.783157 -1.054757,-1.15678 z"
       id="path1191"
       sodipodi:nodetypes="sssssss" />
    <path
       style="fill:#ff9955;fill-opacity:1;stroke:none;stroke-width:0.140119;stroke-linecap:butt;stroke-linejoin:miter;stroke-miterlimit:4;stroke-dasharray:none;stroke-opacity:1"
       d="m 56.923587,36.079698 c -0.02994,0.242843 0.234793,2.684106 -0.376244,5.339514 -0.534306,2.321959 -1.930492,4.889813 -2.245323,5.212114 -0.674872,0.690894 -0.04498,0.756449 0.578525,0.801165 0.623504,0.04472 1.148512,-0.140928 1.318443,-1.200468 0.122038,-0.760937 1.747441,-8.341379 1.593915,-9.439769 -0.210648,-1.507081 -0.813205,-1.167746 -0.869316,-0.712556 z"
       id="path1193"
       sodipodi:nodetypes="sssssss" />
    <path
       style="fill:#ff9955;fill-opacity:1;stroke:none;stroke-width:0.140119;stroke-linecap:butt;stroke-linejoin:miter;stroke-miterlimit:4;stroke-dasharray:none;stroke-opacity:1"
       d="m 46.760204,29.330352 c -0.06499,0.2074 -0.201486,2.371979 -1.171331,4.599905 -0.848057,1.948156 -2.521696,3.989279 -2.8593,4.225823 -0.72369,0.507057 -0.158344,0.652837 0.40441,0.779558 0.562748,0.126721 1.071201,0.03884 1.39068,-0.860526 0.229439,-0.645903 2.889407,-7.02274 2.919374,-8.001487 0.04112,-1.34292 -0.562011,-1.132033 -0.683828,-0.743275 z"
       id="path1195"
       sodipodi:nodetypes="sssssss" />
    <path
       style="fill:#ff9955;fill-opacity:1;stroke:none;stroke-width:0.140119;stroke-linecap:butt;stroke-linejoin:miter;stroke-miterlimit:4;stroke-dasharray:none;stroke-opacity:1"
       d="m 54.878494,33.267704 c -0.02791,0.215546 0.21437,2.370848 -0.352963,4.733556 -0.496091,2.066013 -1.788987,4.367245 -2.080275,4.65893 -0.624408,0.625261 -0.04232,0.670432 0.533901,0.697287 0.576214,0.02685 1.061616,-0.148164 1.219707,-1.089408 0.113537,-0.675976 1.623192,-7.41841 1.482375,-8.387438 -0.193208,-1.329584 -0.750436,-1.016955 -0.802741,-0.61293 z"
       id="path1197"
       sodipodi:nodetypes="sssssss" />
    <path
       style="fill:#ff9955;fill-opacity:1;stroke:none;stroke-width:0.140119;stroke-linecap:butt;stroke-linejoin:miter;stroke-miterlimit:4;stroke-dasharray:none;stroke-opacity:1"
       d="m 68.185049,58.154907 c 5.199973,0.955923 6.48414,3.270735 7.763389,5.208612 1.279248,1.937877 3.234615,2.874086 1.842878,4.162744 -1.391737,1.288657 -9.39689,-0.851988 -9.674646,-3.385688 -0.480619,-4.384233 -0.202511,-3.52373 -1.525936,-0.162851 -1.323523,3.360885 -12.013391,2.061088 -11.352761,-0.07476 0.558111,-1.8044 3.240789,-2.767213 4.634025,-3.65999 1.393236,-0.892777 3.11308,-3.043983 8.313051,-2.088063 z"
       id="path1199"
       sodipodi:nodetypes="szzszszs" />
    <path
       style="fill:#ff9955;fill-opacity:1;stroke:none;stroke-width:0.26458300000000001px;stroke-linecap:butt;stroke-linejoin:miter;stroke-opacity:1"
       d="m 38.040233,40.14534 c 1.074945,0.737286 2.33887,-0.08657 3.690893,0.202434 1.352022,0.288999 1.508929,2.098845 -1.132156,3.600619 -2.641084,1.501776 -4.621956,2.759816 -6.000772,4.744626 -1.408399,2.027383 -1.315765,4.344708 -2.089302,4.115269 -1.866493,-0.553623 1.126778,-4.869405 1.9179,-5.852705 0.630298,-0.783406 3.277941,-2.443182 2.716733,-2.940365 -0.604615,-0.535636 -2.49914,0.914055 -3.506932,2.180651 -1.034577,1.300261 -1.804384,4.515081 -2.815973,3.698358 -1.197545,-0.966859 1.935284,-6.112911 4.390855,-7.25558 1.321299,-0.614851 -0.09643,-0.994334 -2.805707,1.432232 -1.621404,1.452208 -2.472558,3.715363 -3.149468,2.503533 -0.473975,-0.848527 3.340324,-4.822404 4.705782,-5.482106 1.365459,-0.659702 3.003207,-1.684248 4.078149,-0.946962 z"
       id="path2185"
       sodipodi:nodetypes="sssssssssssszss" />
    <rect
       style="fill:#ff9955;fill-opacity:1;stroke:none;stroke-width:0.149547"
       id="rect2205"
       width="1.2928156"
       height="3.2292111"
       x="7.1598988"
       y="33.57568"
       rx="0.64640778"
       ry="0.64640778" />
    <rect
       style="fill:#ff9955;fill-opacity:1;stroke:none;stroke-width:0.100299"
       id="rect2207"
       width="1.1277781"
       height="1.8247831"
       x="3.1837277"
       y="34.476795"
       rx="0.53937209"
       ry="0.53937209" />
    <rect
       style="fill:#ff9955;fill-opacity:1;stroke:none;stroke-width:0.100299"
       id="rect2209"
       width="1.1277781"
       height="1.8247831"
       x="5.6077056"
       y="33.924057"
       rx="0.53937209"
       ry="0.53937209" />
    <rect
       style="fill:#ff9955;fill-opacity:1;stroke:none;stroke-width:0.100299"
       id="rect2211"
       width="1.1277781"
       height="1.8247831"
       x="8.7310877"
       y="33.730034"
       rx="0.53937209"
       ry="0.53937209" />
    <path
       id="rect2213"
       style="fill:#ff9955;fill-opacity:1;stroke:none;stroke-width:0.138034"
       d="m 41.33379,52.255259 c -1.593279,-1.094482 -3.483348,-2.426526 -4.586242,-3.041559 -1.102895,-0.615031 -2.489131,-2.477364 -2.689306,-2.928722 -0.200176,-0.451358 -0.0621,-2.756182 -0.674067,-4.572059 -0.611964,-1.815878 -3.13882,-3.928948 -3.13882,-3.928948 -0.297359,-0.386921 -0.851206,-0.452901 -1.235969,-0.152776 -0.384763,0.300122 -0.453184,0.851439 -0.153109,1.236217 0,0 2.487378,2.020885 3.12985,3.833323 0.642474,1.812438 -0.0096,2.575389 0.641574,3.954512 0.651193,1.379125 1.950645,2.962496 3.059142,3.528959 1.108496,0.566465 3.129699,2.170625 4.307699,3.014402 3.090924,2.213964 2.78837,4.870687 4.922256,7.963078 0.292403,1.092193 -0.348547,1.294772 -0.348547,1.294772 -1.318759,-0.544619 -0.931064,1.730175 -1.869474,2.679366 -0.909275,0.91974 -3.181135,0.46787 -2.227729,2.8134 -0.0017,0.0161 4.511017,8.879874 4.511017,8.879874 0,0 -0.136937,0.557618 -0.07446,0.910808 0.0578,0.326841 0.170152,-0.218501 0.580492,-0.354458 0.439576,-0.145666 0.847209,-0.196554 0.672233,-0.376282 -0.323598,-0.332387 -0.696633,-0.346649 -0.696633,-0.346649 0,0 -1.952718,-5.014063 -3.299878,-8.293121 -0.394031,-0.959092 0.774548,-0.12444 1.628481,-0.3253 0.984757,-0.231633 1.282567,-0.896251 2.305556,-1.335623 0.629104,-0.270196 0.898181,1.517783 1.944442,4.088174 0.568863,1.397558 2.08131,5.965338 2.08131,5.965338 0,0 -0.582153,1.007797 -0.329485,1.639193 0.25267,0.631399 0.552654,-0.3538 1.343049,-0.615717 0.790395,-0.261914 1.695093,0.347121 1.510289,-0.3298 -0.138602,-0.50768 -1.359202,-1.086287 -1.359202,-1.086287 0,0 -1.130352,-3.346433 -1.972678,-6.1472 -0.765864,-2.546524 -1.568763,-4.073447 -0.847416,-4.311348 0.205264,-0.06769 1.257942,0.271574 2.212759,0.09276 0.991798,-0.185742 1.885234,-0.879246 2.009011,-0.365728 0.567022,2.352481 1.650788,6.000753 2.098316,7.969804 0.121221,0.533353 -0.0825,0.637273 -0.01944,1.023295 0.04861,0.297678 0.29557,-0.06302 0.705918,-0.198994 0.468807,-0.155352 0.7223,0.23811 0.549358,-0.281874 -0.02223,-0.06683 -0.49632,-0.334987 -0.626735,-0.750487 -0.884423,-2.817393 -2.083327,-10.058668 -2.083327,-10.058668 -0.692735,-2.621364 -2.160682,-0.506532 -3.211351,-0.622478 -1.324183,-0.146072 -2.250461,-2.004353 -3.094665,-0.83631 0,0 -0.51001,-0.595986 -1.049823,-1.688562 -1.378499,-3.05929 -1.415749,-5.734191 -4.624394,-7.938326 z"
       sodipodi:nodetypes="sssscccssssccsccscscsssscssscssssscsscccccss" />
  </g>
</svg>
