<?xml version="1.0" encoding="UTF-8" standalone="no"?>
<svg
   xmlns:dc="http://purl.org/dc/elements/1.1/"
   xmlns:cc="http://creativecommons.org/ns#"
   xmlns:rdf="http://www.w3.org/1999/02/22-rdf-syntax-ns#"
   xmlns:svg="http://www.w3.org/2000/svg"
   xmlns="http://www.w3.org/2000/svg"
   xmlns:sodipodi="http://sodipodi.sourceforge.net/DTD/sodipodi-0.dtd"
   xmlns:inkscape="http://www.inkscape.org/namespaces/inkscape"
   id="Layer_1"
   data-name="Layer 1"
   viewBox="0 0 960 960"
   version="1.1"
   sodipodi:docname="GreaterTreesLesserTurtles_NoDoc.svg"
   inkscape:version="0.92.4 5da689c313, 2019-01-14">
  <metadata
     id="metadata27">
    <rdf:RDF>
      <cc:Work
         rdf:about="">
        <dc:format>image/svg+xml</dc:format>
        <dc:type
           rdf:resource="http://purl.org/dc/dcmitype/StillImage" />
        <dc:title>GTLT-001</dc:title>
      </cc:Work>
    </rdf:RDF>
  </metadata>
  <sodipodi:namedview
     pagecolor="#ffffff"
     bordercolor="#666666"
     borderopacity="1"
     objecttolerance="10"
     gridtolerance="10"
     guidetolerance="10"
     inkscape:pageopacity="0"
     inkscape:pageshadow="2"
     inkscape:window-width="1386"
     inkscape:window-height="833"
     id="namedview25"
     showgrid="false"
     inkscape:zoom="0.63541667"
     inkscape:cx="525.44621"
     inkscape:cy="469.21133"
     inkscape:window-x="54"
     inkscape:window-y="30"
     inkscape:window-maximized="1"
     inkscape:current-layer="Layer_1" />
  <defs
     id="defs4">
    <style
       id="style2">
      .cls-1 {
        fill: #e72626;
      }

      .cls-2 {
        fill: #7bb880;
      }
    </style>
  </defs>
  <title
     id="title6">GTLT-001</title>
  <path
     class="cls-1"
     d="m 683.23709,642.90527 0,-100.79053 c 0,-19.83717 16.08121,-23.60413 35.91838,-23.60413 h 20.05708 c 29.29617,0 35.91838,-11.08397 35.91838,-30.92114 v -5.459 c 0,-18.16793 -4.39656,-35.91838 -35.91838,-35.91838 H 522.58777 c -24.38043,0 -35.91838,16.08121 -35.91838,35.91838 v 5.91176 c 0,20.70414 10.39025,28.33746 18.34295,30.46838 l -0.4368,12.23061 -39.68765,-7.23335 c -28.68466,-5.22798 -60.81318,-5.84682 -59.98987,-34.99238 0.74016,-34.1711 2.14584,-89.72694 2.47453,-123.90378 0,-0.73469 0.41528,-4.20908 -2.9051,-4.20908 -2.73888,0 -3.94019,-11.83694 0.45523,-11.87979 l 88.08787,-0.66137 c 3.98157,-0.0299 3.09324,15.92609 -0.087,15.91408 -2.32832,0 -5.11481,0.99547 -5.11481,7.66748 0.35388,17.90705 -3.73243,50.97037 35.87083,50.97037 h 215.533 c 19.83719,10e-6 35.9184,-16.08121 35.9184,-35.9184 v -1.18879 c 0,-19.83717 -16.08121,-35.91838 -35.91838,-35.91838 H 636.69033 C 616.85318,349.3878 600.772,333.30662 600.772,313.46947 V 86.42883 c 0,-34.88252 -44.70932,-49.29137 -65.07758,-20.97311 L 191.69186,543.727 c -17.09051,23.76115 -0.10987,56.89149 29.15919,56.89149 h 321.7938 c 19.83717,-10e-6 35.91838,16.0812 35.91838,35.91837 v 6.36837 c 0,19.83717 16.08121,35.91838 35.91838,35.91838 h 32.8371 c 19.83716,0 35.91836,-16.08118 35.91838,-35.91834 z"
     id="path8"
     inkscape:connector-curvature="0"
     style="fill:#e72626"
     sodipodi:nodetypes="csssssssssccsccscsccssssscssssssssssc" />
  <rect
     class="cls-2"
     x="184.86907"
     y="625.78532"
     width="367.07487"
     height="53.03833"
     id="rect10" />
  <rect
     class="cls-2"
     x="184.86907"
     y="700.51182"
     width="590.26186"
     height="53.03833"
     id="rect12" />
  <rect
     class="cls-2"
     x="184.86907"
     y="775.23833"
     width="590.26186"
     height="53.03833"
     id="rect14" />
  <rect
     class="cls-2"
     x="710.57389"
     y="625.78532"
     width="64.55704"
     height="53.03833"
     id="rect16" />
  <rect
     class="cls-2"
     x="184.86907"
     y="849.96483"
     width="65.54687"
     height="53.03833"
     id="rect18" />
  <rect
     class="cls-2"
     x="274.01379"
     y="849.96483"
     width="410.52463"
     height="53.03833"
     id="rect20" />
  <rect
     class="cls-2"
     x="710.57389"
     y="849.96483"
     width="64.55704"
     height="53.03833"
     id="rect22" />
  <rect
     id="rect842"
     height="53.03833"
     width="410.52463"
     y="849.96483"
     x="274.01379"
     class="cls-2" />
</svg>
