<?xml version="1.0" encoding="UTF-8" standalone="no"?>
<svg
   xmlns:dc="http://purl.org/dc/elements/1.1/"
   xmlns:cc="http://creativecommons.org/ns#"
   xmlns:rdf="http://www.w3.org/1999/02/22-rdf-syntax-ns#"
   xmlns:svg="http://www.w3.org/2000/svg"
   xmlns="http://www.w3.org/2000/svg"
   xmlns:sodipodi="http://sodipodi.sourceforge.net/DTD/sodipodi-0.dtd"
   xmlns:inkscape="http://www.inkscape.org/namespaces/inkscape"
   inkscape:version="1.0 (4035a4f, 2020-05-01)"
   sodipodi:docname="portrait-tommy_20200123.svg"
   id="svg108"
   xml:space="preserve"
   style="enable-background:new 0 0 300 300;"
   viewBox="0 0 300 300"
   y="0px"
   x="0px"
   version="1.1"><metadata
   id="metadata114"><rdf:RDF><cc:Work
       rdf:about=""><dc:format>image/svg+xml</dc:format><dc:type
         rdf:resource="http://purl.org/dc/dcmitype/StillImage" /></cc:Work></rdf:RDF></metadata><defs
   id="defs112"><inkscape:path-effect
     lpeversion="0"
     apply_no_weight="true"
     apply_with_weight="true"
     effect="bspline"
     helper_size="0"
     id="path-effect5085"
     is_visible="true"
     only_selected="false"
     steps="2"
     weight="33.333333" /><inkscape:path-effect
     lpeversion="0"
     apply_no_weight="true"
     apply_with_weight="true"
     effect="bspline"
     helper_size="0"
     id="path-effect5081"
     is_visible="true"
     only_selected="false"
     steps="2"
     weight="33.333333" /><inkscape:path-effect
     lpeversion="0"
     apply_no_weight="true"
     apply_with_weight="true"
     effect="bspline"
     helper_size="0"
     id="path-effect5077"
     is_visible="true"
     only_selected="false"
     steps="2"
     weight="33.333333" /><inkscape:path-effect
     lpeversion="0"
     apply_no_weight="true"
     apply_with_weight="true"
     effect="bspline"
     helper_size="0"
     id="path-effect5069"
     is_visible="true"
     only_selected="false"
     steps="2"
     weight="33.333333" /><inkscape:path-effect
     lpeversion="0"
     apply_no_weight="true"
     apply_with_weight="true"
     effect="bspline"
     helper_size="0"
     id="path-effect5065"
     is_visible="true"
     only_selected="false"
     steps="2"
     weight="33.333333" /><inkscape:path-effect
     lpeversion="0"
     apply_no_weight="true"
     apply_with_weight="true"
     effect="bspline"
     helper_size="0"
     id="path-effect5054"
     is_visible="true"
     only_selected="false"
     steps="2"
     weight="33.333333" /><inkscape:path-effect
     lpeversion="0"
     apply_no_weight="true"
     apply_with_weight="true"
     effect="bspline"
     helper_size="0"
     id="path-effect5050"
     is_visible="true"
     only_selected="false"
     steps="2"
     weight="33.333333" /><inkscape:path-effect
     lpeversion="0"
     apply_no_weight="true"
     apply_with_weight="true"
     effect="bspline"
     helper_size="0"
     id="path-effect5046"
     is_visible="true"
     only_selected="false"
     steps="2"
     weight="33.333333" /><inkscape:path-effect
     lpeversion="0"
     apply_no_weight="true"
     apply_with_weight="true"
     effect="bspline"
     helper_size="0"
     id="path-effect12"
     is_visible="true"
     only_selected="false"
     steps="2"
     weight="33.333333" /></defs><sodipodi:namedview
   inkscape:current-layer="layer1"
   inkscape:window-maximized="0"
   inkscape:window-y="23"
   inkscape:window-x="0"
   inkscape:cy="150"
   inkscape:cx="150"
   inkscape:zoom="2.1566667"
   showgrid="false"
   id="namedview110"
   inkscape:window-height="855"
   inkscape:window-width="1440"
   inkscape:pageshadow="2"
   inkscape:pageopacity="0"
   guidetolerance="10"
   gridtolerance="10"
   objecttolerance="10"
   borderopacity="1"
   bordercolor="#666666"
   pagecolor="#ffffff" />
<style
   id="style10"
   type="text/css">
	.st0{fill:#8AB290;}
	.st1{fill:#6F9E74;}
	.st2{fill:#FFD6AE;}
	.st3{fill:#FFBC92;}
	.st4{fill:#FFCC95;}
	.st5{fill:#0055D4;stroke:#FFFFFF;stroke-width:10.3227;stroke-linecap:round;stroke-linejoin:round;stroke-miterlimit:31.2586;}
	
		.st6{fill-rule:evenodd;clip-rule:evenodd;fill:#0055D4;stroke:#00CED4;stroke-width:0.827;stroke-linecap:round;stroke-miterlimit:31.2586;}
	.st7{fill:#F4A67A;}
	.st8{fill:#F2B368;}
	.st9{fill:none;stroke:#FFBC92;stroke-width:0.172;stroke-linecap:round;}
	.st10{opacity:0.77;fill:#D38E5F;}
	.st11{opacity:0.4;fill:#BF853A;enable-background:new    ;}
	.st12{opacity:0.77;fill:#B75818;}
	.st13{opacity:0.77;fill:#CEA395;}
	.st14{opacity:0.58;fill:#A58772;}
	.st15{opacity:0.78;fill:#C9C9E2;}
	.st16{opacity:0.56;fill:#91674A;}
	.st17{opacity:0.56;fill:#B25618;}
	.st18{opacity:0.56;fill:#C9C9E2;}
	.st19{opacity:0.69;enable-background:new    ;}
	
		.st20{opacity:0.63;fill:none;stroke:#E897CD;stroke-width:5;stroke-linecap:round;stroke-linejoin:round;stroke-miterlimit:15.1181;}
	.st21{fill:#FFC950;}
</style>




<g
   sodipodi:insensitive="true"
   style="display:inline"
   inkscape:label="Background"
   id="layer2"
   inkscape:groupmode="layer"><g
     id="Background"><defs
       id="defs21"><inkscape:path-effect
         lpeversion="0"
         apply_no_weight="true"
         apply_with_weight="true"
         effect="bspline"
         helper_size="0"
         id="path-effect167"
         is_visible="true"
         only_selected="false"
         steps="2"
         weight="33.333333" /><inkscape:path-effect
         lpeversion="0"
         apply_no_weight="true"
         apply_with_weight="true"
         effect="bspline"
         helper_size="0"
         id="path-effect169"
         is_visible="true"
         only_selected="false"
         steps="2"
         weight="33.333333" /><inkscape:path-effect
         lpeversion="0"
         apply_no_weight="true"
         apply_with_weight="true"
         effect="bspline"
         helper_size="0"
         id="path-effect171"
         is_visible="true"
         only_selected="false"
         steps="2"
         weight="33.333333" /><inkscape:path-effect
         lpeversion="0"
         apply_no_weight="true"
         apply_with_weight="true"
         effect="bspline"
         helper_size="0"
         id="path-effect173"
         is_visible="true"
         only_selected="false"
         steps="2"
         weight="33.333333" /><inkscape:path-effect
         lpeversion="0"
         apply_no_weight="true"
         apply_with_weight="true"
         effect="bspline"
         helper_size="0"
         id="path-effect175"
         is_visible="true"
         only_selected="false"
         steps="2"
         weight="33.333333" /><inkscape:path-effect
         lpeversion="0"
         apply_no_weight="true"
         apply_with_weight="true"
         effect="bspline"
         helper_size="0"
         id="path-effect177"
         is_visible="true"
         only_selected="false"
         steps="2"
         weight="33.333333" /><inkscape:path-effect
         lpeversion="0"
         apply_no_weight="true"
         apply_with_weight="true"
         effect="bspline"
         helper_size="0"
         id="path-effect179"
         is_visible="true"
         only_selected="false"
         steps="2"
         weight="33.333333" /><inkscape:path-effect
         lpeversion="0"
         apply_no_weight="true"
         apply_with_weight="true"
         effect="bspline"
         helper_size="0"
         id="path-effect181"
         is_visible="true"
         only_selected="false"
         steps="2"
         weight="33.333333" /><inkscape:path-effect
         lpeversion="0"
         apply_no_weight="true"
         apply_with_weight="true"
         effect="bspline"
         helper_size="0"
         id="path-effect183"
         is_visible="true"
         only_selected="false"
         steps="2"
         weight="33.333333" /></defs><sodipodi:namedview
       bordercolor="#666666"
       borderopacity="1.0"
       id="base"
       inkscape:current-layer="layer3"
       inkscape:cx="150"
       inkscape:cy="148.88003"
       inkscape:document-units="px"
       inkscape:pageopacity="0.0"
       inkscape:pageshadow="2"
       inkscape:showpageshadow="false"
       inkscape:window-height="833"
       inkscape:window-maximized="1"
       inkscape:window-width="1386"
       inkscape:window-x="54"
       inkscape:window-y="30"
       inkscape:zoom="2.0366667"
       pagecolor="#ffffff"
       showgrid="false"
       units="px" /><circle
       class="st0"
       cx="150"
       cy="150"
       r="147.2"
       id="circle24" /><circle
       class="st1"
       cx="153.10001"
       cy="147.5"
       r="141"
       id="circle26" /></g></g><g
   sodipodi:insensitive="true"
   style="display:inline"
   inkscape:label="Face"
   id="layer1"
   inkscape:groupmode="layer"><path
     id="path10_1_"
     inkscape:connector-curvature="0"
     sodipodi:nodetypes="ccccccccccccccc"
     class="st2"
     d="m 75.161915,145.49828 c 0.622141,22.0172 1.242347,44.03425 1.860764,66.05711 11.206412,14.62921 23.747231,31.00267 33.614111,43.88716 4.08579,1.04318 8.82331,2.25416 13.91489,3.55674 7.66147,1.60422 13.83134,2.89706 20.92713,4.38491 7.56779,-1.16228 14.67795,-2.25358 22.3136,-3.42482 5.02513,-3.21404 9.8319,-6.28815 14.67504,-9.38517 8.49707,-6.43126 17.16137,-12.98891 25.73902,-19.48081 3.10241,-27.59641 6.20445,-55.20456 9.30382,-82.80398 -2.16883,-10.85548 -4.33989,-21.71074 -6.51267,-32.56328 1.24225,-14.2659 2.48291,-28.533665 3.72152,-42.797559 -8.99049,-10.234629 -17.98548,-20.470331 -26.98106,-30.702668 -27.28895,-0.0018 -54.58049,-0.0018 -81.87358,0 -9.922859,12.404063 -19.846238,24.808341 -29.772203,37.215339 -0.308312,22.020778 -0.618345,44.036108 -0.930382,66.057028 z"
     style="display:inline;fill:#ffd6ae;stroke-width:7.16174" /><path
     style="display:inline;fill:#ffbc92"
     id="path5026"
     inkscape:connector-curvature="0"
     class="st3"
     d="m 225.8,129.3 c 4.9,0 8.9,7.3 8.9,16.3 0,7 -2.4,13.2 -6.1,15.4 0.3,1.5 0.4,3.1 0.4,4.7 0,7.2 -2.9,13 -6.6,13 -3.6,0 -6.6,-5.8 -6.6,-13 0,-4.1 1,-8 2.7,-10.5 -1.1,-2.8 -1.7,-6.2 -1.7,-9.6 0.1,-9 4.1,-16.3 9,-16.3 z" /><path
     style="display:inline;fill:#ffbc92"
     id="path4995"
     inkscape:connector-curvature="0"
     class="st3"
     d="m 64.8,131.5 c -5.2,0 -9.4,7.7 -9.4,17.2 0,7.4 2.6,13.9 6.4,16.3 -0.3,1.6 -0.5,3.2 -0.5,4.9 0,7.6 3.1,13.7 6.9,13.7 3.8,0 6.9,-6.2 6.9,-13.7 0,-4.4 -1.1,-8.5 -2.8,-11 1.2,-2.9 1.8,-6.5 1.8,-10.1 0.1,-9.6 -4.1,-17.3 -9.3,-17.3 z" /><path
     id="path10"
     inkscape:connector-curvature="0"
     sodipodi:nodetypes="ccccccccccccccc"
     class="st4"
     d="m 79.617836,153.10172 c -1.825676,20.66766 -3.653229,41.33499 -5.483175,62.00755 9.353847,14.87325 19.821249,31.51966 28.056579,44.61875 3.88482,1.40795 8.38916,3.04181 13.23003,4.79879 7.32356,2.31085 13.22119,4.17269 20.00378,6.31487 7.53776,-0.28772 14.61965,-0.5574 22.22483,-0.84632 5.27528,-2.47634 10.32129,-4.8448 15.40547,-7.23086 9.03024,-5.11977 18.23818,-10.34014 27.35403,-15.50817 6.08917,-25.49457 12.17929,-51.00018 18.26582,-76.49791 -0.92294,-10.3869 -1.84807,-20.77385 -2.7752,-31.15842 2.79382,-13.21757 5.5863,-26.43707 8.37633,-39.653156 C 216.60601,89.419891 208.9314,78.891458 201.25583,68.366111 174.53881,65.480149 147.81906,62.595671 121.09758,59.712787 110.01092,70.270746 98.923711,80.828849 87.833673,91.389228 85.096642,111.9619 82.358529,132.52931 79.617836,153.10172 Z"
     style="display:inline;fill:#ffcc95;stroke-width:6.89837" /><circle
     style="display:inline;fill:#ffffff;stroke:none;stroke-width:10.3227;stroke-linecap:round;stroke-linejoin:round;stroke-miterlimit:31.2586"
     r="10.751649"
     cy="142.33243"
     cx="106.74164"
     class="st5"
     id="path5032" /><circle
     style="display:inline;fill:#ffffff;stroke:none;stroke-width:10.3227;stroke-linecap:round;stroke-linejoin:round;stroke-miterlimit:31.2586"
     r="10.751649"
     cy="142.33243"
     cx="186.56236"
     class="st5"
     id="circle5038" /><g
     style="display:inline"
     id="path5044"
     inkscape:connector-curvature="0"
     inkscape:original-d="m 27.735895,267.76739 c 0.249716,-0.84217 0.499168,-1.68407 0.748355,-2.5257 0.545735,-0.21845 1.091615,-0.43681 1.637025,-0.65481"><path
       class="st7"
       d="m 106.62479,222.20846 c 0.0708,-0.78668 0.33944,-3.76917 1.02738,-6.55376 0.68794,-2.78459 1.9503,-5.79956 3.57311,-8.25509 1.62281,-2.45552 3.79041,-4.68775 6.06514,-6.51819 2.27474,-1.83045 4.81232,-3.40789 6.17643,-4.11431 1.3641,-0.70641 1.41315,-0.72711 1.40411,-0.71939 -0.009,0.008 -0.009,0.008 -1.15725,0.97246 -1.14823,0.96474 -3.47375,2.88622 -5.4691,4.90192 -1.99535,2.0157 -3.81447,4.26682 -5.15741,6.55745 -1.34294,2.29063 -2.3896,4.89774 -3.39504,7.64043 -1.00544,2.7427 -1.95357,5.59387 -2.49824,7.02305 -0.54467,1.42919 -0.57178,1.49201 -0.5733,1.4833 -0.002,-0.009 -0.003,-0.0494 -0.0349,-0.84032 -0.0318,-0.79087 -0.0317,-0.79087 0.0391,-1.57755 z"
       id="path39" /></g><g
     style="display:inline"
     id="path5044_3_"
     inkscape:connector-curvature="0"
     inkscape:original-d="m 27.735895,267.76739 c 0.249716,-0.84217 0.499168,-1.68407 0.748355,-2.5257 0.545735,-0.21845 1.091615,-0.43681 1.637025,-0.65481"><path
       class="st8"
       d="m 180.19707,219.51205 c -0.63403,0.46991 -3.09002,2.29015 -5.7351,3.8905 -2.64509,1.60036 -5.42437,2.94324 -8.24983,4.01842 -2.82546,1.07518 -5.71876,1.89872 -8.58736,2.55056 -2.8686,0.65184 -5.73862,1.14349 -7.88253,1.48015 -2.1439,0.33666 -3.64193,0.55062 -4.34338,0.63698 -0.70145,0.0864 -5.12651,0.5443 -6.84326,0.54507 -1.71676,7.7e-4 -4.81372,-0.31342 -9.29672,-0.96337 -4.48301,-0.64994 -10.20904,-1.73224 -13.07994,-2.31956 -2.87091,-0.58732 -2.87091,-0.58732 -2.89778,-0.61465 -0.0269,-0.0273 -0.12942,-0.27842 -0.14095,-0.34095 -0.0115,-0.0625 0.16284,-0.10033 1.66676,-0.2815 1.50392,-0.18117 4.49773,-0.2639 7.49506,-0.32926 2.99733,-0.0654 5.89682,-0.11169 8.73092,-0.25662 2.83409,-0.14493 5.71539,-0.39395 6.86951,-0.59348 1.15411,-0.19952 9.69486,-2.44451 11.10463,-2.80739 1.40978,-0.36289 4.35177,-1.10418 7.1398,-1.72002 2.78804,-0.61584 5.66164,-1.1624 8.45116,-1.6717 2.78952,-0.5093 5.59096,-0.99947 8.3875,-1.51104 2.79654,-0.51156 5.62881,-1.05225 7.249,-1.23491 1.62019,-0.18265 1.87898,-0.19177 1.88763,-0.18765 0.009,0.004 -0.14813,0.15325 -0.7196,0.69686 -0.57148,0.5436 -0.57148,0.54365 -1.20552,1.01356 z"
       id="path42" /></g><g
     style="display:inline"
     id="path5048"
     inkscape:connector-curvature="0"
     inkscape:original-d="m 27.735895,267.76739 c 0.249716,-0.84217 0.499168,-1.68407 0.748355,-2.5257 0.545735,-0.21845 1.091615,-0.43681 1.637025,-0.65481"><path
       class="st7"
       d="m 184.04071,216.57153 c -0.74577,-1.60165 -2.10384,-4.77543 -3.47281,-7.91988 -1.36898,-3.14445 -2.69393,-6.13621 -4.33977,-8.83783 -1.64584,-2.70161 -3.754,-5.31561 -6.06573,-7.45935 -2.31172,-2.14373 -5.12802,-4.0899 -6.58136,-5.07786 -1.45333,-0.98796 -1.51794,-1.03116 -1.52949,-1.03889 -0.0115,-0.008 0.032,0.007 1.63472,0.70816 1.60268,0.70077 4.6029,2.30546 7.2465,4.31018 2.64359,2.00472 5.23565,4.71802 7.13814,7.51909 1.90249,2.80108 3.39696,6.04794 4.44406,9.24286 1.0471,3.19493 1.74177,6.57192 2.00779,8.3205 0.26601,1.74857 0.271,1.79876 0.27724,1.86149 -0.27073,-0.53697 -0.0135,-0.0268 -0.75929,-1.62847 z"
       id="path45" /></g><g
     style="display:inline"
     id="path5075"
     inkscape:connector-curvature="0"
     inkscape:original-d="m 27.735895,267.76739 c 0.249716,-0.84217 0.499168,-1.68407 0.748355,-2.5257 0.545735,-0.21845 1.091615,-0.43681 1.637025,-0.65481"><path
       class="st7"
       d="m 104.20696,213.98626 c -0.093,-0.41375 -0.25458,-1.22144 -0.30277,-1.99793 -0.0482,-0.77649 0.0122,-1.5719 0.2974,-2.62606 0.2852,-1.05416 1.08262,-2.69522 2.02304,-3.97414 0.94041,-1.27892 2.18037,-2.44448 3.43823,-3.34769 1.25785,-0.9032 2.59752,-1.62179 3.32207,-1.90228 0.72454,-0.28049 0.79039,-0.29699 0.78252,-0.28689 -0.008,0.0101 -0.008,0.0101 -0.58708,0.57987 -0.5792,0.56977 -1.67745,1.58561 -2.64306,2.66625 -0.96562,1.08063 -1.80627,2.2252 -2.39963,3.32035 -0.59336,1.09516 -1.09931,2.43617 -1.4908,3.42873 -0.3915,0.99255 -0.68146,1.69669 -1.01418,2.3969 -0.33272,0.7002 -0.71662,1.40892 -0.96947,1.73305 -0.25286,0.32412 -0.30804,0.37385 -0.36323,0.42358 -0.0343,-0.13725 0,0 -0.093,-0.41374 z"
       id="path50" /></g><g
     style="display:inline"
     id="path5075_1_"
     inkscape:connector-curvature="0"
     inkscape:original-d="m 27.735895,267.76739 c 0.249716,-0.84217 0.499168,-1.68407 0.748355,-2.5257 0.545735,-0.21845 1.091615,-0.43681 1.637025,-0.65481"><path
       class="st7"
       d="m 151.12312,118.51246 c -0.39578,-0.3633 -1.15871,-1.1869 -1.64185,-1.99772 -0.48314,-0.81082 -0.83645,-1.86118 -0.96346,-2.87189 -0.12701,-1.01071 -0.039,-2.21145 0.16354,-3.19206 0.20253,-0.98061 0.52361,-1.90949 0.75764,-2.40795 0.23403,-0.49845 0.15661,-0.3711 0.26101,-0.54284 0,0 0.1,0.1 0.1,0.1 -0.0995,0.99894 -0.20026,2.01104 -0.20171,2.99329 -0.001,0.98226 0.086,1.88256 0.28633,2.75456 0.2003,0.872 0.50726,1.70396 0.81077,2.60585 0.3035,0.90189 0.5793,1.80714 0.71696,2.37672 0.13765,0.56958 0.13765,0.56958 0.1221,0.55746 -0.0156,-0.0121 -0.0156,-0.0121 -0.41133,-0.37542 z"
       id="path53" /></g><g
     style="display:inline"
     id="path5075_3_"
     inkscape:connector-curvature="0"
     inkscape:original-d="m 27.735895,267.76739 c 0.249716,-0.84217 0.499168,-1.68407 0.748355,-2.5257 0.545735,-0.21845 1.091615,-0.43681 1.637025,-0.65481"><path
       class="st7"
       d="m 139.64155,110.06117 c 0.37196,0.53675 1.0339,1.65307 1.46855,2.75522 0.43465,1.10215 0.7099,2.36519 0.76638,3.59498 0.0565,1.22979 -0.11627,2.63325 -0.42305,3.80495 -0.30678,1.1717 -0.7801,2.32769 -1.03342,2.90568 -0.25331,0.578 -0.28668,0.578 -0.32001,0.578 0.006,-0.0321 0.0184,-0.0965 0.12875,-0.70429 0.11036,-0.6078 0.32402,-1.84625 0.40523,-3.01517 0.0812,-1.16893 0.0452,-2.27074 -0.10902,-3.39093 -0.15424,-1.12018 -0.44679,-2.31406 -0.68612,-3.46646 -0.23933,-1.1524 -0.4462,-2.36348 -0.51752,-2.99332 C 139.25,109.5 139.25,109.5 139.2598,109.51221 c 0.01,0.0122 0.01,0.0122 0.38175,0.54896 z"
       id="path56" /></g><g
     style="display:inline"
     id="Hair"
     transform="matrix(0.95964498,0,0,1.0259167,2.0312725,-4.3236814)"><path
       id="path62"
       d="m 109.7,220.3 c -3.8,3.7 -6.4,6.2 -6.5,10 0,0.8 -0.1,3.2 1.1,4.5 2.1,2.1 5.5,-1.3 13.4,-3.9 4.3,-1.4 7.4,-2.4 11.4,-2 4.9,0.5 5.8,2.6 9.5,2 4.1,-0.6 4.1,-3.2 8.8,-4.9 4.7,-1.6 5.5,0.6 12.9,-0.3 4.2,-0.5 3.9,-1.2 9.7,-2 3.5,-0.5 6,-0.8 9.3,-0.4 3.6,0.4 4.5,1.3 4.9,0.7 1.5,-2.3 -7.2,-19.7 -17.1,-19.5 -4.5,0.1 -5.5,3.7 -15.5,6.7 -2.6,0.8 -5.2,1.5 -8.7,1.7 -6.1,0.3 -7.2,-1.5 -13.5,-1.4 -2.6,0.1 -6.1,0.2 -10.4,2 -4.3,1.9 -7,4.6 -9.3,6.8 z"
       class="st10" /><path
       d="m 79.2,130.1 14.2,-8.9 45.8,-4.4 -15.7,11.9 z"
       class="st11"
       sodipodi:nodetypes="ccccc"
       inkscape:connector-curvature="0"
       id="path5071_1_" /><path
       d="m 151.1,111.6 13,11.6 44.8,12.6 -14.2,-15 z"
       class="st11"
       sodipodi:nodetypes="ccccc"
       inkscape:connector-curvature="0"
       id="path5073_1_" /><path
       id="path66"
       d="m 111,217.3 c -3.8,3.7 -6.4,6.2 -6.5,10 0,0.8 -0.1,3.2 1.1,4.5 2.1,2.1 5.5,-1.3 13.4,-3.9 4.3,-1.4 7.4,-2.4 11.4,-2 4.9,0.5 5.8,2.6 9.5,2 4.1,-0.6 4.1,-3.2 8.8,-4.9 4.7,-1.6 5.5,0.6 12.9,-0.3 4.2,-0.5 3.9,-1.2 9.7,-2 3.5,-0.5 6,-0.8 9.3,-0.4 3.6,0.4 4.5,1.3 4.9,0.7 1.5,-2.3 -7.2,-19.7 -17.1,-19.5 -4.5,0.1 -5.5,3.7 -15.5,6.7 -2.6,0.8 -5.2,1.5 -8.7,1.7 -6.1,0.3 -7.2,-1.5 -13.5,-1.4 -2.6,0.1 -6.1,0.2 -10.4,2 -4.2,1.9 -6.9,4.5 -9.3,6.8 z"
       class="st12" /><path
       id="path68"
       d="m 172.5,204.9 c -0.1,-0.1 -0.1,-0.1 -0.2,-0.2 -0.1,-0.1 -0.3,-0.2 -0.4,-0.3 -0.2,-0.1 -0.3,-0.2 -0.5,-0.2 -0.1,0 -0.1,0 -0.2,-0.1 -0.4,-0.1 -0.8,-0.2 -1.2,-0.3 0,0 -0.1,0 -0.1,0 -0.2,0 -0.5,0 -0.7,0 -0.5,0 -0.9,0 -1.4,0.1 0.1,0 0.2,0 0.3,0 0.2,0 0.3,0 0,0 -0.1,0 -0.2,0 -0.3,0 -0.2,0 -0.4,0.1 -0.7,0.2 -0.1,0 -0.2,0 -0.3,0.1 0,0 0,0 -0.1,0 -0.1,0 -0.2,0.1 -0.3,0.1 -0.1,0.1 -0.2,0.1 -0.4,0.2 -0.2,0.3 -0.4,0.5 -0.6,0.7 -0.1,0.5 -0.1,1.1 -0.3,1.6 -0.4,1.7 -0.3,2.8 -0.4,6 -0.2,5.5 -0.6,5.8 -0.3,8.3 0,0.3 0,0.7 -0.1,1.1 2,-0.5 4.1,-1.2 6.1,-1.6 1.5,-0.3 3,-0.6 4.5,-0.7 0.1,-4.2 -0.9,-10.8 -2.2,-14.9 -0.1,0.1 -0.1,0 -0.2,-0.1 z"
       class="st13" /><path
       id="path70"
       d="m 128.1,209.5 c -0.4,0.1 -0.8,0.2 -1.1,0.3 -0.1,0.3 -0.2,0.6 -0.3,1 -0.1,0.3 -0.2,1.1 -0.3,2.1 -0.1,1.2 -0.1,2 -0.1,4.2 0,3.8 -0.2,4.1 -0.1,5.8 0,0.8 0.1,2.1 0.3,3 1.1,-0.1 2.3,-0.1 3.4,0.1 0.3,-2.4 -0.9,-12.8 -1.6,-15.8 0,-0.2 -0.1,-0.5 -0.2,-0.7 z"
       class="st13" /><path
       id="path72"
       d="m 124.2,210.7 c -0.5,0.2 -1,0.4 -1.4,0.6 -0.1,0.4 -0.3,1.1 -0.5,2.1 -0.3,1.3 -0.3,2.1 -0.7,4.5 -0.6,4.1 -0.7,4.3 -0.9,6.2 -0.1,0.9 -0.2,2.4 -0.1,3.3 1,-0.4 2,-0.7 3,-0.9 0,0 0.1,0 0.1,0 0.4,-3.9 0.6,-12.9 0.5,-15.8 0,0 0,0 0,0 z"
       class="st13" /><path
       id="path74"
       d="m 229.8,163.4 c -0.7,1.2 -2.8,1.3 -4,1.1 -2.9,-0.4 -4.7,-3 -7.9,-7.7 -1.2,-1.7 -1.8,-2.5 -1.9,-3.2 -0.9,-4 3.6,-6.1 5,-10.8 1.2,-3.9 -1.1,-5 -3.2,-13.9 -2.5,-10.7 0.1,-12.4 -2.9,-17.4 -3,-5.1 -5.8,-3.6 -10.2,-9.8 -3.9,-5.5 -4.8,-11.2 -5.1,-13.1 -0.7,-5 0.7,-5 0.4,-12 -0.4,-7.4 -2,-9.4 -0.4,-12.3 1.6,-2.8 5.2,-4.6 8.4,-4.4 1.9,0.1 3.6,1 9.1,6.6 5.6,5.7 8.4,8.6 9.4,10.9 3,6.6 -0.7,8.7 1.5,17.4 2.2,9.1 6.6,8.5 6.9,15.3 0.3,7 -4.4,8.5 -4.4,18.2 0,3.1 0.5,4.5 0,8 -0.7,4.8 -2.1,5.2 -2.9,9.8 -0.4,2.4 -1.1,6.4 0.4,10.9 1.1,3.2 2.7,5 1.8,6.4 z"
       class="st14" /><path
       id="path76"
       d="m 61.7,147.4 c 0.2,5.3 -1.4,8.7 0.4,10 0.4,0.3 1.2,0.7 7.8,-1.9 4.6,-1.8 7,-2.8 7.7,-4.1 1.4,-2.7 -1,-4.8 -1.7,-10.5 -0.7,-5.5 1.2,-6.2 1.5,-13.6 0.4,-7.8 -1.6,-8.6 -1.2,-14.9 0.4,-6.7 10.4,-7.8 12.5,-11.7 5.5,-9.9 1.7,-12 8.3,-22 6,-9.1 6.7,8.4 12.6,4.5 5.2,-3.5 10.8,-3.5 12.3,-3.4 7.9,0.1 13.2,-9.8 20.6,-8.1 10.1,2.2 16.4,11.8 28.8,12.3 7.1,0.3 7.5,4.3 15.4,8 11.8,5.4 41.1,-6 46.7,-7.3 5.9,-1.3 -10.9,-10.8 -4.1,-12.3 6.9,-1.5 -4.9,-2.3 0.1,-4.7 4.1,-2 6.8,-7.6 6.3,-12.2 -0.4,-4.4 -3.4,-5.8 -11.5,-14.1 -10.4,-10.7 -9.3,-12.3 -14.9,-15.7 -2.5,-1.5 -10.4,-6.2 -19,-4.2 -8.2,2 -7.6,7.9 -16,11.1 -4.5,1.7 -12.1,0.8 -27.1,-1.1 -6,-0.8 -10.3,-1.5 -15.2,0.8 -4.5,2.1 -3.9,4.1 -7.8,6.1 -7.1,3.6 -11.6,-1.8 -24.5,-0.8 -6.4,0.5 -10.7,2.3 -12.3,3.1 -3.8,1.8 -11.2,5.1 -12.3,11.1 -0.8,4.6 3,5.8 3.7,13 0.1,1.1 -12.3,2.2 -16.3,8.1 -4.1,6 4.6,9.9 -0.4,15.9 -0.4,0.4 -6.6,8.1 -5.2,16.8 0.9,5.8 4.4,6.8 4.1,11.8 -0.3,5.3 -4.3,5.5 -5.2,10.7 -1.3,7 5.5,9.1 5.9,19.3 z"
       class="st14" /><path
       id="path78"
       d="m 232.9,157.8 c -0.8,1.2 -2.8,1.3 -4,1.1 -2.9,-0.4 -4.7,-3 -7.9,-7.7 -1.2,-1.7 -1.8,-2.5 -1.9,-3.2 -0.9,-4 3.6,-6.1 5,-10.8 1.2,-3.9 -1.1,-5 -3.2,-13.9 -2.5,-10.7 0.1,-12.4 -2.9,-17.4 -3,-5.1 -5.8,-3.6 -10.2,-9.8 -3.9,-5.5 -4.8,-11.2 -5.1,-13.1 -0.7,-5 0.7,-5 0.4,-12 -0.4,-7.4 -2,-9.4 -0.4,-12.3 1.6,-2.8 5.2,-4.6 8.4,-4.4 1.9,0.1 3.6,1 9.1,6.6 5.6,5.7 8.4,8.6 9.4,10.9 3,6.6 -0.7,8.7 1.5,17.4 2.2,9.1 6.6,8.5 6.9,15.3 0.3,7 -4.4,8.5 -4.4,18.2 0,3.1 0.5,4.5 0,8 -0.7,4.8 -2.1,5.2 -2.9,9.8 -0.4,2.4 -1.1,6.4 0.4,10.9 1,3.1 2.7,4.9 1.8,6.4 z"
       class="st15" /><path
       id="path80"
       d="m 64.8,141.7 c 0.2,5.3 -1.4,8.7 0.4,10 0.4,0.3 1.2,0.7 7.8,-1.9 4.6,-1.8 7,-2.8 7.7,-4.1 1.4,-2.7 -1,-4.8 -1.7,-10.5 -0.7,-5.5 1.2,-6.2 1.5,-13.6 0.4,-7.8 -1.6,-8.6 -1.2,-14.9 0.4,-6.7 10.4,-7.8 12.5,-11.7 5.5,-9.9 1.7,-12 8.3,-22 6,-9.1 6.7,8.4 12.6,4.5 5.2,-3.5 10.8,-3.5 12.3,-3.5 7.9,0.1 13.2,-9.8 20.6,-8.1 10.1,2.2 16.4,11.8 28.8,12.3 7.1,0.3 7.5,4.3 15.4,8 11.8,5.4 41.1,-6 46.7,-7.3 5.9,-1.3 -10.9,-10.8 -4.1,-12.3 6.9,-1.5 -4.9,-2.3 0.1,-4.7 4.1,-2 6.8,-7.6 6.3,-12.2 -0.4,-4.4 -3.4,-5.8 -11.5,-14.1 -10.4,-10.7 -9.3,-12.3 -14.9,-15.7 -2.5,-1.5 -10.4,-6.2 -19,-4.2 -8.2,2 -7.6,7.9 -16,11.1 -4.5,1.7 -12.1,0.8 -27.1,-1.1 -6,-0.8 -10.3,-1.5 -15.2,0.8 -4.5,2.1 -3.9,4.1 -7.8,6.1 -7.1,3.6 -11.6,-1.8 -24.5,-0.8 -6.5,0.4 -10.8,2.2 -12.4,3 -3.8,1.8 -11.2,5.1 -12.3,11.1 -0.8,4.6 3,5.8 3.7,13 0.1,1.1 -12.3,2.2 -16.3,8.1 -4.1,6 4.6,9.9 -0.4,15.9 -0.4,0.4 -6.6,8.1 -5.2,16.8 0.9,5.8 4.4,6.8 4.1,11.8 -0.3,5.3 -4.3,5.5 -5.2,10.7 -1.3,7.2 5.5,9.3 6,19.5 z"
       class="st15" /><path
       id="path82"
       d="m 56.4,141.7 c 0.2,5.3 -1.4,8.7 0.4,10 0.4,0.3 1.2,0.7 7.8,-1.9 4.6,-1.8 7,-2.8 7.7,-4.1 1.4,-2.7 -1,-4.8 -1.7,-10.5 -0.7,-5.5 1.2,-6.2 1.5,-13.6 0.4,-7.8 -1.6,-8.6 -1.2,-14.9 0.4,-6.7 10.4,-7.8 12.5,-11.7 5.5,-9.9 1.7,-12 8.3,-22 6,-9.1 6.7,8.4 12.6,4.5 5.2,-3.5 10.8,-3.5 12.3,-3.4 7.9,0.1 13.2,-9.8 20.6,-8.1 10.1,2.2 16.4,11.8 28.8,12.3 7.1,0.3 7.5,4.3 15.4,8 11.8,5.4 41.1,-6 46.7,-7.3 5.9,-1.3 -10.9,-10.8 -4.1,-12.3 6.9,-1.5 -4.9,-2.3 0.1,-4.7 4.1,-2 6.8,-7.6 6.3,-12.2 C 230,45.4 227,44 218.9,35.7 208.5,25 209.6,23.4 204,20 c -2.5,-1.5 -10.4,-6.2 -19,-4.2 -8.2,2 -7.6,7.9 -16,11.1 -4.5,1.7 -12.1,0.8 -27.1,-1.1 -6,-0.8 -10.3,-1.5 -15.2,0.8 -4.5,2.1 -3.9,4.1 -7.8,6.1 -7.1,3.6 -11.6,-1.8 -24.5,-0.8 -6.4,0.5 -10.7,2.3 -12.3,3.1 -3.8,1.8 -11.2,5.1 -12.3,11.1 -0.8,4.6 3,5.8 3.7,13 0.1,1.1 -12.3,2.2 -16.3,8.1 -4.1,6 4.6,9.9 -0.4,15.9 -0.4,0.4 -6.6,8.1 -5.2,16.8 0.9,5.8 4.4,6.8 4.1,11.8 -0.3,5.3 -4.3,5.5 -5.2,10.7 -1.3,7 5.5,9.1 5.9,19.3 z"
       class="st15" /><path
       id="path84"
       d="m 66,163.8 c -0.1,-5.1 6.1,-11 10.1,-9.8 3.5,1 4.4,7.4 5.2,13 1.6,11.1 -0.8,15.1 -0.7,23.3 0,4.7 0.8,5.6 14.9,37.4 5,11.4 7,15.8 10.7,16.3 4.9,0.6 6.9,-6.2 15.6,-8.7 5.1,-1.4 5.7,0.5 16.3,1.1 8.2,0.4 16.2,0.9 25,-2.5 7,-2.7 7.9,-5.4 12.5,-5.1 7,0.4 8.8,6.6 14.2,6.2 6.5,-0.5 10.7,-9.9 12.1,-13.1 3.1,-6.9 1.5,-9.1 4.5,-25.1 2,-10.8 2.7,-9.8 3.1,-15.3 0.7,-10.3 -1.8,-16 1.4,-18.5 2.3,-1.8 5.9,-0.8 8,0.4 5.6,3.2 6.1,11.7 6.3,15.6 0.5,8.9 -2.5,10 -3.5,21.2 -1.1,11.1 1.7,11.6 0,19.8 -1.9,9.3 -5.5,9.2 -8,19.2 -2.4,9.8 0.7,11.4 -2.1,18.2 -2.5,6.2 -6.9,9.4 -15.3,15.6 -7.5,5.5 -12,8.8 -18.7,9.8 -7.2,1 -8.2,-1.9 -15.6,-0.7 -8.1,1.3 -8.6,5 -17,7.3 -2.1,0.6 -12,3 -21.8,-1.1 -8.4,-3.5 -7.6,-7.8 -17,-12 -8.6,-3.8 -11,-0.9 -15.6,-4.7 -4.9,-4 -3.4,-8.1 -8.7,-20.7 -5.1,-12.4 -7.7,-11.1 -9.7,-19.2 -2.5,-10 1.4,-11.5 -0.7,-24 -2,-11.7 -5.5,-11.6 -4.9,-19.2 0.7,-7.8 4.8,-12 2.4,-18.2 -1.1,-3.2 -2.9,-3.8 -3,-6.5 z"
       class="st16" /><path
       id="path86"
       d="m 69.1,161.6 c -0.1,-5.1 6.1,-11 10.1,-9.8 3.5,1 4.4,7.4 5.2,13 1.6,11.1 -0.8,15.1 -0.7,23.3 0,4.7 0.8,5.6 14.9,37.4 5,11.4 7,15.8 10.7,16.3 4.9,0.6 6.9,-6.2 15.6,-8.7 5.1,-1.4 5.7,0.5 16.3,1.1 8.2,0.4 16.2,0.9 25,-2.5 7,-2.7 7.9,-5.4 12.5,-5.1 7,0.4 8.8,6.6 14.2,6.2 6.5,-0.5 10.7,-9.9 12.1,-13.1 3.1,-6.9 1.5,-9.1 4.5,-25.1 2,-10.8 2.7,-9.8 3.1,-15.3 0.7,-10.3 -1.8,-16 1.4,-18.5 2.3,-1.8 5.9,-0.8 8,0.4 5.6,3.2 6.1,11.7 6.3,15.6 0.5,8.9 -2.5,10 -3.5,21.2 -1.1,11.1 1.7,11.6 0,19.8 -1.9,9.3 -5.5,9.2 -8,19.2 -2.4,9.8 0.7,11.4 -2.1,18.2 -2.5,6.2 -6.9,9.4 -15.3,15.6 -7.5,5.5 -12,8.8 -18.7,9.8 -7.2,1 -8.2,-1.9 -15.6,-0.7 -8.1,1.3 -8.6,5 -17,7.3 -2.1,0.6 -12,3 -21.8,-1.1 -8.4,-3.5 -7.6,-7.8 -17,-12 -8.6,-3.8 -11,-0.9 -15.6,-4.7 -4.9,-4 -3.4,-8.1 -8.7,-20.7 -5.1,-12.4 -7.7,-11.1 -9.7,-19.2 -2.5,-10 1.4,-11.5 -0.7,-24 -2,-11.7 -5.5,-11.6 -4.9,-19.2 0.7,-7.8 4.8,-12 2.4,-18.2 -1.1,-3.3 -3,-3.8 -3,-6.5 z"
       class="st17" /><path
       id="path88"
       d="m 178.4,279.3 c 1.8,-0.3 3.4,-0.7 5,-1.3 0.2,-3.4 0,-7.1 -0.1,-10.5 -0.2,-5.2 0.2,-10.4 0.6,-15.6 0.5,-6.2 1.2,-12.7 0.2,-18.9 -0.4,-2.4 -1.4,-4.5 -2.7,-6.4 -1.4,-0.8 -3,-1.4 -5,-1.6 -4.6,-0.3 -5.5,2.4 -12.5,5.1 -8.7,3.4 -16.8,3 -25,2.5 -10.6,-0.6 -11.2,-2.5 -16.3,-1.1 -4.6,1.3 -7.3,3.8 -9.6,5.8 0.1,0.4 0.1,0.9 0,1.4 -1.6,4.6 -3,9.3 -3.5,14.2 -0.8,7.1 -0.3,14.4 0.8,21.4 6.1,3.6 6.5,7.3 13.7,10.3 9.9,4.1 19.7,1.7 21.8,1.1 8.4,-2.3 8.9,-6 17,-7.3 7.4,-1 8.4,2 15.6,0.9 z"
       class="st18" /><path
       id="path90"
       d="m 180.8,284.3 c 1.8,-0.3 3.4,-0.7 5,-1.3 0.2,-3.4 0,-7.1 -0.1,-10.5 -0.2,-5.2 0.2,-10.4 0.6,-15.6 0.5,-6.2 1.2,-12.7 0.2,-18.9 -0.4,-2.4 -1.4,-4.5 -2.7,-6.4 -1.4,-0.8 -3,-1.4 -5,-1.6 -4.6,-0.3 -5.5,2.4 -12.5,5.1 -8.7,3.4 -16.8,3 -25,2.5 -10.6,-0.6 -11.2,-2.5 -16.3,-1.1 -4.6,1.3 -7.3,3.8 -9.6,5.8 0.1,0.4 0.1,0.9 0,1.4 -1.6,4.6 -3,9.3 -3.5,14.2 -0.8,7.1 -0.3,14.4 0.8,21.4 6.1,3.6 6.5,7.3 13.7,10.3 9.9,4.1 19.7,1.7 21.8,1.1 8.4,-2.3 8.9,-6 17,-7.3 7.4,-1 8.4,1.9 15.6,0.9 z"
       class="st18" /></g><g
     style="display:inline"
     id="Accessories"><circle
       r="0.69999999"
       cy="77.099998"
       cx="145.7"
       class="st19"
       id="path4993" /><g
       transform="matrix(2.8572867,0,0,2.8572867,-53.828861,-85.918036)"
       id="g4945"><ellipse
         ry="3.9000001"
         rx="4.1999998"
         cy="98.199997"
         cx="70.400002"
         class="st3"
         id="path4907" /><ellipse
         ry="1.7"
         rx="3"
         cy="97.900002"
         cx="66.900002"
         class="st3"
         transform="matrix(0.2833,-0.959,0.959,0.2833,-45.9538,134.3189)"
         id="ellipse4909" /><ellipse
         ry="3.0999999"
         rx="1.6"
         cy="98.199997"
         cx="73.900002"
         class="st3"
         transform="matrix(0.99,-0.141,0.141,0.99,-13.1116,11.4057)"
         id="ellipse4911" /><path
         d="m 69.5,79.8 1.7,1.7 1,8.3 1.2,8.6 H 67.7 L 69,85.9 Z"
         class="st3"
         sodipodi:nodetypes="ccccccc"
         inkscape:connector-curvature="0"
         id="rect4913" /></g><g
       id="g105"><path
         id="path99"
         d="m 204.3,129.7 h -36.6 c -3.9,0 -7.8,8.3 -9.7,11.5 V 139 h -22.9 v 2.9 c -1.7,-3.6 -5.7,-12.3 -10,-12.3 H 88.5 c -6,0 -11.8,4.9 -10.8,10.8 l 4.7,28.1 c 1,5.9 4.8,10.7 10.8,10.8 l 28.2,0.5 c 6,0.1 10,-4.9 10.8,-10.8 l 3.3,-25 4.2,-2.8 4.6,-1.5 h 4.6 l 4.6,1.5 4.1,2.8 4.1,24.5 c 1,5.9 4.8,10.7 10.8,10.8 l 28.2,0.5 c 6,0.1 10,-4.9 10.8,-10.8 l 3.7,-28.6 c 0.6,-5.9 -5,-10.7 -10.9,-10.7 z"
         class="st20" /><polygon
         id="polygon101"
         points="215.9,139.6 216.2,138.9 215.9,138.3 215.1,138.3 214.7,138.9 215.1,139.6 "
         class="st21" /><polygon
         id="polygon103"
         points="78,139.3 78.4,138.7 78,138 77.2,138 76.8,138.7 77.2,139.3 "
         class="st21" /></g></g></g></svg>
