<?xml version="1.0" encoding="UTF-8" standalone="no"?>
<svg
   xmlns:dc="http://purl.org/dc/elements/1.1/"
   xmlns:cc="http://creativecommons.org/ns#"
   xmlns:rdf="http://www.w3.org/1999/02/22-rdf-syntax-ns#"
   xmlns:svg="http://www.w3.org/2000/svg"
   xmlns="http://www.w3.org/2000/svg"
   xmlns:sodipodi="http://sodipodi.sourceforge.net/DTD/sodipodi-0.dtd"
   xmlns:inkscape="http://www.inkscape.org/namespaces/inkscape"
   width="300"
   height="300"
   viewBox="0 0 79.374998 79.375002"
   version="1.1"
   id="svg5160"
   inkscape:version="1.0.1 (c497b03c, 2020-09-10)"
   sodipodi:docname="objet_plants_pineapple_00.svg">
  <defs
     id="defs5154" />
  <sodipodi:namedview
     id="base"
     pagecolor="#ffffff"
     bordercolor="#666666"
     borderopacity="1.0"
     inkscape:pageopacity="0.0"
     inkscape:pageshadow="2"
     inkscape:zoom="2.07"
     inkscape:cx="150"
     inkscape:cy="150"
     inkscape:document-units="px"
     inkscape:current-layer="layer1"
     inkscape:document-rotation="0"
     showgrid="false"
     units="px"
     inkscape:pagecheckerboard="true"
     inkscape:showpageshadow="false"
     inkscape:window-width="1440"
     inkscape:window-height="829"
     inkscape:window-x="0"
     inkscape:window-y="23"
     inkscape:window-maximized="0" />
  <metadata
     id="metadata5157">
    <rdf:RDF>
      <cc:Work
         rdf:about="">
        <dc:format>image/svg+xml</dc:format>
        <dc:type
           rdf:resource="http://purl.org/dc/dcmitype/StillImage" />
        <dc:title></dc:title>
      </cc:Work>
    </rdf:RDF>
  </metadata>
  <g
     inkscape:label="Layer 1"
     inkscape:groupmode="layer"
     id="layer1">
    <g
       id="g4103"
       style="display:inline"
       transform="matrix(3.1684739,0,0,3.1684739,150.41376,-43.040568)">
      <ellipse
         style="fill:none;fill-opacity:1;stroke:#00bbac;stroke-width:0.197213;stroke-linecap:round;stroke-linejoin:round;stroke-miterlimit:4;stroke-dasharray:none"
         id="ellipse2123"
         cx="-23.102425"
         cy="-35.885277"
         rx="1.0452228"
         ry="0.36134949"
         transform="matrix(-0.00410911,-0.99999156,0.99900567,-0.04458326,0,0)" />
      <path
         style="fill:#000000;fill-opacity:0;stroke:#00bbac;stroke-width:0.264583;stroke-linecap:round;stroke-linejoin:round;stroke-miterlimit:4;stroke-dasharray:none;stroke-opacity:1"
         d="m -40.552243,21.192015 c 0,0 1.911287,0.722786 2.346309,2.346312 0.435023,1.623523 1.675937,1.388631 1.771706,0.239419 0.09577,-1.149214 -0.957678,-2.20266 -4.118015,-2.585731 z"
         id="path1230" />
      <path
         style="fill:#000000;fill-opacity:0;stroke:#00bbac;stroke-width:0.264583;stroke-linecap:round;stroke-linejoin:round;stroke-miterlimit:4;stroke-dasharray:none;stroke-opacity:1"
         d="m -40.425903,17.374855 c 0,0 2.101044,1.382266 2.322207,3.980926 0.221164,2.598659 2.045755,2.819822 2.156334,1.548137 0.110581,-1.271684 -0.774068,-2.819823 -4.478541,-5.529063 z"
         id="path1232" />
      <path
         style="fill:#000000;fill-opacity:0;stroke:#00bbac;stroke-width:0.264583;stroke-linecap:round;stroke-linejoin:round;stroke-miterlimit:4;stroke-dasharray:none;stroke-opacity:1"
         d="m -29.339901,17.626376 c 0,0 -2.611525,1.140179 -3.35737,3.999556 -0.745845,2.859374 -2.825762,2.756062 -2.705109,1.314787 0.120651,-1.441275 1.405713,-3.000197 6.062479,-5.314343 z"
         id="path1236" />
      <path
         style="fill:#000000;fill-opacity:0;stroke:#00bbac;stroke-width:0.264583;stroke-linecap:round;stroke-linejoin:round;stroke-miterlimit:4;stroke-dasharray:none;stroke-opacity:1"
         d="m -30.269849,22.037997 c 0,0 -2.024643,0.276143 -2.812389,1.760912 -0.787747,1.484765 -1.944475,0.977792 -1.780304,-0.163658 0.164171,-1.141452 1.42688,-1.932064 4.592693,-1.597254 z"
         id="path1238" />
      <path
         style="fill:#000000;fill-opacity:0;stroke:#00bbac;stroke-width:0.264583;stroke-linecap:round;stroke-linejoin:round;stroke-miterlimit:4;stroke-dasharray:none;stroke-opacity:1"
         d="m -33.05864,14.570853 c 0,0 -2.342319,2.280563 -1.244223,5.107345 1.098095,2.82678 -1.472772,3.77473 -2.332978,2.477125 -0.860208,-1.297605 -0.403539,-3.276575 3.577201,-7.58447 z"
         id="path1240" />
      <g
         id="g3657"
         transform="translate(4.2350876,-6.7270579)">
        <path
           style="fill:#fff292;fill-opacity:1;stroke:none;stroke-width:0.0633669;stroke-linecap:round;stroke-linejoin:round;stroke-miterlimit:4;stroke-dasharray:none;stroke-opacity:1"
           d="m -39.997964,32.81569 c 0.286074,0 0.882685,0.710386 0.882685,0.882686 0,0.1723 -0.694132,0.882685 -0.882685,0.882685 -0.188553,0 -0.882686,-0.710385 -0.882686,-0.882685 0,-0.1723 0.596612,-0.882686 0.882686,-0.882686 z"
           id="path3537"
           sodipodi:nodetypes="zzzzz" />
        <path
           style="fill:#000000;fill-opacity:0;stroke:#ffbf20;stroke-width:0.0633669;stroke-linecap:round;stroke-linejoin:round;stroke-miterlimit:4;stroke-dasharray:none;stroke-opacity:1"
           d="m -39.999664,33.456122 0.120442,0.502198 0.326002,-0.05575 -0.446445,0.446444 -0.446443,-0.446444 0.326003,0.05575 z"
           id="path3535" />
      </g>
      <g
         id="g3663"
         transform="translate(5.5456807,-5.6808049)">
        <path
           style="fill:#fff292;fill-opacity:1;stroke:none;stroke-width:0.0633669;stroke-linecap:round;stroke-linejoin:round;stroke-miterlimit:4;stroke-dasharray:none;stroke-opacity:1"
           d="m -39.997964,32.81569 c 0.286074,0 0.882685,0.710386 0.882685,0.882686 0,0.1723 -0.694132,0.882685 -0.882685,0.882685 -0.188553,0 -0.882686,-0.710385 -0.882686,-0.882685 0,-0.1723 0.596612,-0.882686 0.882686,-0.882686 z"
           id="path3659"
           sodipodi:nodetypes="zzzzz" />
        <path
           style="fill:#000000;fill-opacity:0;stroke:#ffbf20;stroke-width:0.0633669;stroke-linecap:round;stroke-linejoin:round;stroke-miterlimit:4;stroke-dasharray:none;stroke-opacity:1"
           d="m -39.999664,33.456122 0.120442,0.502198 0.326002,-0.05575 -0.446445,0.446444 -0.446443,-0.446444 0.326003,0.05575 z"
           id="path3661" />
      </g>
      <g
         id="g3669"
         transform="translate(4.259282,-4.5588286)">
        <path
           style="fill:#fff292;fill-opacity:1;stroke:none;stroke-width:0.0633669;stroke-linecap:round;stroke-linejoin:round;stroke-miterlimit:4;stroke-dasharray:none;stroke-opacity:1"
           d="m -39.997964,32.81569 c 0.286074,0 0.882685,0.710386 0.882685,0.882686 0,0.1723 -0.694132,0.882685 -0.882685,0.882685 -0.188553,0 -0.882686,-0.710385 -0.882686,-0.882685 0,-0.1723 0.596612,-0.882686 0.882686,-0.882686 z"
           id="path3665"
           sodipodi:nodetypes="zzzzz" />
        <path
           style="fill:#000000;fill-opacity:0;stroke:#ffbf20;stroke-width:0.0633669;stroke-linecap:round;stroke-linejoin:round;stroke-miterlimit:4;stroke-dasharray:none;stroke-opacity:1"
           d="m -39.999664,33.456122 0.120442,0.502198 0.326002,-0.05575 -0.446445,0.446444 -0.446443,-0.446444 0.326003,0.05575 z"
           id="path3667" />
      </g>
      <g
         id="g3675"
         transform="translate(2.9998392,-5.5958771)">
        <path
           style="fill:#fff292;fill-opacity:1;stroke:none;stroke-width:0.0633669;stroke-linecap:round;stroke-linejoin:round;stroke-miterlimit:4;stroke-dasharray:none;stroke-opacity:1"
           d="m -39.997964,32.81569 c 0.286074,0 0.882685,0.710386 0.882685,0.882686 0,0.1723 -0.694132,0.882685 -0.882685,0.882685 -0.188553,0 -0.882686,-0.710385 -0.882686,-0.882685 0,-0.1723 0.596612,-0.882686 0.882686,-0.882686 z"
           id="path3671"
           sodipodi:nodetypes="zzzzz" />
        <path
           style="fill:#000000;fill-opacity:0;stroke:#ffbf20;stroke-width:0.0633669;stroke-linecap:round;stroke-linejoin:round;stroke-miterlimit:4;stroke-dasharray:none;stroke-opacity:1"
           d="m -39.999664,33.456122 0.120442,0.502198 0.326002,-0.05575 -0.446445,0.446444 -0.446443,-0.446444 0.326003,0.05575 z"
           id="path3673" />
      </g>
      <g
         id="g3681"
         transform="translate(5.6093214,-3.5396877)">
        <path
           style="fill:#fff292;fill-opacity:1;stroke:none;stroke-width:0.0633669;stroke-linecap:round;stroke-linejoin:round;stroke-miterlimit:4;stroke-dasharray:none;stroke-opacity:1"
           d="m -39.997964,32.81569 c 0.286074,0 0.882685,0.710386 0.882685,0.882686 0,0.1723 -0.694132,0.882685 -0.882685,0.882685 -0.188553,0 -0.882686,-0.710385 -0.882686,-0.882685 0,-0.1723 0.596612,-0.882686 0.882686,-0.882686 z"
           id="path3677"
           sodipodi:nodetypes="zzzzz" />
        <path
           style="fill:#000000;fill-opacity:0;stroke:#ffbf20;stroke-width:0.0633669;stroke-linecap:round;stroke-linejoin:round;stroke-miterlimit:4;stroke-dasharray:none;stroke-opacity:1"
           d="m -39.999664,33.456122 0.120442,0.502198 0.326002,-0.05575 -0.446445,0.446444 -0.446443,-0.446444 0.326003,0.05575 z"
           id="path3679" />
      </g>
      <g
         id="g3687"
         transform="translate(4.3417114,-2.4714564)">
        <path
           style="fill:#fff292;fill-opacity:1;stroke:none;stroke-width:0.0633669;stroke-linecap:round;stroke-linejoin:round;stroke-miterlimit:4;stroke-dasharray:none;stroke-opacity:1"
           d="m -39.997964,32.81569 c 0.286074,0 0.882685,0.710386 0.882685,0.882686 0,0.1723 -0.694132,0.882685 -0.882685,0.882685 -0.188553,0 -0.882686,-0.710385 -0.882686,-0.882685 0,-0.1723 0.596612,-0.882686 0.882686,-0.882686 z"
           id="path3683"
           sodipodi:nodetypes="zzzzz" />
        <path
           style="fill:#000000;fill-opacity:0;stroke:#ffbf20;stroke-width:0.0633669;stroke-linecap:round;stroke-linejoin:round;stroke-miterlimit:4;stroke-dasharray:none;stroke-opacity:1"
           d="m -39.999664,33.456122 0.120442,0.502198 0.326002,-0.05575 -0.446445,0.446444 -0.446443,-0.446444 0.326003,0.05575 z"
           id="path3685" />
      </g>
      <g
         id="g3693"
         transform="translate(3.0575613,-3.4444548)">
        <path
           style="fill:#fff292;fill-opacity:1;stroke:none;stroke-width:0.0633669;stroke-linecap:round;stroke-linejoin:round;stroke-miterlimit:4;stroke-dasharray:none;stroke-opacity:1"
           d="m -39.997964,32.81569 c 0.286074,0 0.882685,0.710386 0.882685,0.882686 0,0.1723 -0.694132,0.882685 -0.882685,0.882685 -0.188553,0 -0.882686,-0.710385 -0.882686,-0.882685 0,-0.1723 0.596612,-0.882686 0.882686,-0.882686 z"
           id="path3689"
           sodipodi:nodetypes="zzzzz" />
        <path
           style="fill:#000000;fill-opacity:0;stroke:#ffbf20;stroke-width:0.0633669;stroke-linecap:round;stroke-linejoin:round;stroke-miterlimit:4;stroke-dasharray:none;stroke-opacity:1"
           d="m -39.999664,33.456122 0.120442,0.502198 0.326002,-0.05575 -0.446445,0.446444 -0.446443,-0.446444 0.326003,0.05575 z"
           id="path3691" />
      </g>
      <g
         id="g3699"
         transform="translate(5.6628748,-1.4182012)">
        <path
           style="fill:#fff292;fill-opacity:1;stroke:none;stroke-width:0.0633669;stroke-linecap:round;stroke-linejoin:round;stroke-miterlimit:4;stroke-dasharray:none;stroke-opacity:1"
           d="m -39.997964,32.81569 c 0.286074,0 0.882685,0.710386 0.882685,0.882686 0,0.1723 -0.694132,0.882685 -0.882685,0.882685 -0.188553,0 -0.882686,-0.710385 -0.882686,-0.882685 0,-0.1723 0.596612,-0.882686 0.882686,-0.882686 z"
           id="path3695"
           sodipodi:nodetypes="zzzzz" />
        <path
           style="fill:#000000;fill-opacity:0;stroke:#ffbf20;stroke-width:0.0633669;stroke-linecap:round;stroke-linejoin:round;stroke-miterlimit:4;stroke-dasharray:none;stroke-opacity:1"
           d="m -39.999664,33.456122 0.120442,0.502198 0.326002,-0.05575 -0.446445,0.446444 -0.446443,-0.446444 0.326003,0.05575 z"
           id="path3697" />
      </g>
      <g
         id="g3705"
         transform="translate(4.3855883,-0.29000059)">
        <path
           style="fill:#fff292;fill-opacity:1;stroke:none;stroke-width:0.0633669;stroke-linecap:round;stroke-linejoin:round;stroke-miterlimit:4;stroke-dasharray:none;stroke-opacity:1"
           d="m -39.997964,32.81569 c 0.286074,0 0.882685,0.710386 0.882685,0.882686 0,0.1723 -0.694132,0.882685 -0.882685,0.882685 -0.188553,0 -0.882686,-0.710385 -0.882686,-0.882685 0,-0.1723 0.596612,-0.882686 0.882686,-0.882686 z"
           id="path3701"
           sodipodi:nodetypes="zzzzz" />
        <path
           style="fill:#000000;fill-opacity:0;stroke:#ffbf20;stroke-width:0.0633669;stroke-linecap:round;stroke-linejoin:round;stroke-miterlimit:4;stroke-dasharray:none;stroke-opacity:1"
           d="m -39.999664,33.456122 0.120442,0.502198 0.326002,-0.05575 -0.446445,0.446444 -0.446443,-0.446444 0.326003,0.05575 z"
           id="path3703" />
      </g>
      <g
         id="g3711"
         transform="translate(3.1113466,-1.3357524)">
        <path
           style="fill:#fff292;fill-opacity:1;stroke:none;stroke-width:0.0633669;stroke-linecap:round;stroke-linejoin:round;stroke-miterlimit:4;stroke-dasharray:none;stroke-opacity:1"
           d="m -39.997964,32.81569 c 0.286074,0 0.882685,0.710386 0.882685,0.882686 0,0.1723 -0.694132,0.882685 -0.882685,0.882685 -0.188553,0 -0.882686,-0.710385 -0.882686,-0.882685 0,-0.1723 0.596612,-0.882686 0.882686,-0.882686 z"
           id="path3707"
           sodipodi:nodetypes="zzzzz" />
        <path
           style="fill:#000000;fill-opacity:0;stroke:#ffbf20;stroke-width:0.0633669;stroke-linecap:round;stroke-linejoin:round;stroke-miterlimit:4;stroke-dasharray:none;stroke-opacity:1"
           d="m -39.999664,33.456122 0.120442,0.502198 0.326002,-0.05575 -0.446445,0.446444 -0.446443,-0.446444 0.326003,0.05575 z"
           id="path3709" />
      </g>
      <g
         id="g3717"
         transform="translate(5.6967533,0.83488052)">
        <path
           style="fill:#fff292;fill-opacity:1;stroke:none;stroke-width:0.0633669;stroke-linecap:round;stroke-linejoin:round;stroke-miterlimit:4;stroke-dasharray:none;stroke-opacity:1"
           d="m -39.997964,32.81569 c 0.286074,0 0.882685,0.710386 0.882685,0.882686 0,0.1723 -0.694132,0.882685 -0.882685,0.882685 -0.188553,0 -0.882686,-0.710385 -0.882686,-0.882685 0,-0.1723 0.596612,-0.882686 0.882686,-0.882686 z"
           id="path3713"
           sodipodi:nodetypes="zzzzz" />
        <path
           style="fill:#000000;fill-opacity:0;stroke:#ffbf20;stroke-width:0.0633669;stroke-linecap:round;stroke-linejoin:round;stroke-miterlimit:4;stroke-dasharray:none;stroke-opacity:1"
           d="m -39.999664,33.456122 0.120442,0.502198 0.326002,-0.05575 -0.446445,0.446444 -0.446443,-0.446444 0.326003,0.05575 z"
           id="path3715" />
      </g>
      <g
         id="g3723"
         transform="translate(4.4051873,1.8721734)">
        <path
           style="fill:#fff292;fill-opacity:1;stroke:none;stroke-width:0.0633669;stroke-linecap:round;stroke-linejoin:round;stroke-miterlimit:4;stroke-dasharray:none;stroke-opacity:1"
           d="m -39.997964,32.81569 c 0.286074,0 0.882685,0.710386 0.882685,0.882686 0,0.1723 -0.694132,0.882685 -0.882685,0.882685 -0.188553,0 -0.882686,-0.710385 -0.882686,-0.882685 0,-0.1723 0.596612,-0.882686 0.882686,-0.882686 z"
           id="path3719"
           sodipodi:nodetypes="zzzzz" />
        <path
           style="fill:#000000;fill-opacity:0;stroke:#ffbf20;stroke-width:0.0633669;stroke-linecap:round;stroke-linejoin:round;stroke-miterlimit:4;stroke-dasharray:none;stroke-opacity:1"
           d="m -39.999664,33.456122 0.120442,0.502198 0.326002,-0.05575 -0.446445,0.446444 -0.446443,-0.446444 0.326003,0.05575 z"
           id="path3721" />
      </g>
      <g
         id="g3729"
         transform="translate(3.1331098,0.84520777)">
        <path
           style="fill:#fff292;fill-opacity:1;stroke:none;stroke-width:0.0633669;stroke-linecap:round;stroke-linejoin:round;stroke-miterlimit:4;stroke-dasharray:none;stroke-opacity:1"
           d="m -39.997964,32.81569 c 0.286074,0 0.882685,0.710386 0.882685,0.882686 0,0.1723 -0.694132,0.882685 -0.882685,0.882685 -0.188553,0 -0.882686,-0.710385 -0.882686,-0.882685 0,-0.1723 0.596612,-0.882686 0.882686,-0.882686 z"
           id="path3725"
           sodipodi:nodetypes="zzzzz" />
        <path
           style="fill:#000000;fill-opacity:0;stroke:#ffbf20;stroke-width:0.0633669;stroke-linecap:round;stroke-linejoin:round;stroke-miterlimit:4;stroke-dasharray:none;stroke-opacity:1"
           d="m -39.999664,33.456122 0.120442,0.502198 0.326002,-0.05575 -0.446445,0.446444 -0.446443,-0.446444 0.326003,0.05575 z"
           id="path3727" />
      </g>
      <g
         id="g3735"
         transform="translate(6.9648465,-0.39710764)">
        <path
           style="fill:#fff292;fill-opacity:1;stroke:none;stroke-width:0.0633669;stroke-linecap:round;stroke-linejoin:round;stroke-miterlimit:4;stroke-dasharray:none;stroke-opacity:1"
           d="m -39.997964,32.81569 c 0.286074,0 0.882685,0.710386 0.882685,0.882686 0,0.1723 -0.694132,0.882685 -0.882685,0.882685 -0.188553,0 -0.882686,-0.710385 -0.882686,-0.882685 0,-0.1723 0.596612,-0.882686 0.882686,-0.882686 z"
           id="path3731"
           sodipodi:nodetypes="zzzzz" />
        <path
           style="fill:#000000;fill-opacity:0;stroke:#ffbf20;stroke-width:0.0633669;stroke-linecap:round;stroke-linejoin:round;stroke-miterlimit:4;stroke-dasharray:none;stroke-opacity:1"
           d="m -39.999664,33.456122 0.120442,0.502198 0.326002,-0.05575 -0.446445,0.446444 -0.446443,-0.446444 0.326003,0.05575 z"
           id="path3733" />
      </g>
      <g
         id="g3747"
         transform="translate(6.7492461,2.0349215)">
        <path
           style="fill:#fff292;fill-opacity:1;stroke:none;stroke-width:0.0633669;stroke-linecap:round;stroke-linejoin:round;stroke-miterlimit:4;stroke-dasharray:none;stroke-opacity:1"
           d="m -39.997964,32.81569 c 0.286074,0 0.882685,0.710386 0.882685,0.882686 0,0.1723 -0.694132,0.882685 -0.882685,0.882685 -0.188553,0 -0.882686,-0.710385 -0.882686,-0.882685 0,-0.1723 0.596612,-0.882686 0.882686,-0.882686 z"
           id="path3743"
           sodipodi:nodetypes="zzzzz" />
        <path
           style="fill:#000000;fill-opacity:0;stroke:#ffbf20;stroke-width:0.0633669;stroke-linecap:round;stroke-linejoin:round;stroke-miterlimit:4;stroke-dasharray:none;stroke-opacity:1"
           d="m -39.999664,33.456122 0.120442,0.502198 0.326002,-0.05575 -0.446445,0.446444 -0.446443,-0.446444 0.326003,0.05575 z"
           id="path3745" />
      </g>
      <g
         id="g3815"
         transform="translate(6.9145705,-2.5487681)">
        <path
           style="fill:#fff292;fill-opacity:1;stroke:none;stroke-width:0.0633669;stroke-linecap:round;stroke-linejoin:round;stroke-miterlimit:4;stroke-dasharray:none;stroke-opacity:1"
           d="m -39.997964,32.81569 c 0.286074,0 0.882685,0.710386 0.882685,0.882686 0,0.1723 -0.694132,0.882685 -0.882685,0.882685 -0.188553,0 -0.882686,-0.710385 -0.882686,-0.882685 0,-0.1723 0.596612,-0.882686 0.882686,-0.882686 z"
           id="path3811"
           sodipodi:nodetypes="zzzzz" />
        <path
           style="fill:#000000;fill-opacity:0;stroke:#ffbf20;stroke-width:0.0633669;stroke-linecap:round;stroke-linejoin:round;stroke-miterlimit:4;stroke-dasharray:none;stroke-opacity:1"
           d="m -39.999664,33.456122 0.120442,0.502198 0.326002,-0.05575 -0.446445,0.446444 -0.446443,-0.446444 0.326003,0.05575 z"
           id="path3813" />
      </g>
      <g
         id="g3948"
         transform="translate(-0.03766092,0.17965466)">
        <path
           style="fill:#fff292;fill-opacity:1;stroke:none;stroke-width:0.0633669;stroke-linecap:round;stroke-linejoin:round;stroke-miterlimit:4;stroke-dasharray:none;stroke-opacity:1"
           d="m -34.433478,35.837279 c 0.286074,0 0.882685,0.710386 0.882685,0.882686 0,0.1723 -0.711315,0.350005 -0.899868,0.350005 -0.188553,0 -0.865503,-0.177705 -0.865503,-0.350005 0,-0.1723 0.596612,-0.882686 0.882686,-0.882686 z"
           id="path3823"
           sodipodi:nodetypes="zzzzz" />
        <path
           style="fill:#000000;fill-opacity:0;stroke:#ffbf20;stroke-width:0.0633669;stroke-linecap:round;stroke-linejoin:round;stroke-miterlimit:4;stroke-dasharray:none;stroke-opacity:1"
           d="m -34.435178,35.962214 0.120442,0.502198 0.326002,-0.05575 -0.446445,0.446444 -0.446443,-0.446444 0.326003,0.05575 z"
           id="path3825" />
      </g>
      <g
         id="g3952"
         transform="translate(-0.03456997,0.21130607)">
        <path
           style="fill:#fff292;fill-opacity:1;stroke:none;stroke-width:0.0633669;stroke-linecap:round;stroke-linejoin:round;stroke-miterlimit:4;stroke-dasharray:none;stroke-opacity:1"
           d="m -36.799516,35.696023 c 0.286074,0 0.882685,0.710386 0.882685,0.882686 0,0.1723 -0.68554,0.367188 -0.874093,0.367188 -0.188553,0 -0.891278,-0.194888 -0.891278,-0.367188 0,-0.1723 0.596612,-0.882686 0.882686,-0.882686 z"
           id="path3829"
           sodipodi:nodetypes="zzzzz" />
        <path
           style="fill:#000000;fill-opacity:0;stroke:#ffbf20;stroke-width:0.0633669;stroke-linecap:round;stroke-linejoin:round;stroke-miterlimit:4;stroke-dasharray:none;stroke-opacity:1"
           d="m -36.792625,35.803775 0.120442,0.502198 0.326002,-0.05575 -0.446445,0.446444 -0.446443,-0.446444 0.326003,0.05575 z"
           id="path3831" />
      </g>
      <g
         id="g3839"
         transform="translate(1.8524018,1.9047331)">
        <path
           style="fill:#fff292;fill-opacity:1;stroke:none;stroke-width:0.0633669;stroke-linecap:round;stroke-linejoin:round;stroke-miterlimit:4;stroke-dasharray:none;stroke-opacity:1"
           d="m -39.997964,32.81569 c 0.286074,0 0.882685,0.710386 0.882685,0.882686 0,0.1723 -0.694132,0.882685 -0.882685,0.882685 -0.188553,0 -0.882686,-0.710385 -0.882686,-0.882685 0,-0.1723 0.596612,-0.882686 0.882686,-0.882686 z"
           id="path3835"
           sodipodi:nodetypes="zzzzz" />
        <path
           style="fill:#000000;fill-opacity:0;stroke:#ffbf20;stroke-width:0.0633669;stroke-linecap:round;stroke-linejoin:round;stroke-miterlimit:4;stroke-dasharray:none;stroke-opacity:1"
           d="m -39.999664,33.456122 0.120442,0.502198 0.326002,-0.05575 -0.446445,0.446444 -0.446443,-0.446444 0.326003,0.05575 z"
           id="path3837" />
      </g>
      <g
         id="g3884"
         transform="translate(0.01479769,0.3760987)">
        <path
           style="fill:#fff292;fill-opacity:1;stroke:none;stroke-width:0.0633669;stroke-linecap:round;stroke-linejoin:round;stroke-miterlimit:4;stroke-dasharray:none;stroke-opacity:1"
           d="m -39.342125,33.224043 c 0.286074,0 0.882685,0.710386 0.882685,0.882686 0,0.1723 -0.694132,0.882685 -0.882685,0.882685 -0.188553,0 -0.553185,-0.669197 -0.553185,-0.841497 0,-0.1723 0.267111,-0.923874 0.553185,-0.923874 z"
           id="path3841"
           sodipodi:nodetypes="zzzzz" />
        <path
           style="fill:#000000;fill-opacity:0;stroke:#ffbf20;stroke-width:0.0633669;stroke-linecap:round;stroke-linejoin:round;stroke-miterlimit:4;stroke-dasharray:none;stroke-opacity:1"
           d="m -39.343825,33.864475 0.120442,0.502198 0.326002,-0.05575 -0.446445,0.446444 -0.343474,-0.446444 0.223034,0.05575 z"
           id="path3843"
           sodipodi:nodetypes="ccccccc" />
      </g>
      <g
         id="g3851"
         transform="translate(1.8681329,-0.33453838)">
        <path
           style="fill:#fff292;fill-opacity:1;stroke:none;stroke-width:0.0633669;stroke-linecap:round;stroke-linejoin:round;stroke-miterlimit:4;stroke-dasharray:none;stroke-opacity:1"
           d="m -39.997964,32.81569 c 0.286074,0 0.882685,0.710386 0.882685,0.882686 0,0.1723 -0.694132,0.882685 -0.882685,0.882685 -0.188553,0 -0.882686,-0.710385 -0.882686,-0.882685 0,-0.1723 0.596612,-0.882686 0.882686,-0.882686 z"
           id="path3847"
           sodipodi:nodetypes="zzzzz" />
        <path
           style="fill:#000000;fill-opacity:0;stroke:#ffbf20;stroke-width:0.0633669;stroke-linecap:round;stroke-linejoin:round;stroke-miterlimit:4;stroke-dasharray:none;stroke-opacity:1"
           d="m -39.999664,33.456122 0.120442,0.502198 0.326002,-0.05575 -0.446445,0.446444 -0.446443,-0.446444 0.326003,0.05575 z"
           id="path3849" />
      </g>
      <g
         id="g3857"
         transform="translate(1.6639164,-2.5363238)">
        <path
           style="fill:#fff292;fill-opacity:1;stroke:none;stroke-width:0.0633669;stroke-linecap:round;stroke-linejoin:round;stroke-miterlimit:4;stroke-dasharray:none;stroke-opacity:1"
           d="m -39.997964,32.81569 c 0.286074,0 0.882685,0.710386 0.882685,0.882686 0,0.1723 -0.694132,0.882685 -0.882685,0.882685 -0.188553,0 -0.882686,-0.710385 -0.882686,-0.882685 0,-0.1723 0.596612,-0.882686 0.882686,-0.882686 z"
           id="path3853"
           sodipodi:nodetypes="zzzzz" />
        <path
           style="fill:#000000;fill-opacity:0;stroke:#ffbf20;stroke-width:0.0633669;stroke-linecap:round;stroke-linejoin:round;stroke-miterlimit:4;stroke-dasharray:none;stroke-opacity:1"
           d="m -39.999664,33.456122 0.120442,0.502198 0.326002,-0.05575 -0.446445,0.446444 -0.446443,-0.446444 0.326003,0.05575 z"
           id="path3855" />
      </g>
      <g
         id="g3890"
         transform="translate(-0.13063564,-1.7904606)">
        <path
           style="fill:#fff292;fill-opacity:1;stroke:none;stroke-width:0.0633669;stroke-linecap:round;stroke-linejoin:round;stroke-miterlimit:4;stroke-dasharray:none;stroke-opacity:1"
           d="m -39.342125,33.224043 c 0.286074,0 0.882685,0.710386 0.882685,0.882686 0,0.1723 -0.694132,0.882685 -0.882685,0.882685 -0.188553,0 -0.553185,-0.669197 -0.553185,-0.841497 0,-0.1723 0.267111,-0.923874 0.553185,-0.923874 z"
           id="path3886"
           sodipodi:nodetypes="zzzzz" />
        <path
           style="fill:#000000;fill-opacity:0;stroke:#ffbf20;stroke-width:0.0633669;stroke-linecap:round;stroke-linejoin:round;stroke-miterlimit:4;stroke-dasharray:none;stroke-opacity:1"
           d="m -39.343825,33.864475 0.120442,0.502198 0.326002,-0.05575 -0.446445,0.446444 -0.343474,-0.446444 0.223034,0.05575 z"
           id="path3888"
           sodipodi:nodetypes="ccccccc" />
      </g>
      <g
         id="g3896"
         transform="translate(-0.22211682,-3.9838036)">
        <path
           style="fill:#fff292;fill-opacity:1;stroke:none;stroke-width:0.0633669;stroke-linecap:round;stroke-linejoin:round;stroke-miterlimit:4;stroke-dasharray:none;stroke-opacity:1"
           d="m -39.342125,33.224043 c 0.286074,0 0.882685,0.710386 0.882685,0.882686 0,0.1723 -0.694132,0.882685 -0.882685,0.882685 -0.188553,0 -0.553185,-0.669197 -0.553185,-0.841497 0,-0.1723 0.267111,-0.923874 0.553185,-0.923874 z"
           id="path3892"
           sodipodi:nodetypes="zzzzz" />
        <path
           style="fill:#000000;fill-opacity:0;stroke:#ffbf20;stroke-width:0.0633669;stroke-linecap:round;stroke-linejoin:round;stroke-miterlimit:4;stroke-dasharray:none;stroke-opacity:1"
           d="m -39.343825,33.864475 0.120442,0.502198 0.326002,-0.05575 -0.446445,0.446444 -0.343474,-0.446444 0.223034,0.05575 z"
           id="path3894"
           sodipodi:nodetypes="ccccccc" />
      </g>
      <g
         id="g3944"
         transform="translate(-9.2196942e-4,0.21753827)">
        <path
           style="fill:#000000;fill-opacity:0;stroke:#ffbf20;stroke-width:0.0633669;stroke-linecap:round;stroke-linejoin:round;stroke-miterlimit:4;stroke-dasharray:none;stroke-opacity:1"
           d="m -31.914562,34.099203 0.120442,0.502198 0.205719,-0.01279 -0.326162,0.403486 -0.446443,-0.446444 0.326003,0.05575 z"
           id="path3739"
           sodipodi:nodetypes="ccccccc" />
        <g
           id="g3902">
          <path
             style="fill:#fff292;fill-opacity:1;stroke:none;stroke-width:0.0633669;stroke-linecap:round;stroke-linejoin:round;stroke-miterlimit:4;stroke-dasharray:none;stroke-opacity:1"
             d="m -31.912862,33.458771 c 0.286074,0 0.530429,0.693203 0.530429,0.865503 0,0.1723 -0.341876,0.899868 -0.530429,0.899868 -0.188553,0 -0.882686,-0.710385 -0.882686,-0.882685 0,-0.1723 0.596612,-0.882686 0.882686,-0.882686 z"
             id="path3737"
             sodipodi:nodetypes="zzzzz" />
          <path
             style="fill:#000000;fill-opacity:0;stroke:#ffbf20;stroke-width:0.0633669;stroke-linecap:round;stroke-linejoin:round;stroke-miterlimit:4;stroke-dasharray:none;stroke-opacity:1"
             d="m -31.914562,34.099203 0.120442,0.502198 0.205719,-0.01279 -0.326162,0.403486 -0.446443,-0.446444 0.326003,0.05575 z"
             id="path3898"
             sodipodi:nodetypes="ccccccc" />
        </g>
      </g>
      <g
         id="g3908"
         transform="translate(0.04476423,-2.1443258)">
        <path
           style="fill:#fff292;fill-opacity:1;stroke:none;stroke-width:0.0633669;stroke-linecap:round;stroke-linejoin:round;stroke-miterlimit:4;stroke-dasharray:none;stroke-opacity:1"
           d="m -31.912862,33.458771 c 0.286074,0 0.530429,0.693203 0.530429,0.865503 0,0.1723 -0.341876,0.899868 -0.530429,0.899868 -0.188553,0 -0.882686,-0.710385 -0.882686,-0.882685 0,-0.1723 0.596612,-0.882686 0.882686,-0.882686 z"
           id="path3904"
           sodipodi:nodetypes="zzzzz" />
        <path
           style="fill:#000000;fill-opacity:0;stroke:#ffbf20;stroke-width:0.0633669;stroke-linecap:round;stroke-linejoin:round;stroke-miterlimit:4;stroke-dasharray:none;stroke-opacity:1"
           d="m -31.914562,34.099203 0.120442,0.502198 0.205719,-0.01279 -0.326162,0.403486 -0.446443,-0.446444 0.326003,0.05575 z"
           id="path3906"
           sodipodi:nodetypes="ccccccc" />
      </g>
      <g
         id="g3914"
         transform="translate(-0.06182047,-4.4061111)">
        <path
           style="fill:#fff292;fill-opacity:1;stroke:none;stroke-width:0.0633669;stroke-linecap:round;stroke-linejoin:round;stroke-miterlimit:4;stroke-dasharray:none;stroke-opacity:1"
           d="m -31.912862,33.458771 c 0.286074,0 0.530429,0.693203 0.530429,0.865503 0,0.1723 -0.341876,0.899868 -0.530429,0.899868 -0.188553,0 -0.882686,-0.710385 -0.882686,-0.882685 0,-0.1723 0.596612,-0.882686 0.882686,-0.882686 z"
           id="path3910"
           sodipodi:nodetypes="zzzzz" />
        <path
           style="fill:#000000;fill-opacity:0;stroke:#ffbf20;stroke-width:0.0633669;stroke-linecap:round;stroke-linejoin:round;stroke-miterlimit:4;stroke-dasharray:none;stroke-opacity:1"
           d="m -31.914562,34.099203 0.120442,0.502198 0.205719,-0.01279 -0.326162,0.403486 -0.446443,-0.446444 0.326003,0.05575 z"
           id="path3912"
           sodipodi:nodetypes="ccccccc" />
      </g>
      <g
         id="g3920"
         transform="translate(-2.6115118,-8.404901)">
        <path
           style="fill:#fff292;fill-opacity:1;stroke:none;stroke-width:0.0633669;stroke-linecap:round;stroke-linejoin:round;stroke-miterlimit:4;stroke-dasharray:none;stroke-opacity:1"
           d="m -31.912862,33.458771 c 0.286074,0 0.530429,0.693203 0.530429,0.865503 0,0.1723 -0.341876,0.899868 -0.530429,0.899868 -0.188553,0 -0.882686,-0.710385 -0.882686,-0.882685 0,-0.1723 0.596612,-0.882686 0.882686,-0.882686 z"
           id="path3916"
           sodipodi:nodetypes="zzzzz" />
        <path
           style="fill:#000000;fill-opacity:0;stroke:#ffbf20;stroke-width:0.0633669;stroke-linecap:round;stroke-linejoin:round;stroke-miterlimit:4;stroke-dasharray:none;stroke-opacity:1"
           d="m -31.914562,34.099203 0.120442,0.502198 0.205719,-0.01279 -0.326162,0.403486 -0.446443,-0.446444 0.326003,0.05575 z"
           id="path3918"
           sodipodi:nodetypes="ccccccc" />
      </g>
      <g
         id="g3926"
         transform="translate(2.2906947,-8.1889447)">
        <path
           style="fill:#fff292;fill-opacity:1;stroke:none;stroke-width:0.0633669;stroke-linecap:round;stroke-linejoin:round;stroke-miterlimit:4;stroke-dasharray:none;stroke-opacity:1"
           d="m -39.342125,33.224043 c 0.286074,0 0.882685,0.710386 0.882685,0.882686 0,0.1723 -0.694132,0.882685 -0.882685,0.882685 -0.188553,0 -0.553185,-0.669197 -0.553185,-0.841497 0,-0.1723 0.267111,-0.923874 0.553185,-0.923874 z"
           id="path3922"
           sodipodi:nodetypes="zzzzz" />
        <path
           style="fill:#000000;fill-opacity:0;stroke:#ffbf20;stroke-width:0.0633669;stroke-linecap:round;stroke-linejoin:round;stroke-miterlimit:4;stroke-dasharray:none;stroke-opacity:1"
           d="m -39.343825,33.864475 0.120442,0.502198 0.326002,-0.05575 -0.446445,0.446444 -0.343474,-0.446444 0.223034,0.05575 z"
           id="path3924"
           sodipodi:nodetypes="ccccccc" />
      </g>
      <g
         id="g3958">
        <path
           style="fill:#fff292;fill-opacity:1;stroke:none;stroke-width:0.0633669;stroke-linecap:round;stroke-linejoin:round;stroke-miterlimit:4;stroke-dasharray:none;stroke-opacity:1"
           d="m -33.646106,26.067748 c 0.286074,0 0.602693,0.418599 0.747222,0.793239 0.144528,0.37464 -0.153989,0.957679 -0.342542,0.957679 -0.188553,0 -0.882686,-0.710385 -0.882686,-0.882685 0,-0.1723 0.191932,-0.868233 0.478006,-0.868233 z"
           id="path3934"
           sodipodi:nodetypes="zzzzz" />
        <path
           style="fill:#000000;fill-opacity:0;stroke:#ffbf20;stroke-width:0.0633669;stroke-linecap:round;stroke-linejoin:round;stroke-miterlimit:4;stroke-dasharray:none;stroke-opacity:1"
           d="m -33.635537,26.666599 0.376731,0.488927 0.250948,-0.07199 -0.209367,0.538635 -0.585769,-0.442064 0.313689,0.04538 z"
           id="path3936"
           sodipodi:nodetypes="ccccccc" />
      </g>
      <path
         style="fill:#fff292;fill-opacity:1;stroke:none;stroke-width:0.0633669;stroke-linecap:round;stroke-linejoin:round;stroke-miterlimit:4;stroke-dasharray:none;stroke-opacity:1"
         d="m -37.819051,26.183371 c -0.286074,0 -0.602693,0.418599 -0.747222,0.793239 -0.144528,0.37464 0.153989,0.957679 0.342542,0.957679 0.188553,0 0.882686,-0.710385 0.882686,-0.882685 0,-0.1723 -0.191932,-0.868233 -0.478006,-0.868233 z"
         id="path3960"
         sodipodi:nodetypes="zzzzz" />
      <path
         style="fill:#000000;fill-opacity:0;stroke:#ffbf20;stroke-width:0.0633669;stroke-linecap:round;stroke-linejoin:round;stroke-miterlimit:4;stroke-dasharray:none;stroke-opacity:1"
         d="m -37.82962,26.782222 -0.376731,0.488927 -0.250948,-0.07199 0.209367,0.538635 0.585769,-0.442064 -0.313689,0.04538 z"
         id="path3962"
         sodipodi:nodetypes="ccccccc" />
      <g
         id="g3989">
        <g
           id="g3970">
          <path
             style="fill:#fff292;fill-opacity:1;stroke:none;stroke-width:0.0633669;stroke-linecap:round;stroke-linejoin:round;stroke-miterlimit:4;stroke-dasharray:none;stroke-opacity:1"
             d="m -38.677642,27.769527 c 0.286074,0 1.326755,1.222033 1.326755,1.394333 0,0.1723 -0.694132,0.882685 -0.882685,0.882685 -0.188553,0 -1.143336,-0.787615 -1.143336,-0.959915 0,-0.1723 0.413192,-1.317103 0.699266,-1.317103 z"
             id="path3859"
             sodipodi:nodetypes="zzzzz" />
          <path
             style="fill:#000000;fill-opacity:0;stroke:#ffbf20;stroke-width:0.0633669;stroke-linecap:round;stroke-linejoin:round;stroke-miterlimit:4;stroke-dasharray:none;stroke-opacity:1"
             d="m -38.235272,28.921606 0.120442,0.502198 0.326002,-0.05575 -0.446445,0.446444 -0.446443,-0.446444 0.326003,0.05575 z"
             id="path3861" />
        </g>
        <path
           style="fill:#000000;fill-opacity:0;stroke:#ffbf20;stroke-width:0.0633669;stroke-linecap:round;stroke-linejoin:round;stroke-miterlimit:4;stroke-dasharray:none;stroke-opacity:1"
           d="m -38.591381,27.932635 -0.283454,0.535566 -0.111033,-0.149721 -0.117102,0.647458 0.189332,-0.346769 0.144933,-0.08101 z"
           id="path3976"
           sodipodi:nodetypes="ccccccc" />
      </g>
      <g
         id="g3983">
        <path
           style="fill:#fff292;fill-opacity:1;stroke:none;stroke-width:0.0633669;stroke-linecap:round;stroke-linejoin:round;stroke-miterlimit:4;stroke-dasharray:none;stroke-opacity:1"
           d="m -32.81025,27.685959 c 0.286074,0 0.670303,0.932422 0.670303,1.104722 0,0.1723 -0.887206,1.046798 -1.075759,1.046798 -0.188553,0 -0.882686,-0.710385 -0.882686,-0.882685 0,-0.1723 1.002068,-1.268835 1.288142,-1.268835 z"
           id="path3817"
           sodipodi:nodetypes="zzzzz" />
        <path
           style="fill:#000000;fill-opacity:0;stroke:#ffbf20;stroke-width:0.0633669;stroke-linecap:round;stroke-linejoin:round;stroke-miterlimit:4;stroke-dasharray:none;stroke-opacity:1"
           d="m -33.217406,28.71254 0.120442,0.502198 0.326002,-0.05575 -0.446445,0.446444 -0.446443,-0.446444 0.326003,0.05575 z"
           id="path3819" />
        <path
           style="fill:#000000;fill-opacity:0;stroke:#ffbf20;stroke-width:0.0633669;stroke-linecap:round;stroke-linejoin:round;stroke-miterlimit:4;stroke-dasharray:none;stroke-opacity:1"
           d="m -32.92754,27.837628 0.283454,0.535566 0.111033,-0.149721 0.117102,0.647458 -0.189332,-0.346769 -0.144933,-0.08101 z"
           id="path3978"
           sodipodi:nodetypes="ccccccc" />
      </g>
      <ellipse
         style="fill:none;fill-opacity:1;stroke:#00bbac;stroke-width:0.130577;stroke-linecap:round;stroke-linejoin:round;stroke-miterlimit:4;stroke-dasharray:none"
         id="ellipse3991"
         cx="39.752167"
         cy="-37.718105"
         rx="1.0786865"
         ry="0.15349902"
         transform="matrix(-0.99999858,0.0016831,-0.10831362,-0.99411677,0,0)" />
    </g>
  </g>
</svg>
